<svg xmlns="http://www.w3.org/2000/svg" width="388" height="234" viewBox="0 0 388 234">
  <g fill="none" fill-rule="evenodd">
    <rect width="73" height="89" x="154" y="122" fill="#FFF" fill-rule="nonzero"/>
    <rect width="6" height="21" x="51" y="191" stroke="#000" stroke-linecap="round" stroke-linejoin="round" stroke-width="3.97" rx="1.7"/>
    <rect width="85" height="89" x="140" y="122" fill="#FFF" fill-rule="nonzero"/>
    <path fill="#FFF" fill-rule="nonzero" d="M376.743778,123 L312.256222,123 C308.253273,123.011 305.010967,126.263116 305,130.278178 L305,204.721822 C305.010967,208.736884 308.253273,211.989 312.256222,212 L376.743778,212 C380.746727,211.989 383.989033,208.736884 384,204.721822 L384,130.278178 C383.989033,126.263116 380.746727,123.011 376.743778,123 Z"/>
    <path stroke="#000" stroke-linecap="round" stroke-linejoin="round" stroke-width="3.97" d="M305 146L384 146M305 140L384 140"/>
    <rect width="16" height="6" x="337" y="129" stroke="#000" stroke-linecap="round" stroke-linejoin="round" stroke-width="3.97"/>
    <path fill="#000" fill-rule="nonzero" d="M329.517147 129.697492L329.517147 128.014982C329.517147 126.902138 328.614039 126 327.5 126 326.385961 126 325.482853 126.902138 325.482853 128.014982L325.482853 129.647117C324.236441 130.525276 323.7029 132.108656 324.164031 133.56096 324.625162 135.013265 325.974757 136 327.5 136 329.025243 136 330.374838 135.013265 330.835969 133.56096 331.2971 132.108656 330.763559 130.525276 329.517147 129.647117L329.517147 129.697492zM316.517147 129.697492L316.517147 128.014982C316.517147 126.902138 315.614039 126 314.5 126 313.385961 126 312.482853 126.902138 312.482853 128.014982L312.482853 129.647117C311.236441 130.525276 310.7029 132.108656 311.164031 133.56096 311.625162 135.013265 312.974757 136 314.5 136 316.025243 136 317.374838 135.013265 317.835969 133.56096 318.2971 132.108656 317.763559 130.525276 316.517147 129.647117L316.517147 129.697492zM376.517147 129.697492L376.517147 128.014982C376.517147 126.902138 375.614039 126 374.5 126 373.385961 126 372.482853 126.902138 372.482853 128.014982L372.482853 129.647117C371.236441 130.525276 370.7029 132.108656 371.164031 133.56096 371.625162 135.013265 372.974757 136 374.5 136 376.025243 136 377.374838 135.013265 377.835969 133.56096 378.2971 132.108656 377.763559 130.525276 376.517147 129.647117L376.517147 129.697492zM363.517147 129.697492L363.517147 128.014982C363.517147 126.902138 362.614039 126 361.5 126 360.385961 126 359.482853 126.902138 359.482853 128.014982L359.482853 129.647117C358.236441 130.525276 357.7029 132.108656 358.164031 133.56096 358.625162 135.013265 359.974757 136 361.5 136 363.025243 136 364.374838 135.013265 364.835969 133.56096 365.2971 132.108656 364.763559 130.525276 363.517147 129.647117L363.517147 129.697492z"/>
    <polyline stroke="#000" stroke-linecap="round" stroke-linejoin="round" stroke-width="3.97" points="368.106 188 313 188 313 155 376 155 376 188"/>
    <path stroke="#000" stroke-linecap="round" stroke-linejoin="round" stroke-width="3.97" d="M300,123 L283,123"/>
    <rect width="6" height="21" x="237" y="156" stroke="#000" stroke-linecap="round" stroke-linejoin="round" stroke-width="3.97" rx="1.7" transform="rotate(180 240 166.5)"/>
    <polyline stroke="#000" stroke-linecap="round" stroke-linejoin="round" stroke-width="3.97" points="300 212 227 212 227 123 269.477 123"/>
    <path stroke="#000" stroke-linecap="round" stroke-linejoin="round" stroke-width="3.97" d="M306 196L384 196M384 140.910062L384 204.725913C383.989034 208.738718 380.747138 211.989006 376.744694 212L312.255306 212C308.252862 211.989006 305.010966 208.738718 305 204.725913L305 130.274087C305.010966 126.261282 308.252862 123.010994 312.255306 123L376.734715 123C380.737158 123.010994 383.979055 126.261282 383.99002 130.274087L383.99002 134.546487"/>
    <circle cx="205.5" cy="88.5" r="2.5" fill="#000" fill-rule="nonzero"/>
    <polygon fill="#FFF" fill-rule="nonzero" points="196.238 89 215.705 93.668 217 121 193 121 196.356 95.11"/>
    <polyline stroke="#000" stroke-linecap="round" stroke-linejoin="round" stroke-width="3.97" points="196 90 196 95.976 192 122"/>
    <path stroke="#000" stroke-linecap="round" stroke-linejoin="round" stroke-width="3.97" d="M203 90C203.948127 90 215.668588 93.3371141 215.668588 93.3371141L217 122M217 99L222.19945 99C223.191678 99.0054065 223.994736 99.8302216 224 100.849331L224 114.150669C223.994736 115.169778 223.191678 115.994593 222.19945 116L218.270977 116"/>
    <polyline stroke="#000" stroke-linecap="round" stroke-linejoin="round" stroke-width="3.97" points="154 212 227 212 227 123 184.856 123"/>
    <path stroke="#000" stroke-linecap="round" stroke-linejoin="round" stroke-width="4.3" d="M153,123 L171,123"/>
    <rect width="6" height="21" x="211" y="156" stroke="#000" stroke-linecap="round" stroke-linejoin="round" stroke-width="3.97" rx="1.7"/>
    <circle cx="38.5" cy="39.5" r="2.5" fill="#00FFD2" fill-rule="nonzero" transform="rotate(-21.14 38.5 39.5)"/>
    <circle cx="21" cy="59" r="2" fill="#00FFD2" fill-rule="nonzero" transform="rotate(-21.14 21 59)"/>
    <circle cx="5" cy="25" r="2" fill="#00FFD2" fill-rule="nonzero" transform="rotate(-21.14 5 25)"/>
    <path stroke="#F0F" stroke-linecap="round" stroke-linejoin="round" stroke-width="2.75" d="M7 44L29 48M33 48L36 48.57M28 58.55L36 58M39 18L45 33"/>
    <path fill="#000" fill-rule="nonzero" d="M14.5328678,29.4701389 C14.6987122,29.556414 14.8967689,29.556414 15.0626132,29.4701389 C15.348061,29.253397 15.6034666,29.0003725 15.8222482,28.7175859 C16.3388262,28.0364584 17.0286674,27.5033986 17.8212874,27.1728718 C19.2080312,26.7763458 20.6882385,27.374378 21.3995677,28.6185658 C21.7193823,29.3992766 21.8262424,30.2496025 21.7094187,31.0841671 C21.6609825,31.4290767 21.6609825,31.778969 21.7094187,32.1238785 C21.7580598,32.3069192 21.8904968,32.4567877 22.0672051,32.5287572 C22.2439134,32.6007266 22.4444573,32.5864741 22.6089864,32.490253 C22.8919996,32.2816736 23.1443041,32.0350539 23.3586261,31.757504 C23.8752042,31.0763765 24.5650453,30.5433168 25.3576654,30.2127899 C26.7505619,29.8059213 28.2425863,30.4053788 28.955936,31.6584839 C29.2757506,32.4391947 29.3826107,33.2895206 29.2657871,34.1240853 C29.2173509,34.4689948 29.2173509,34.8188871 29.2657871,35.1637967 C29.3099781,35.3500551 29.4448969,35.50228 29.6256142,35.5697792 C29.8086444,35.6480669 30.01921,35.6294417 30.1853452,35.5202692 C30.4614743,35.3181206 30.7071545,35.0780649 30.9149945,34.8073242 C31.2173306,34.3961895 31.775543,34.2621269 32.2343604,34.4904598 C32.5380533,34.6036712 32.7806134,34.836797 32.9040385,35.1340906 C33.0319872,35.4245247 33.0319872,35.7546419 32.9040385,36.0450759 C32.8276498,36.2244986 32.7193098,36.3888478 32.5841923,36.5302745 C32.0904319,37.1377236 31.446578,37.6084375 30.7150906,37.8967524 C29.3317952,38.2584633 27.8766457,37.6476229 27.1767911,36.4114504 C26.8574339,35.6306216 26.750589,34.7804168 26.86694,33.945849 C26.9156343,33.6009572 26.9156343,33.2510294 26.86694,32.9061376 C26.8182989,32.7230969 26.6858619,32.5732285 26.5091536,32.501259 C26.3324453,32.4292895 26.1319014,32.443542 25.9673723,32.5397631 C25.6844437,32.7484402 25.4321521,32.9950473 25.2177326,33.2725121 C24.7011546,33.9536396 24.0113134,34.4866994 23.2186934,34.8172262 C21.820338,35.2275839 20.3216449,34.6230022 19.6104275,33.3616302 C19.2910703,32.5808015 19.1842254,31.7305967 19.3005765,30.8960289 C19.3492707,30.5511371 19.3492707,30.2012092 19.3005765,29.8563174 C19.2519354,29.6732768 19.1194984,29.5234083 18.9427901,29.4514388 C18.7660818,29.3794693 18.5655379,29.3937219 18.4010088,29.4899429 C18.1180802,29.6986201 17.8657885,29.9452272 17.6513691,30.2226919 C17.134791,30.9038194 16.4449499,31.4368792 15.6523298,31.767406 C14.2539744,32.1777637 12.7552814,31.573182 12.044064,30.3118101 C11.7247068,29.5309813 11.6178619,28.6807765 11.7342129,27.8462087 C11.7805822,27.5177399 11.7805822,27.1844761 11.7342129,26.8560073 C11.6943946,26.6623045 11.5599351,26.5009081 11.375509,26.4254422 C11.1910829,26.3499764 10.9808478,26.3703264 10.8146548,26.4797308 C10.5384371,26.6817767 10.2927431,26.9218459 10.0850055,27.1926758 C9.78266937,27.6038105 9.22445704,27.7378731 8.76563962,27.5095402 C8.46260111,27.3953084 8.22039624,27.1625241 8.09596147,26.8659094 C7.96801284,26.5754753 7.96801284,26.2453581 8.09596147,25.9549241 C8.17416059,25.7764613 8.28230534,25.6124085 8.41580775,25.4697255 C8.90956813,24.8622764 9.55342202,24.3915625 10.2849094,24.1032476 C11.6682048,23.7415367 13.1233543,24.3523771 13.8232089,25.5885496 C14.1430235,26.3692605 14.2498836,27.2195864 14.13306,28.054151 C14.08682,28.3826287 14.08682,28.7158746 14.13306,29.0443523 C14.1804952,29.2465762 14.3326982,29.4086691 14.5328678,29.4701389 L14.5328678,29.4701389 Z"/>
    <rect width="77" height="13" x="307" y="76" fill="#FFF" fill-rule="nonzero"/>
    <polygon fill="#FFF" fill-rule="nonzero" points="384 76 307 76 328.062 54 362.282 54"/>
    <rect width="34" height="27" x="328" y="27" fill="#FFF" fill-rule="nonzero"/>
    <polyline stroke="#000" stroke-linecap="round" stroke-linejoin="round" stroke-width="4" points="328.182 27 363 27 363 54 328.182 54 328 38.082"/>
    <path stroke="#000" stroke-linecap="round" stroke-linejoin="round" stroke-width="3.97" d="M328 54L307 75M362 54L379 71"/>
    <rect width="77" height="13" x="307" y="76" stroke="#000" stroke-linecap="round" stroke-linejoin="round" stroke-width="3.97"/>
    <rect width="99" height="167" x="47" y="44" fill="#FFF" fill-rule="nonzero"/>
    <rect width="17" height="41" x="61" y="99" fill="#00FFD2" fill-rule="nonzero"/>
    <path stroke="#000" stroke-linecap="round" stroke-linejoin="round" stroke-width="4.3" d="M92 44L92 211M47 211L47 44"/>
    <polyline stroke="#000" stroke-linecap="round" stroke-linejoin="round" stroke-width="4.3" points="145.99 197 146 44 47 44"/>
    <polyline stroke="#000" stroke-linecap="round" stroke-linejoin="round" stroke-width="4.3" points="47 211 146 211 146 205"/>
    <path stroke="#000" stroke-linecap="round" stroke-linejoin="round" stroke-width="4.2" d="M73,116 L57,116"/>
    <rect width="15" height="30" x="85" y="108" stroke="#000" stroke-linecap="round" stroke-linejoin="round" stroke-width="4.3"/>
    <polyline stroke="#000" stroke-linecap="round" stroke-linejoin="round" stroke-width="4.3" points="73 138.951 73 144 56 144 56 103 73 103 73 130.619"/>
  </g>
</svg>
