<svg xmlns="http://www.w3.org/2000/svg" xmlns:xlink="http://www.w3.org/1999/xlink" width="1183" height="958" style="background:#fff" viewBox="0 0 1183 958">
  <defs>
    <circle id="aci-view--a" cx="13" cy="13" r="13"/>
    <rect id="aci-view--c" width="1128.774" height="520" x="1"/>
    <filter id="aci-view--b" width="102.6%" height="105.6%" x="-1.3%" y="-2.4%" filterUnits="objectBoundingBox">
      <feOffset dy="2" in="SourceAlpha" result="shadowOffsetOuter1"/>
      <feGaussianBlur in="shadowOffsetOuter1" result="shadowBlurOuter1" stdDeviation="4.5"/>
      <feColorMatrix in="shadowBlurOuter1" values="0 0 0 0 0   0 0 0 0 0   0 0 0 0 0  0 0 0 0.0579710145 0"/>
    </filter>
    <rect id="aci-view--d" width="24" height="24" x="44" y="196"/>
    <rect id="aci-view--e" width="56" height="56" x="348" y="192"/>
    <rect id="aci-view--g" width="385.668" height="48"/>
    <filter id="aci-view--f" width="100.8%" height="106.2%" x="-.4%" y="-3.1%" filterUnits="objectBoundingBox">
      <feOffset dy="-3" in="SourceAlpha" result="shadowOffsetInner1"/>
      <feComposite in="shadowOffsetInner1" in2="SourceAlpha" k2="-1" k3="1" operator="arithmetic" result="shadowInnerInner1"/>
      <feColorMatrix in="shadowInnerInner1" values="0 0 0 0 1   0 0 0 0 1   0 0 0 0 1  0 0 0 1 0"/>
    </filter>
    <rect id="aci-view--i" width="1130" height="65"/>
    <filter id="aci-view--h" width="102.6%" height="144.6%" x="-1.3%" y="-19.2%" filterUnits="objectBoundingBox">
      <feOffset dy="2" in="SourceAlpha" result="shadowOffsetOuter1"/>
      <feGaussianBlur in="shadowOffsetOuter1" result="shadowBlurOuter1" stdDeviation="4.5"/>
      <feColorMatrix in="shadowBlurOuter1" values="0 0 0 0 0   0 0 0 0 0   0 0 0 0 0  0 0 0 0.0579710145 0"/>
    </filter>
    <rect id="aci-view--k" width="175" height="43" rx="3"/>
    <filter id="aci-view--j" width="118.3%" height="174.4%" x="-9.1%" y="-32.6%" filterUnits="objectBoundingBox">
      <feOffset dy="2" in="SourceAlpha" result="shadowOffsetOuter1"/>
      <feGaussianBlur in="shadowOffsetOuter1" result="shadowBlurOuter1" stdDeviation="5"/>
      <feColorMatrix in="shadowBlurOuter1" values="0 0 0 0 0   0 0 0 0 0   0 0 0 0 0  0 0 0 0.0664628623 0"/>
    </filter>
    <rect id="aci-view--m" width="186" height="43" rx="3"/>
    <filter id="aci-view--l" width="117.2%" height="174.4%" x="-8.6%" y="-32.6%" filterUnits="objectBoundingBox">
      <feOffset dy="2" in="SourceAlpha" result="shadowOffsetOuter1"/>
      <feGaussianBlur in="shadowOffsetOuter1" result="shadowBlurOuter1" stdDeviation="5"/>
      <feColorMatrix in="shadowBlurOuter1" values="0 0 0 0 0   0 0 0 0 0   0 0 0 0 0  0 0 0 0.0664628623 0"/>
    </filter>
    <rect id="aci-view--o" width="202" height="43" rx="3"/>
    <filter id="aci-view--n" width="115.8%" height="174.4%" x="-7.9%" y="-32.6%" filterUnits="objectBoundingBox">
      <feOffset dy="2" in="SourceAlpha" result="shadowOffsetOuter1"/>
      <feGaussianBlur in="shadowOffsetOuter1" result="shadowBlurOuter1" stdDeviation="5"/>
      <feColorMatrix in="shadowBlurOuter1" values="0 0 0 0 0   0 0 0 0 0   0 0 0 0 0  0 0 0 0.0664628623 0"/>
    </filter>
    <rect id="aci-view--q" width="202" height="43" rx="3"/>
    <filter id="aci-view--p" width="115.8%" height="174.4%" x="-7.9%" y="-32.6%" filterUnits="objectBoundingBox">
      <feOffset dy="2" in="SourceAlpha" result="shadowOffsetOuter1"/>
      <feGaussianBlur in="shadowOffsetOuter1" result="shadowBlurOuter1" stdDeviation="5"/>
      <feColorMatrix in="shadowBlurOuter1" values="0 0 0 0 0   0 0 0 0 0   0 0 0 0 0  0 0 0 0.0664628623 0"/>
    </filter>
    <rect id="aci-view--r" width="943" height="28" rx="4"/>
    <filter id="aci-view--s" width="100.1%" height="103.6%" x="-.1%" y="-1.8%" filterUnits="objectBoundingBox">
      <feOffset dy="1" in="SourceAlpha" result="shadowOffsetInner1"/>
      <feComposite in="shadowOffsetInner1" in2="SourceAlpha" k2="-1" k3="1" operator="arithmetic" result="shadowInnerInner1"/>
      <feColorMatrix in="shadowInnerInner1" values="0 0 0 0 0   0 0 0 0 0   0 0 0 0 0  0 0 0 0.24 0"/>
    </filter>
  </defs>
  <g fill="none" fill-rule="evenodd">
    <g transform="translate(0 58)">
      <rect width="1184" height="140" fill="#1E88E5"/>
      <path fill="#FFF" d="M1141 40C1139.89543 40 1139 39.1045695 1139 38 1139 36.8954305 1139.89543 36 1141 36 1142.10457 36 1143 36.8954305 1143 38 1143 39.1045695 1142.10457 40 1141 40zM1141 34C1139.89543 34 1139 33.1045695 1139 32 1139 30.8954305 1139.89543 30 1141 30 1142.10457 30 1143 30.8954305 1143 32 1143 33.1045695 1142.10457 34 1141 34zM1141 28C1139.89543 28 1139 27.1045695 1139 26 1139 24.8954305 1139.89543 24 1141 24 1142.10457 24 1143 24.8954305 1143 26 1143 27.1045695 1142.10457 28 1141 28zM1090.37408 31.108C1090.37408 31.108 1090.37792 31.1386667 1090.37856 31.1546667L1091.33728 31.108 1093.06784 31.108 1093.06784 24.3333333 1090.69024 26.8046667C1089.28032 25.0846667 1087.07232 24 1084.73504 24 1080.50016 24 1077 27.5886667 1077 32 1077 36.4113333 1080.41696 40 1084.65184 40 1087.6016 40 1090.31264 38.206 1091.57856 35.4293333L1089.83776 34.5713333C1088.88736 36.6546667 1086.83936 38.0006667 1084.62688 38.0006667 1081.45056 38.0006667 1078.8656 35.3086667 1078.8656 32.0006667 1078.8656 28.6926667 1081.44864 26.0006667 1084.62496 26.0006667 1086.46624 26.0006667 1088.10336 26.6213333 1089.15872 28.0253333L1086.22496 31.108 1090.37408 31.108 1090.37408 31.108z"/>
      <text fill="#FFF" font-family="Roboto-Regular, Roboto" font-size="21">
        <tspan x="71" y="38">Edit Report 12-12-17</tspan>
      </text>
      <path fill="#FFF" d="M26,31 L44,31 L44,33 L26,33 L26,31 Z M26,36 L44,36 L44,38 L26,38 L26,36 Z M26,26 L44,26 L44,28 L26,28 L26,26 Z"/>
    </g>
    <g transform="translate(0 58)">
      <g>
        <rect width="1184" height="64" fill="#1E88E5"/>
        <g fill="#FFF" font-size="16" transform="translate(60 24)">
          <text font-family="Roboto-Regular, Roboto">
            <tspan x="154" y="15">Dashboard</tspan>
          </text>
          <text font-family="Roboto-Medium, Roboto" font-weight="400">
            <tspan x="0" y="15">MIPSight</tspan>
          </text>
          <text font-family="Roboto-Regular, Roboto">
            <tspan x="281" y="15">All Reports</tspan>
          </text>
          <text font-family="Roboto-Regular, Roboto">
            <tspan x="408" y="15">Create Report</tspan>
          </text>
          <text font-family="Roboto-Regular, Roboto">
            <tspan x="556" y="15">Scorecard</tspan>
          </text>
          <text font-family="Roboto-Regular, Roboto">
            <tspan x="678" y="15">Providers</tspan>
          </text>
          <text font-family="Roboto-Regular, Roboto">
            <tspan x="795" y="15">Contact</tspan>
          </text>
        </g>
      </g>
      <text fill="#FFF" font-family="Roboto-Regular, Roboto" font-size="16">
        <tspan x="1020" y="39">Harriet Becker</tspan>
      </text>
      <g transform="translate(980 19)">
        <use fill="#FFF" opacity=".898" xlink:href="#aci-view--a"/>
        <path fill="#085083" fill-rule="nonzero" d="M13,0 C5.82081633,0 0,5.82081633 0,13 C0,20.1818367 5.82081633,26 13,26 C20.1818367,26 26,20.1791837 26,13 C26,5.82081633 20.1818367,0 13,0 Z M9.84816327,5.58734694 C10.6891837,4.74632653 11.8061224,4.28469388 13.0026531,4.28469388 C14.1938776,4.28469388 15.3187755,4.74632653 16.1518367,5.58734694 C17.0008163,6.43102041 17.465102,7.54795918 17.465102,8.74183673 C17.465102,9.93306122 17.0008163,11.0473469 16.1518367,11.8910204 C15.3161224,12.7320408 14.1938776,13.1989796 13.0026531,13.1989796 C11.8087755,13.1989796 10.6918367,12.7346939 9.84816327,11.8910204 C9.00714286,11.05 8.54020408,9.93040816 8.54020408,8.74183673 C8.54020408,7.54795918 9.00714286,6.43102041 9.84816327,5.58734694 Z M13,23.4795918 C9.65979592,23.4795918 6.64061224,22.1 4.48897959,19.8767347 C5.46795918,17.0804082 8.08653061,14.9606122 11.0022449,14.9606122 L14.995102,14.9606122 C17.9055102,14.9606122 20.5293878,17.0804082 21.5110204,19.8740816 C19.3567347,22.1 16.3402041,23.4795918 13,23.4795918 Z"/>
      </g>
    </g>
    <rect width="1183" height="760" y="198" fill="#F5F5F5"/>
    <g transform="translate(26 374)">
      <use fill="#000" filter="url(#aci-view--b)" xlink:href="#aci-view--c"/>
      <use fill="#FFF" xlink:href="#aci-view--c"/>
      <text fill="#000" fill-opacity=".834" font-family="Roboto-Regular, Roboto" font-size="12">
        <tspan x="786" y="561">Rows per page:</tspan>
      </text>
      <text fill="#000" fill-opacity=".834" font-family="Roboto-Regular, Roboto" font-size="12">
        <tspan x="896" y="561">10</tspan>
      </text>
      <text fill="#000" fill-opacity=".834" font-family="Roboto-Regular, Roboto" font-size="12">
        <tspan x="963" y="561">1-10 of 100</tspan>
      </text>
      <g fill="#757575" transform="translate(916 550)">
        <polygon points="0 5 5 10 10 5"/>
        <polygon points="7.4 11.1 2.8 6.5 7.4 1.9 6 .5 0 6.5 6 12.5" transform="translate(149)"/>
        <polygon points=".6 11.3 5.2 6.8 .6 2.2 2 .8 8 6.8 2 12.8" transform="translate(198)"/>
      </g>
      <path fill="#000" d="M6,12 L12,12 L12,10 L6,10 L6,12 L6,12 Z M0,0 L0,2 L18,2 L18,0 L0,0 L0,0 Z M3,7 L15,7 L15,5 L3,5 L3,7 L3,7 Z" transform="translate(1043 27)"/>
      <use fill="#D8D8D8" xlink:href="#aci-view--d"/>
      <rect width="23" height="23" x="44.5" y="196.5" stroke="#979797"/>
      <use fill="#D8D8D8" xlink:href="#aci-view--e"/>
      <rect width="55" height="55" x="348.5" y="192.5" stroke="#979797"/>
      <g transform="translate(1 170)">
        <rect width="712" height="49" x="1" y=".5" fill="#FFF"/>
        <text fill="#000" fill-opacity=".87" font-family="Roboto-Regular, Roboto" font-size="13">
          <tspan x="67" y="31">Emma Copeland</tspan>
        </text>
        <g fill="#000" transform="translate(22 14)">
          <rect width="24" height="24" fill="none"/>
          <path fill="#1B1B1B" d="M19,5 L19,19 L5,19 L5,5 L19,5 L19,5 Z M19,3 L5,3 C3.9,3 3,3.9 3,5 L3,19 C3,20.1 3.9,21 5,21 L19,21 C20.1,21 21,20.1 21,19 L21,5 C21,3.9 20.1,3 19,3 L19,3 L19,3 Z" opacity=".663"/>
        </g>
        <path stroke="#E0E0E0" stroke-linecap="square" d="M0.791566898,49.5 L1127.98283,49.5"/>
      </g>
      <g transform="translate(1 370)">
        <rect width="712" height="49" x="1" y=".5" fill="#FFF"/>
        <text fill="#000" fill-opacity=".87" font-family="Roboto-Regular, Roboto" font-size="13">
          <tspan x="67" y="31">Thomas Sutton</tspan>
        </text>
        <g fill="#000" transform="translate(22 14)">
          <rect width="24" height="24" fill="none"/>
          <path fill="#1B1B1B" d="M19,5 L19,19 L5,19 L5,5 L19,5 L19,5 Z M19,3 L5,3 C3.9,3 3,3.9 3,5 L3,19 C3,20.1 3.9,21 5,21 L19,21 C20.1,21 21,20.1 21,19 L21,5 C21,3.9 20.1,3 19,3 L19,3 L19,3 Z" opacity=".663"/>
        </g>
        <path stroke="#E0E0E0" stroke-linecap="square" d="M0.791566898,49.5 L1127.98283,49.5"/>
      </g>
      <g transform="translate(1 270)">
        <rect width="712" height="49" x="1" y=".5" fill="#FFF"/>
        <text fill="#000" fill-opacity=".87" font-family="Roboto-Regular, Roboto" font-size="13">
          <tspan x="67" y="31">Jim Nash</tspan>
        </text>
        <g fill="#000" transform="translate(22 14)">
          <rect width="24" height="24" fill="none"/>
          <path fill="#1B1B1B" d="M19,5 L19,19 L5,19 L5,5 L19,5 L19,5 Z M19,3 L5,3 C3.9,3 3,3.9 3,5 L3,19 C3,20.1 3.9,21 5,21 L19,21 C20.1,21 21,20.1 21,19 L21,5 C21,3.9 20.1,3 19,3 L19,3 L19,3 Z" opacity=".663"/>
        </g>
        <path stroke="#E0E0E0" stroke-linecap="square" d="M0.791566898,49.5 L1127.98283,49.5"/>
      </g>
      <g transform="translate(1 470)">
        <rect width="712" height="49" x="1" y=".5" fill="#FFF"/>
        <text fill="#000" fill-opacity=".87" font-family="Roboto-Regular, Roboto" font-size="13">
          <tspan x="67" y="31">Alejandro Marsh</tspan>
        </text>
        <g fill="#000" transform="translate(22 14)">
          <rect width="24" height="24" fill="none"/>
          <path fill="#1B1B1B" d="M19,5 L19,19 L5,19 L5,5 L19,5 L19,5 Z M19,3 L5,3 C3.9,3 3,3.9 3,5 L3,19 C3,20.1 3.9,21 5,21 L19,21 C20.1,21 21,20.1 21,19 L21,5 C21,3.9 20.1,3 19,3 L19,3 L19,3 Z" opacity=".663"/>
        </g>
        <path stroke="#E0E0E0" stroke-linecap="square" d="M0.791566898,49.5 L1127.98283,49.5"/>
      </g>
      <g transform="translate(1 117)">
        <rect width="712" height="54" x="1" fill="#FFF"/>
        <g fill="#000" transform="translate(22 16)">
          <rect width="24" height="24" fill="none"/>
          <path fill="#1B1B1B" d="M19,5 L19,19 L5,19 L5,5 L19,5 L19,5 Z M19,3 L5,3 C3.9,3 3,3.9 3,5 L3,19 C3,20.1 3.9,21 5,21 L19,21 C20.1,21 21,20.1 21,19 L21,5 C21,3.9 20.1,3 19,3 L19,3 L19,3 Z" opacity=".663"/>
        </g>
        <text fill="#4A4A4A" font-family="Roboto-Medium, Roboto" font-size="12" font-weight="400">
          <tspan x="67" y="31">Provider Name</tspan>
        </text>
        <path stroke="#E0E0E0" stroke-linecap="square" d="M0.791566898,53.5 L1127.98283,53.5"/>
      </g>
      <rect width="1128.774" height="54" x="1" y="62" fill="#F1F4F5"/>
      <path fill="#000" d="M2,4 C3.1,4 4,3.1 4,2 C4,0.9 3.1,0 2,0 C0.9,0 0,0.9 0,2 C0,3.1 0.9,4 2,4 L2,4 Z M2,6 C0.9,6 0,6.9 0,8 C0,9.1 0.9,10 2,10 C3.1,10 4,9.1 4,8 C4,6.9 3.1,6 2,6 L2,6 Z M2,12 C0.9,12 0,12.9 0,14 C0,15.1 0.9,16 2,16 C3.1,16 4,15.1 4,14 C4,12.9 3.1,12 2,12 L2,12 Z" transform="translate(1096 25)"/>
      <path fill="#000" d="M1,16 C1,17.1 1.9,18 3,18 L11,18 C12.1,18 13,17.1 13,16 L13,4 L1,4 L1,16 L1,16 Z M14,1 L10.5,1 L9.5,0 L4.5,0 L3.5,1 L0,1 L0,3 L14,3 L14,1 L14,1 Z" opacity=".645" transform="translate(1086 79)"/>
      <text fill="#4A4A4A" font-family="Roboto-Regular, Roboto" font-size="12">
        <tspan x="27" y="92">1 item selected</tspan>
      </text>
      <text fill="#000" font-family="Roboto-Regular, Roboto" font-size="12">
        <tspan x="998" y="94">Edit Item</tspan>
      </text>
      <text fill="#000" font-family="Roboto-Regular, Roboto" font-size="12">
        <tspan x="898" y="94">View Score</tspan>
      </text>
      <path stroke="#E0E0E0" stroke-linecap="square" d="M1.7915669,115.5 L1128.98283,115.5"/>
      <g transform="translate(0 219)">
        <rect width="1127.191" height="49" x="1.583" y=".5" fill="#F1F4F5"/>
        <text fill="#000" fill-opacity=".87" font-family="Roboto-Regular, Roboto" font-size="13">
          <tspan x="67" y="31">Ethan Lawson</tspan>
        </text>
        <g transform="translate(22 14)">
          <rect width="24" height="24"/>
          <path fill="#1575C1" d="M19,3 L5,3 C3.9,3 3,3.9 3,5 L3,19 C3,20.1 3.9,21 5,21 L19,21 C20.1,21 21,20.1 21,19 L21,5 C21,3.9 20.1,3 19,3 L19,3 Z M10,17 L5,12.1923077 L6.4,10.8461538 L10,14.3076923 L17.6,7 L19,8.34615385 L10,17 L10,17 Z"/>
        </g>
        <path stroke="#E0E0E0" stroke-linecap="square" d="M0.791566898,49.5 L1127.98283,49.5"/>
      </g>
      <g transform="translate(1 420)">
        <rect width="712" height="49" x="1" y=".5" fill="#FFF"/>
        <text fill="#000" fill-opacity=".87" font-family="Roboto-Regular, Roboto" font-size="13">
          <tspan x="67" y="31">Fred Warner</tspan>
        </text>
        <g fill="#000" transform="translate(22 14)">
          <rect width="24" height="24" fill="none"/>
          <path fill="#1B1B1B" d="M19,5 L19,19 L5,19 L5,5 L19,5 L19,5 Z M19,3 L5,3 C3.9,3 3,3.9 3,5 L3,19 C3,20.1 3.9,21 5,21 L19,21 C20.1,21 21,20.1 21,19 L21,5 C21,3.9 20.1,3 19,3 L19,3 L19,3 Z" opacity=".663"/>
        </g>
        <path stroke="#E0E0E0" stroke-linecap="square" d="M0.791566898,49.5 L1127.98283,49.5"/>
      </g>
      <g transform="translate(1 320)">
        <rect width="712" height="49" x="1" y=".5" fill="#FFF"/>
        <text fill="#000" fill-opacity=".87" font-family="Roboto-Regular, Roboto" font-size="13">
          <tspan x="67" y="31">Victor Steele</tspan>
        </text>
        <g fill="#000" transform="translate(22 14)">
          <rect width="24" height="24" fill="none"/>
          <path fill="#1B1B1B" d="M19,5 L19,19 L5,19 L5,5 L19,5 L19,5 Z M19,3 L5,3 C3.9,3 3,3.9 3,5 L3,19 C3,20.1 3.9,21 5,21 L19,21 C20.1,21 21,20.1 21,19 L21,5 C21,3.9 20.1,3 19,3 L19,3 L19,3 Z" opacity=".663"/>
        </g>
        <path stroke="#E0E0E0" stroke-linecap="square" d="M0.791566898,49.5 L1127.98283,49.5"/>
      </g>
      <g transform="translate(210 137)">
        <text fill="#000" fill-opacity=".87" font-family="Roboto-Regular, Roboto" font-size="13">
          <tspan x="31.007" y="64">41 / 59</tspan>
        </text>
        <text fill="#000" fill-opacity=".87" font-family="Roboto-Regular, Roboto" font-size="13">
          <tspan x="31.007" y="264">41 / 59</tspan>
        </text>
        <text fill="#000" fill-opacity=".87" font-family="Roboto-Regular, Roboto" font-size="13">
          <tspan x="31.007" y="164">41 / 59</tspan>
        </text>
        <text fill="#000" fill-opacity=".87" font-family="Roboto-Regular, Roboto" font-size="13">
          <tspan x="31.007" y="364">41 / 59</tspan>
        </text>
        <text fill="#4A4A4A" font-family="Roboto-Medium, Roboto" font-size="12" font-weight="400">
          <tspan x=".006" y="11">E-Prescribing</tspan>
        </text>
        <text fill="#000" fill-opacity=".87" font-family="Roboto-Regular, Roboto" font-size="13">
          <tspan x="31.007" y="113">41 / 59</tspan>
        </text>
        <text fill="#000" fill-opacity=".87" font-family="Roboto-Regular, Roboto" font-size="13">
          <tspan x="31.007" y="314">41 / 59</tspan>
        </text>
        <text fill="#000" fill-opacity=".87" font-family="Roboto-Regular, Roboto" font-size="13">
          <tspan x="31.007" y="214">41 / 59</tspan>
        </text>
      </g>
      <g transform="translate(328 130)">
        <text fill="#000" fill-opacity=".87" font-family="Roboto-Regular, Roboto" font-size="13">
          <tspan x="36.007" y="71">41 / 59</tspan>
        </text>
        <text fill="#000" fill-opacity=".87" font-family="Roboto-Regular, Roboto" font-size="13">
          <tspan x="36.007" y="271">41 / 59</tspan>
        </text>
        <text fill="#000" fill-opacity=".87" font-family="Roboto-Regular, Roboto" font-size="13">
          <tspan x="36.007" y="171">41 / 59</tspan>
        </text>
        <text fill="#000" fill-opacity=".87" font-family="Roboto-Regular, Roboto" font-size="13">
          <tspan x="36.007" y="371">41 / 59</tspan>
        </text>
        <text fill="#4A4A4A" font-family="Roboto-Medium, Roboto" font-size="12" font-weight="400">
          <tspan x="-4.879" y="11">Provide Patient</tspan> <tspan x="37.625" y="25">Access</tspan>
        </text>
        <text fill="#000" fill-opacity=".87" font-family="Roboto-Regular, Roboto" font-size="13">
          <tspan x="36.007" y="120">41 / 59</tspan>
        </text>
        <text fill="#000" fill-opacity=".87" font-family="Roboto-Regular, Roboto" font-size="13">
          <tspan x="36.007" y="321">41 / 59</tspan>
        </text>
        <text fill="#000" fill-opacity=".87" font-family="Roboto-Regular, Roboto" font-size="13">
          <tspan x="36.007" y="221">41 / 59</tspan>
        </text>
      </g>
      <g transform="translate(446 130)">
        <text fill="#000" fill-opacity=".87" font-family="Roboto-Regular, Roboto" font-size="13">
          <tspan x="60.007" y="71">41 / 59</tspan>
        </text>
        <text fill="#000" fill-opacity=".87" font-family="Roboto-Regular, Roboto" font-size="13">
          <tspan x="60.007" y="271">41 / 59</tspan>
        </text>
        <text fill="#000" fill-opacity=".87" font-family="Roboto-Regular, Roboto" font-size="13">
          <tspan x="60.007" y="171">41 / 59</tspan>
        </text>
        <text fill="#000" fill-opacity=".87" font-family="Roboto-Regular, Roboto" font-size="13">
          <tspan x="60.007" y="371">41 / 59</tspan>
        </text>
        <text fill="#4A4A4A" font-family="Roboto-Medium, Roboto" font-size="12" font-weight="400">
          <tspan x=".301" y="11">Health information</tspan> <tspan x="49.291" y="25">exchange</tspan>
        </text>
        <text fill="#000" fill-opacity=".87" font-family="Roboto-Regular, Roboto" font-size="13">
          <tspan x="60.007" y="120">41 / 59</tspan>
        </text>
        <text fill="#000" fill-opacity=".87" font-family="Roboto-Regular, Roboto" font-size="13">
          <tspan x="60.007" y="321">41 / 59</tspan>
        </text>
        <text fill="#000" fill-opacity=".87" font-family="Roboto-Regular, Roboto" font-size="13">
          <tspan x="60.007" y="221">41 / 59</tspan>
        </text>
      </g>
      <g transform="translate(575 130)">
        <text fill="#000" fill-opacity=".87" font-family="Roboto-Regular, Roboto" font-size="13">
          <tspan x="58.007" y="71">41 / 59</tspan>
        </text>
        <text fill="#000" fill-opacity=".87" font-family="Roboto-Regular, Roboto" font-size="13">
          <tspan x="58.007" y="271">41 / 59</tspan>
        </text>
        <text fill="#000" fill-opacity=".87" font-family="Roboto-Regular, Roboto" font-size="13">
          <tspan x="58.007" y="171">41 / 59</tspan>
        </text>
        <text fill="#000" fill-opacity=".87" font-family="Roboto-Regular, Roboto" font-size="13">
          <tspan x="58.007" y="371">41 / 59</tspan>
        </text>
        <text fill="#4A4A4A" font-family="Roboto-Medium, Roboto" font-size="12" font-weight="400">
          <tspan x=".451" y="11">View, Download or</tspan> <tspan x="23.965" y="25">Trasmit (VDT)</tspan>
        </text>
        <text fill="#000" fill-opacity=".87" font-family="Roboto-Regular, Roboto" font-size="13">
          <tspan x="58.007" y="120">41 / 59</tspan>
        </text>
        <text fill="#000" fill-opacity=".87" font-family="Roboto-Regular, Roboto" font-size="13">
          <tspan x="58.007" y="321">41 / 59</tspan>
        </text>
        <text fill="#000" fill-opacity=".87" font-family="Roboto-Regular, Roboto" font-size="13">
          <tspan x="58.007" y="221">41 / 59</tspan>
        </text>
      </g>
      <g transform="translate(732 130)">
        <text fill="#000" fill-opacity=".87" font-family="Roboto-Regular, Roboto" font-size="13">
          <tspan x="44.007" y="71">41 / 59</tspan>
        </text>
        <text fill="#000" fill-opacity=".87" font-family="Roboto-Regular, Roboto" font-size="13">
          <tspan x="44.007" y="271">41 / 59</tspan>
        </text>
        <text fill="#000" fill-opacity=".87" font-family="Roboto-Regular, Roboto" font-size="13">
          <tspan x="44.007" y="171">41 / 59</tspan>
        </text>
        <text fill="#000" fill-opacity=".87" font-family="Roboto-Regular, Roboto" font-size="13">
          <tspan x="44.007" y="371">41 / 59</tspan>
        </text>
        <text fill="#4A4A4A" font-family="Roboto-Medium, Roboto" font-size="12" font-weight="400">
          <tspan x=".707" y="11">Patient Specific</tspan> <tspan x="31.551" y="25">Education</tspan>
        </text>
        <text fill="#000" fill-opacity=".87" font-family="Roboto-Regular, Roboto" font-size="13">
          <tspan x="44.007" y="120">41 / 59</tspan>
        </text>
        <text fill="#000" fill-opacity=".87" font-family="Roboto-Regular, Roboto" font-size="13">
          <tspan x="44.007" y="321">41 / 59</tspan>
        </text>
        <text fill="#000" fill-opacity=".87" font-family="Roboto-Regular, Roboto" font-size="13">
          <tspan x="44.007" y="221">41 / 59</tspan>
        </text>
      </g>
      <g transform="translate(860 137)">
        <text fill="#000" fill-opacity=".87" font-family="Roboto-Regular, Roboto" font-size="13">
          <tspan x="58.007" y="64">41 / 59</tspan>
        </text>
        <text fill="#000" fill-opacity=".87" font-family="Roboto-Regular, Roboto" font-size="13">
          <tspan x="58.007" y="264">41 / 59</tspan>
        </text>
        <text fill="#000" fill-opacity=".87" font-family="Roboto-Regular, Roboto" font-size="13">
          <tspan x="58.007" y="164">41 / 59</tspan>
        </text>
        <text fill="#000" fill-opacity=".87" font-family="Roboto-Regular, Roboto" font-size="13">
          <tspan x="58.007" y="364">41 / 59</tspan>
        </text>
        <text fill="#4A4A4A" font-family="Roboto-Medium, Roboto" font-size="12" font-weight="400">
          <tspan x="-.334" y="11">Secure Messaging</tspan>
        </text>
        <text fill="#000" fill-opacity=".87" font-family="Roboto-Regular, Roboto" font-size="13">
          <tspan x="58.007" y="113">41 / 59</tspan>
        </text>
        <text fill="#000" fill-opacity=".87" font-family="Roboto-Regular, Roboto" font-size="13">
          <tspan x="58.007" y="314">41 / 59</tspan>
        </text>
        <text fill="#000" fill-opacity=".87" font-family="Roboto-Regular, Roboto" font-size="13">
          <tspan x="58.007" y="214">41 / 59</tspan>
        </text>
      </g>
      <g transform="translate(984 137)">
        <text fill="#000" fill-opacity=".87" font-family="Roboto-Regular, Roboto" font-size="13">
          <tspan x="77.007" y="64">41 / 59</tspan>
        </text>
        <text fill="#000" fill-opacity=".87" font-family="Roboto-Regular, Roboto" font-size="13">
          <tspan x="77.007" y="264">41 / 59</tspan>
        </text>
        <text fill="#000" fill-opacity=".87" font-family="Roboto-Regular, Roboto" font-size="13">
          <tspan x="77.007" y="164">41 / 59</tspan>
        </text>
        <text fill="#000" fill-opacity=".87" font-family="Roboto-Regular, Roboto" font-size="13">
          <tspan x="77.007" y="364">41 / 59</tspan>
        </text>
        <text fill="#4A4A4A" font-family="Roboto-Medium, Roboto" font-size="12" font-weight="400">
          <tspan x="-.787" y="11">Medical Reconcilation</tspan>
        </text>
        <text fill="#000" fill-opacity=".87" font-family="Roboto-Regular, Roboto" font-size="13">
          <tspan x="77.007" y="113">41 / 59</tspan>
        </text>
        <text fill="#000" fill-opacity=".87" font-family="Roboto-Regular, Roboto" font-size="13">
          <tspan x="77.007" y="314">41 / 59</tspan>
        </text>
        <text fill="#000" fill-opacity=".87" font-family="Roboto-Regular, Roboto" font-size="13">
          <tspan x="77.007" y="214">41 / 59</tspan>
        </text>
      </g>
    </g>
    <g transform="translate(0 150)">
      <use fill="#000" filter="url(#aci-view--f)" xlink:href="#aci-view--g"/>
      <text fill="#FFF" font-family="Roboto-Medium, Roboto" font-size="14" font-weight="400">
        <tspan x="85.318" y="27">ADVANCING CARE INFORMATION</tspan>
      </text>
      <g opacity=".6" transform="translate(385.668)">
        <rect width="412.664" height="48"/>
        <text fill="#FFF" font-family="Roboto-Medium, Roboto" font-size="14" font-weight="400">
          <tspan x="178.001" y="27">QUALITY</tspan>
        </text>
      </g>
      <g opacity=".6" transform="translate(742.41)">
        <rect width="441.59" height="48"/>
        <text fill="#FFF" font-family="Roboto-Medium, Roboto" font-size="14" font-weight="400">
          <tspan x="91.515" y="27">CLINICAL PRACTICE IMPORVEMENT ACTIVITIES</tspan>
        </text>
      </g>
    </g>
    <g transform="translate(26 294)">
      <use fill="#000" filter="url(#aci-view--h)" xlink:href="#aci-view--i"/>
      <use fill="#FFF" xlink:href="#aci-view--i"/>
      <g transform="translate(20 21)">
        <text fill="#000" font-family="Roboto-Regular, Roboto" font-size="16">
          <tspan x="31" y="17">Security risk analysis</tspan>
        </text>
        <rect width="24" height="24"/>
        <path fill="#000" d="M19,5 L19,19 L5,19 L5,5 L19,5 L19,5 Z M19,3 L5,3 C3.9,3 3,3.9 3,5 L3,19 C3,20.1 3.9,21 5,21 L19,21 C20.1,21 21,20.1 21,19 L21,5 C21,3.9 20.1,3 19,3 L19,3 L19,3 Z" opacity=".504"/>
      </g>
      <g transform="translate(243 21)">
        <text fill="#000" font-family="Roboto-Regular, Roboto" font-size="16">
          <tspan x="31" y="17">Immunization registry reporting</tspan>
        </text>
        <rect width="24" height="24"/>
        <path fill="#000" d="M19,5 L19,19 L5,19 L5,5 L19,5 L19,5 Z M19,3 L5,3 C3.9,3 3,3.9 3,5 L3,19 C3,20.1 3.9,21 5,21 L19,21 C20.1,21 21,20.1 21,19 L21,5 C21,3.9 20.1,3 19,3 L19,3 L19,3 Z" opacity=".504"/>
      </g>
      <g transform="translate(535 21)">
        <text fill="#000" font-family="Roboto-Regular, Roboto" font-size="16">
          <tspan x="31" y="17">Syndromic surveillance reporting</tspan>
        </text>
        <rect width="24" height="24"/>
        <path fill="#000" d="M19,5 L19,19 L5,19 L5,5 L19,5 L19,5 Z M19,3 L5,3 C3.9,3 3,3.9 3,5 L3,19 C3,20.1 3.9,21 5,21 L19,21 C20.1,21 21,20.1 21,19 L21,5 C21,3.9 20.1,3 19,3 L19,3 L19,3 Z" opacity=".504"/>
      </g>
      <g transform="translate(836 21)">
        <text fill="#000" font-family="Roboto-Regular, Roboto" font-size="16">
          <tspan x="31" y="17">Specialized registry reporting</tspan>
        </text>
        <rect width="24" height="24"/>
        <path fill="#000" d="M19,5 L19,19 L5,19 L5,5 L19,5 L19,5 Z M19,3 L5,3 C3.9,3 3,3.9 3,5 L3,19 C3,20.1 3.9,21 5,21 L19,21 C20.1,21 21,20.1 21,19 L21,5 C21,3.9 20.1,3 19,3 L19,3 L19,3 Z" opacity=".504"/>
      </g>
    </g>
    <g transform="translate(26 229)">
      <use fill="#000" filter="url(#aci-view--j)" xlink:href="#aci-view--k"/>
      <use fill="#FFF" xlink:href="#aci-view--k"/>
      <text fill="#1B1B1B" font-family="Roboto-Medium, Roboto" font-size="16" font-weight="400">
        <tspan x="54.609" y="26">Add Data</tspan>
      </text>
    </g>
    <g transform="translate(239 229)">
      <use fill="#000" filter="url(#aci-view--l)" xlink:href="#aci-view--m"/>
      <use fill="#FFF" xlink:href="#aci-view--m"/>
      <text fill="#1B1B1B" font-family="Roboto-Medium, Roboto" font-size="16" font-weight="400">
        <tspan x="50.715" y="26">Import Data</tspan>
      </text>
    </g>
    <g transform="translate(463 229)">
      <use fill="#000" filter="url(#aci-view--n)" xlink:href="#aci-view--o"/>
      <use fill="#FFF" xlink:href="#aci-view--o"/>
      <text fill="#1B1B1B" font-family="Roboto-Medium, Roboto" font-size="16" font-weight="400">
        <tspan x="43.195" y="26">What-if Analysis</tspan>
      </text>
    </g>
    <g transform="translate(703 229)">
      <use fill="#000" filter="url(#aci-view--p)" xlink:href="#aci-view--q"/>
      <use fill="#FFF" xlink:href="#aci-view--q"/>
      <text fill="#1B1B1B" font-family="Roboto-Medium, Roboto" font-size="16" font-weight="400">
        <tspan x="45.316" y="26">VIew Scorecard</tspan>
      </text>
    </g>
    <g transform="translate(54 393)">
      <path stroke="#6A6A6A" stroke-linecap="square" stroke-opacity=".361" stroke-width="1.5" d="M0.5,28.75 L320.501556,28.75"/>
      <text fill="#585858" font-family="Roboto-Medium, Roboto" font-size="16" font-weight="400" letter-spacing="0">
        <tspan x="0" y="15">Search</tspan>
      </text>
    </g>
    <g transform="translate(0 2)">
      <path fill="#E8E8E8" d="M10.2555408,-4.14336123e-16 L1172.74446,4.14336123e-16 C1176.31053,-2.4074122e-16 1177.60368,0.371302445 1178.90738,1.06853082 C1180.21109,1.76575919 1181.23424,2.78891348 1181.93147,4.09261719 C1182.6287,5.39632089 1183,6.68946584 1183,10.2555408 L1183,56 L0,56 L-1.50013276e-15,10.2555408 C-1.93685099e-15,6.68946584 0.371302445,5.39632089 1.06853082,4.09261719 C1.76575919,2.78891348 2.78891348,1.76575919 4.09261719,1.06853082 C5.39632089,0.371302445 6.68946584,2.4074122e-16 10.2555408,-4.14336123e-16 Z"/>
      <rect width="12" height="12" x="60" y="22" fill="#28CA42" rx="6"/>
      <rect width="12" height="12" x="42" y="22" fill="#FFBE2F" rx="6"/>
      <rect width="12" height="12" x="24" y="22" fill="#FF5F57" rx="6"/>
      <path fill="#B3B3B3" d="M1135,34 L1159,34 L1159,38 L1135,38 L1135,34 Z M1135,26 L1159,26 L1159,30 L1135,30 L1135,26 Z M1135,18 L1159,18 L1159,22 L1135,22 L1135,18 Z"/>
      <g transform="translate(120 14)">
        <use fill="#FFF" xlink:href="#aci-view--r"/>
        <use fill="#000" filter="url(#aci-view--s)" xlink:href="#aci-view--r"/>
        <text fill="#000" font-family="ArialMT, Arial" font-size="16">
          <tspan x="75" y="20">mipsight.com</tspan>
        </text>
        <text fill="gray" font-family="ArialMT, Arial" font-size="16">
          <tspan x="61" y="20">://</tspan>
        </text>
        <text fill="#088043" font-family="ArialMT, Arial" font-size="16">
          <tspan x="26" y="20">https</tspan>
        </text>
        <path fill="#088043" d="M14.9298246,12.0178571 L14.9298246,10.8660714 C14.9298246,10.3839262 14.739768,9.96875174 14.3596491,9.62053571 C13.9795303,9.27231969 13.5263184,9.09821429 13,9.09821429 C12.4736816,9.09821429 12.0204697,9.27231969 11.6403509,9.62053571 C11.260232,9.96875174 11.0701754,10.3839262 11.0701754,10.8660714 L11.0701754,12.0178571 L14.9298246,12.0178571 Z M16.7426901,12.0178571 C17.0740757,12.0178571 17.3664705,12.1294632 17.619883,12.3526786 C17.8732956,12.575894 18,12.8392842 18,13.1428571 L18,18.875 C18,19.1785729 17.8732956,19.4419632 17.619883,19.6651786 C17.3664705,19.888394 17.0740757,20 16.7426901,20 L9.25730994,20 C8.92592427,20 8.63352953,19.888394 8.38011696,19.6651786 C8.12670439,19.4419632 8,19.1785729 8,18.875 L8,13.1428571 C8,12.8392842 8.12670439,12.575894 8.38011696,12.3526786 C8.63352953,12.1294632 8.92592427,12.0178571 9.25730994,12.0178571 L9.87134503,12.0178571 L9.87134503,10.8660714 C9.87134503,10.0803532 10.1783595,9.40625281 10.7923977,8.84375 C11.4064358,8.28124719 12.1422959,8 13,8 C13.8577041,8 14.5935642,8.28124719 15.2076023,8.84375 C15.8216405,9.40625281 16.128655,10.0803532 16.128655,10.8660714 L16.128655,12.0178571 L16.7426901,12.0178571 Z"/>
      </g>
    </g>
  </g>
</svg>
