<svg xmlns="http://www.w3.org/2000/svg" width="435" height="509" viewBox="0 0 435 509">
  <g fill="none">
    <circle cx="217.248" cy="254.192" r="217.007" fill="#84DBFF"/>
    <g fill="#FFD05B" transform="translate(198 63)">
      <path d="M32.472,1.65 L19.248,0.972 L19.248,0.972 L19.248,0.972 L19.248,0.972 L19.248,0.972 L6.024,1.65 C6.024,1.65 7.041,13.518 1.277,24.029 L1.277,38.948 L19.248,44.712 L19.248,44.712 L19.248,44.712 L36.541,39.287 L36.541,22.673 C31.794,12.501 32.472,1.65 32.472,1.65 Z"/>
      <path d="M33.829,39.966 L36.542,22.673 C35.525,20.639 34.847,18.265 34.168,16.231 C33.829,14.536 33.49,12.84 33.151,11.484 L5.347,11.484 C5.008,13.179 4.669,14.875 3.991,16.909 C3.313,19.283 2.296,21.995 0.939,24.369 L4.669,40.305 L33.829,40.305 L33.829,39.966 Z"/>
    </g>
    <rect width="36.959" height="85.107" x="198.599" y="102.287" fill="#E6E9EE"/>
    <polygon fill="#FF7058" points="228.438 160.608 217.248 190.785 206.059 160.608 213.519 109.408 220.639 109.408"/>
    <polygon fill="#F1543F" points="220.639 109.408 213.519 109.408 211.823 102.287 222.674 102.287"/>
    <g fill="#D9DBE0" transform="translate(197 83)">
      <path d="M36.863,0.638 C36.863,0.638 44.323,8.098 34.829,29.459 C34.829,29.459 24.657,17.591 17.875,19.965 C18.214,19.966 33.472,15.558 36.863,0.638 Z"/>
      <path d="M3.295,0.638 C3.295,0.638 -4.165,8.098 5.329,29.459 C5.329,29.459 15.501,17.591 22.283,19.965 C21.944,19.966 7.025,15.558 3.295,0.638 Z"/>
    </g>
    <polygon fill="#2B3B4E" points="265.397 492.899 270.483 304.036 267.092 253.853 216.57 253.853 216.57 333.196 236.576 492.899"/>
    <polygon fill="#324A5E" points="197.921 492.899 217.927 333.196 217.927 253.853 167.405 253.853 164.014 304.036 169.1 492.899"/>
    <path fill="#2B3B4E" d="M300.66,212.147 C301.338,219.946 298.286,227.744 292.861,233.17 C287.775,238.595 279.976,245.377 269.804,251.819 C265.057,254.871 259.632,257.922 253.528,260.974 L243.695,233.848 L266.752,218.251 L277.263,211.13 L268.786,184.004 C272.516,147.723 280.654,113.477 280.654,113.477 C280.654,113.477 296.252,149.08 300.66,212.147 Z"/>
    <path fill="#324A5E" d="M236.576,89.064 C236.576,89.064 243.697,106.696 280.655,113.477 C280.655,113.477 257.259,212.825 270.822,256.227 C270.822,256.227 277.943,301.663 275.569,313.53 C275.569,313.53 240.984,330.145 223.352,310.139 C223.352,310.139 207.755,224.354 216.231,188.412 C216.57,188.073 227.421,172.815 236.576,89.064 Z"/>
    <path fill="#2B3B4E" d="M197.921,89.064 C197.921,89.064 190.8,106.696 153.842,113.477 C153.842,113.477 177.238,212.825 163.675,256.227 C163.675,256.227 156.554,301.663 158.928,313.53 C158.928,313.53 193.513,330.145 211.145,310.139 C211.145,310.139 226.742,224.354 218.266,188.412 C217.927,188.073 207.076,172.815 197.921,89.064 Z"/>
    <path fill="#324A5E" d="M275.908,313.53 C275.908,313.53 241.323,330.145 223.691,310.139 C223.691,310.139 208.433,226.049 216.57,189.429 C216.57,189.09 216.57,188.751 216.909,188.412 C216.909,188.412 227.42,173.154 236.575,89.403 C236.575,89.403 239.627,96.524 251.494,103.644 C258.275,107.713 267.43,111.443 280.993,113.816 C280.993,113.816 272.855,147.723 269.125,184.682 C267.769,196.21 267.091,207.739 267.091,218.928 L244.034,234.525 L253.867,261.651 C259.97,258.938 265.395,255.887 270.143,252.496 C270.144,253.514 278.281,301.323 275.908,313.53 Z"/>
    <path fill="#2B3B4E" d="M255.564,114.494 C255.564,114.494 241.323,168.746 216.232,189.09 C216.232,188.751 216.232,188.412 216.571,188.073 C216.571,188.073 227.082,172.815 236.237,89.064 C236.237,89.064 239.289,96.185 251.156,103.305 L243.357,112.121 L255.564,114.494 Z"/>
    <path fill="#324A5E" d="M178.933,114.494 C178.933,114.494 193.174,168.746 218.265,189.09 C218.265,188.751 218.265,188.412 217.926,188.073 C217.926,188.073 207.415,172.815 198.26,89.064 C198.26,89.064 195.208,96.185 183.341,103.305 L191.14,112.121 L178.933,114.494 Z"/>
    <g fill="#2B3B4E" transform="translate(218 197)">
      <path d="M8.742,4.975 C8.742,7.349 7.047,9.383 4.673,9.383 C2.639,9.383 0.604,7.349 0.604,4.975 C0.604,2.601 2.299,0.567 4.673,0.567 C7.047,0.567 9.082,2.601 8.742,4.975 Z"/>
      <circle cx="5.352" cy="52.784" r="4.408"/>
      <circle cx="5.352" cy="22.268" r="4.408"/>
    </g>
    <path fill="#324A5E" d="M265.397,492.899 L236.576,492.899 L236.576,504.767 C236.576,506.801 238.271,508.497 240.306,508.497 L278.96,508.497 L278.96,506.802 C278.96,499.003 272.856,492.899 265.397,492.899 Z"/>
    <path fill="#2B3B4E" d="M169.1,492.899 L197.921,492.899 L197.921,504.767 C197.921,506.801 196.226,508.497 194.191,508.497 L155.537,508.497 L155.537,506.802 C155.537,499.003 161.64,492.899 169.1,492.899 Z"/>
    <path fill="#F9B54C" d="M203.346,74.484 C203.007,75.84 202.668,77.536 202.329,79.231 C205.042,82.283 210.467,84.317 216.909,84.317 C223.69,84.317 229.455,81.943 232.167,78.553 C231.828,77.197 231.489,75.84 231.489,74.484 C231.489,74.484 203.346,74.484 203.346,74.484 Z"/>
    <g fill="#FFD05B" transform="translate(188 21)">
      <path d="M28.909,0.927 L3.818,0.927 L7.887,42.972 C8.226,46.024 9.243,48.736 11.278,51.11 L14.669,55.179 C17.042,58.231 20.433,59.926 24.163,60.604 L26.536,60.943 C27.892,61.282 29.249,61.282 30.605,60.943 L32.979,60.604 C36.709,59.926 40.1,58.23 42.473,55.179 L45.864,51.11 C47.898,48.736 48.916,46.024 49.255,42.972 L54.002,0.927 L28.909,0.927 Z"/>
      <path d="M56.713 25.68C55.357 28.732 52.644 30.766 50.61 30.088 48.576 29.41 47.558 26.019 48.915 22.628 50.271 19.576 52.984 17.542 55.018 18.22 57.391 19.237 58.07 22.628 56.713 25.68zM1.105 25.68C2.461 28.732 5.174 30.766 7.208 30.088 9.242 29.41 10.26 26.019 8.903 22.628 7.547 19.576 4.834 17.542 2.8 18.22.427 19.237-.251 22.628 1.105 25.68z"/>
    </g>
    <path fill="#324A5E" d="M11.226,12.433 C11.226,12.433 31.57,-18.084 60.052,16.502 L57,15.485 C57,15.485 62.425,21.249 57.678,40.576 C57.678,40.576 54.626,40.915 53.609,47.697 C53.609,47.697 52.931,31.761 48.862,28.709 C48.862,28.709 22.075,30.404 15.294,24.301 C15.294,24.301 8.513,35.49 11.225,51.088 C11.225,51.088 6.139,41.255 3.426,35.83 C1.392,32.1 0.374,28.031 0.374,23.623 C1.054,18.536 3.088,12.433 11.226,12.433 Z" transform="translate(185)"/>
    <g transform="translate(172 202)">
      <polygon fill="#ACB3BA" points="65.556 9.793 35.04 9.793 35.04 .638 65.556 .638"/>
      <path fill="#F0F1F4" d="M72.677,71.843 L27.58,71.843 C25.885,71.843 24.528,70.487 24.528,69.13 L21.815,7.419 C21.815,5.724 23.171,4.028 24.867,4.028 L75.389,4.028 C77.084,4.028 78.441,5.384 78.441,7.419 L75.728,69.13 C75.728,70.826 74.372,71.843 72.677,71.843 Z"/>
      <g fill="#ACB3BA" transform="translate(37 5)">
        <path d="M26.522 2.081C26.522 2.759 25.844 3.437 25.166 3.437 24.488 3.437 23.81 2.759 23.81 2.081 23.81 1.403 24.488.725 25.166.725 25.844.724 26.522 1.063 26.522 2.081zM2.787 2.081C2.787 2.759 2.109 3.437 1.431 3.437.753 3.437.075 2.759.075 2.081.075 1.403.753.725 1.431.725 2.108.724 2.787 1.063 2.787 2.081z"/>
      </g>
      <path fill="#FFD05B" d="M37.413,38.614 L25.206,34.884 C24.189,34.545 23.172,34.545 22.493,34.884 C19.102,35.901 15.372,36.918 11.982,36.579 L3.844,35.901 L0.114,48.786 L7.235,52.516 C10.287,54.211 12.999,56.924 15.373,59.637 C16.051,60.315 16.729,60.993 17.746,60.993 L29.953,64.723 C32.666,65.401 35.717,64.045 36.395,61.332 L41.142,45.057 C41.821,42.344 40.126,39.292 37.413,38.614 Z"/>
    </g>
    <path fill="#324A5E" d="M133.836,212.147 C133.158,219.946 136.21,227.744 141.635,233.17 C146.721,238.595 170.456,257.583 180.967,260.974 L190.8,233.848 L157.571,211.13 L166.048,184.004 C161.979,147.723 153.841,113.477 153.841,113.477 C153.841,113.477 138.244,149.08 133.836,212.147 Z"/>
  </g>
</svg>
