<?xml version="1.0" encoding="iso-8859-1"?>
<!-- Generator: Adobe Illustrator 19.0.0, SVG Export Plug-In . SVG Version: 6.00 Build 0)  -->
<svg version="1.1" id="Layer_1" xmlns="http://www.w3.org/2000/svg" xmlns:xlink="http://www.w3.org/1999/xlink" x="0px" y="0px"
	 viewBox="0 0 321.387 321.387" style="enable-background:new 0 0 321.387 321.387;" xml:space="preserve">
<g>
	<g>
		<path d="M254.4,174.24c-18.56,0-33.707,15.147-33.707,33.707s15.147,33.707,33.707,33.707c18.56,0,33.707-15.147,33.707-33.707
			C288.107,189.387,272.96,174.24,254.4,174.24z M254.4,227.787c-10.987,0-19.84-8.853-19.84-19.84
			c0-10.987,8.853-19.84,19.84-19.84c10.987,0,19.84,8.853,19.84,19.84C274.24,218.933,265.387,227.787,254.4,227.787z"/>
	</g>
</g>
<g>
	<g>
		<path d="M260.907,253.6h-13.333c-33.28,0-60.373,27.093-60.373,60.48v6.933h134.187v-6.933
			C321.387,280.693,294.293,253.6,260.907,253.6z M201.6,307.147c3.307-22.4,22.72-39.68,45.973-39.68h13.333
			c23.36,0,42.773,17.28,46.08,39.68H201.6z"/>
	</g>
</g>
<g>
	<g>
		<path d="M67.093,0.373c-18.56,0-33.707,15.147-33.707,33.707s15.147,33.707,33.707,33.707S100.8,52.64,100.8,34.08
			S85.653,0.373,67.093,0.373z M67.093,53.92c-10.987,0-19.84-8.853-19.84-19.84c0-10.987,8.853-19.84,19.84-19.84
			c10.987,0,19.84,8.853,19.84,19.84C86.933,45.067,78.08,53.92,67.093,53.92z"/>
	</g>
</g>
<g>
	<g>
		<path d="M73.707,79.733H60.48C27.093,79.733,0,106.827,0,140.213v6.933h134.187v-6.933
			C134.187,106.827,107.093,79.733,73.707,79.733z M14.4,133.28c3.307-22.4,22.72-39.68,46.08-39.68h13.227
			c23.36,0,42.773,17.28,46.08,39.68H14.4z"/>
	</g>
</g>
<g>
	<g>
		<path d="M153.813,11.36v103.253h18.88v23.893l43.2-23.893h92.267V11.36H153.813z M294.293,100.747h-82.027L186.56,115.04v-14.293
			h-18.88v-75.52h126.613V100.747z"/>
	</g>
</g>
<g>
	<g>
		<rect x="179.947" y="43.253" width="102.08" height="13.867"/>
	</g>
</g>
<g>
	<g>
		<rect x="199.04" y="68.853" width="63.893" height="13.867"/>
	</g>
</g>
<g>
</g>
<g>
</g>
<g>
</g>
<g>
</g>
<g>
</g>
<g>
</g>
<g>
</g>
<g>
</g>
<g>
</g>
<g>
</g>
<g>
</g>
<g>
</g>
<g>
</g>
<g>
</g>
<g>
</g>
</svg>
