<?xml version="1.0" encoding="iso-8859-1"?>
<!-- Generator: Adobe Illustrator 19.0.0, SVG Export Plug-In . SVG Version: 6.00 Build 0)  -->
<svg version="1.1" id="Layer_1" xmlns="http://www.w3.org/2000/svg" xmlns:xlink="http://www.w3.org/1999/xlink" x="0px" y="0px"
	 viewBox="0 0 491.52 491.52" style="enable-background:new 0 0 491.52 491.52;" xml:space="preserve">
<g>
	<g>
		<path d="M348.655,228.975c1.6-6.6,2.2-13.385,1.78-20.295c-2.165-35.73-33.43-65.035-69.69-65.32c-0.185,0-0.37,0-0.56,0
			c-27.255,0-51.77,15.755-63.34,39.245c-10.14-6.47-22.31-9.48-34.725-8.31c-20.515,1.96-38.41,15.885-45.585,35.48
			c-2.795,7.64-3.765,15.46-2.9,23.34c-17.125,9.515-28.14,27.625-28.14,47.415c0,28.48,20.575,49.63,50.465,52.1
			c8.405,11.28,23.3,15.53,32.43,15.53c14.165,0,23.245-2.81,33.97-11.36c6.585,5.405,17.37,11.305,33.09,11.305
			c18.045,0,30.105-7.39,36.71-13.07c29.685,11.62,51.04,4.725,64.015-3.53c20.51-13.05,29.85-35.57,29.85-50.975
			C386.025,256.625,370.64,236.25,348.655,228.975z M345.18,314.225c-13.775,8.76-31.435,8.545-51.06-0.63l-7.42-3.47l-5.015,6.47
			c-0.875,1.13-9.045,11.03-26.235,11.03c-16.655,0-23.615-10.11-23.815-10.405l-6.67-10.71l-9.105,8.725
			c-11.935,11.425-16.75,12.445-27.47,12.445c-4.395,0-14.26-2.79-17.16-9.245l-3.645-6.045h-6.625
			c-20.925,0-34.985-12.805-34.985-31.86c0-14.145,9.12-26.935,22.695-31.82l8.96-3.225l-2.57-9.175
			c-1.875-6.695-1.645-13.07,0.705-19.495c4.48-12.23,15.59-20.92,28.305-22.13c1.11-0.11,2.22-0.16,3.325-0.16
			c10.125,0,19.73,4.415,26.18,12.17l13.345,16.05l4.525-20.375c4.975-22.385,25.43-38.53,48.74-38.53c0.13,0,0.265,0,0.4,0
			c25.715,0.2,47.88,20.875,49.41,46.08c0.47,7.785-0.9,15.355-4.065,22.505l-5.765,13.005l14.165,1.34
			c17.795,1.68,31.215,16.195,31.215,33.76C365.545,290.585,358.41,305.81,345.18,314.225z"/>
	</g>
</g>
<g>
	<g>
		<path d="M253,3c-4-4-10.48-4-14.48,0l-40.96,40.96l14.48,14.48l23.48-23.48v87.92H256V34.96l23.48,23.48l14.48-14.48L253,3z"/>
	</g>
</g>
<g>
	<g>
		<path d="M103.94,89.46h33.21V68.98H79.22c-5.655,0-10.24,4.585-10.24,10.24v57.925h20.48V103.94l56.9,56.9l14.48-14.48
			L103.94,89.46z"/>
	</g>
</g>
<g>
	<g>
		<path d="M92.16,235.52h-57.2l23.48-23.48l-14.48-14.48L3,238.52c-4,4-4,10.48,0,14.48l40.96,40.96l14.48-14.48L34.96,256h57.2
			V235.52z"/>
	</g>
</g>
<g>
	<g>
		<path d="M151.63,354.37l-14.48-14.48l-47.69,47.686V354.37H68.98v57.925c0,5.655,4.585,10.24,10.24,10.24h57.93v-20.48h-33.209
			L151.63,354.37z"/>
	</g>
</g>
<g>
	<g>
		<path d="M279.48,433.08L256,456.56v-87.92h-20.48v87.92l-23.48-23.48l-14.48,14.48l40.96,40.96c2,2,4.62,3,7.24,3
			c2.62,0,5.24-1,7.24-3l40.96-40.96L279.48,433.08z"/>
	</g>
</g>
<g>
	<g>
		<path d="M402.06,354.37v33.206l-47.69-47.686l-14.48,14.48l47.689,47.685H354.37v20.48h57.93c5.655,0,10.24-4.585,10.24-10.24
			V354.37H402.06z"/>
	</g>
</g>
<g>
	<g>
		<path d="M488.52,238.52l-40.96-40.96l-14.48,14.48l23.48,23.48h-57.2V256h57.2l-23.48,23.48l14.48,14.48L488.52,253
			C492.52,249,492.52,242.52,488.52,238.52z"/>
	</g>
</g>
<g>
	<g>
		<path d="M412.3,68.98h-57.93v20.48h33.21l-56.9,56.9l14.48,14.48l56.9-56.9v33.205h20.48V79.22
			C422.54,73.565,417.955,68.98,412.3,68.98z"/>
	</g>
</g>
<g>
</g>
<g>
</g>
<g>
</g>
<g>
</g>
<g>
</g>
<g>
</g>
<g>
</g>
<g>
</g>
<g>
</g>
<g>
</g>
<g>
</g>
<g>
</g>
<g>
</g>
<g>
</g>
<g>
</g>
</svg>
