<svg xmlns="http://www.w3.org/2000/svg" xmlns:xlink="http://www.w3.org/1999/xlink" width="1183" height="958" style="background:#fff" viewBox="0 0 1183 958">
  <defs>
    <rect id="create-report-b" width="640" height="780" x="260" y="152" rx="2"/>
    <filter id="create-report-a" width="104.1%" height="103.3%" x="-2%" y="-1.4%" filterUnits="objectBoundingBox">
      <feOffset dy="2" in="SourceAlpha" result="shadowOffsetOuter1"/>
      <feGaussianBlur in="shadowOffsetOuter1" result="shadowBlurOuter1" stdDeviation="4"/>
      <feColorMatrix in="shadowBlurOuter1" values="0 0 0 0 0   0 0 0 0 0   0 0 0 0 0  0 0 0 0.0579710145 0"/>
    </filter>
    <rect id="create-report-d" width="160" height="43" rx="3"/>
    <filter id="create-report-c" height="174.4%" y="-32.6%" filterUnits="objectBoundingBox">
      <feOffset dy="2" in="SourceAlpha" result="shadowOffsetOuter1"/>
      <feGaussianBlur in="shadowOffsetOuter1" result="shadowBlurOuter1" stdDeviation="5"/>
      <feColorMatrix in="shadowBlurOuter1" values="0 0 0 0 0   0 0 0 0 0   0 0 0 0 0  0 0 0 0.06 0"/>
    </filter>
    <circle id="create-report-e" cx="13" cy="13" r="13"/>
    <rect id="create-report-f" width="943" height="28" rx="4"/>
    <filter id="create-report-g" width="100.1%" height="103.6%" x="-.1%" y="-1.8%" filterUnits="objectBoundingBox">
      <feOffset dy="1" in="SourceAlpha" result="shadowOffsetInner1"/>
      <feComposite in="shadowOffsetInner1" in2="SourceAlpha" k2="-1" k3="1" operator="arithmetic" result="shadowInnerInner1"/>
      <feColorMatrix in="shadowInnerInner1" values="0 0 0 0 0   0 0 0 0 0   0 0 0 0 0  0 0 0 0.24 0"/>
    </filter>
  </defs>
  <g fill="none" fill-rule="evenodd">
    <rect width="1183" height="836" y="122" fill="#F5F5F5"/>
    <use fill="#000" filter="url(#create-report-a)" xlink:href="#create-report-b"/>
    <use fill="#FFF" xlink:href="#create-report-b"/>
    <g transform="translate(432 681)">
      <path stroke="#E0E0E0" stroke-linecap="square" d="M0.5,31.5 L320.501556,31.5"/>
      <text fill="#1B1B1B" font-family="Roboto-Regular, Roboto" font-size="16" letter-spacing="0">
        <tspan x="0" y="15">Group NPI</tspan>
      </text>
    </g>
    <g transform="translate(432 533)">
      <path stroke="#E0E0E0" stroke-linecap="square" d="M0.5,31.5 L320.501556,31.5"/>
      <polygon fill="#1B1B1B" points="300 7 305 12 310 7"/>
      <text fill="#1B1B1B" font-family="Roboto-Regular, Roboto" font-size="16" letter-spacing="0">
        <tspan x="0" y="15">Business type</tspan>
      </text>
    </g>
    <g transform="translate(432 459)">
      <path stroke="#E0E0E0" stroke-linecap="square" d="M0.5,31.5 L320.501556,31.5"/>
      <polygon fill="#1B1B1B" points="300 7 305 12 310 7"/>
      <text fill="#1B1B1B" font-family="Roboto-Regular, Roboto" font-size="16" letter-spacing="0">
        <tspan x="0" y="15">Practice Type</tspan>
      </text>
    </g>
    <g transform="translate(432 386)">
      <path stroke="#E0E0E0" stroke-linecap="square" d="M0.5,31.5 L320.501556,31.5"/>
      <polygon fill="#1B1B1B" points="300 7 305 12 310 7"/>
      <text fill="#1B1B1B" font-family="Roboto-Regular, Roboto" font-size="16" letter-spacing="0">
        <tspan x="0" y="15">Number of Providers</tspan>
      </text>
    </g>
    <g transform="translate(432 607)">
      <path stroke="#E0E0E0" stroke-linecap="square" d="M0.5,31.5 L320.501556,31.5"/>
      <polygon fill="#1B1B1B" points="300 7 305 12 310 7"/>
      <text fill="#1B1B1B" font-family="Roboto-Regular, Roboto" font-size="16" letter-spacing="0">
        <tspan x="0" y="15">Reporting Type</tspan>
      </text>
    </g>
    <g transform="translate(431 211)">
      <path stroke="#E0E0E0" stroke-linecap="square" d="M0.5,30.5 L320.501556,30.5"/>
      <text fill="#1B1B1B" font-family="Roboto-Regular, Roboto" font-size="16" letter-spacing="0">
        <tspan x="0" y="15">Organization Name</tspan>
      </text>
    </g>
    <g transform="translate(432 755)">
      <path stroke="#E0E0E0" stroke-linecap="square" d="M0.5,31.5 L320.501556,31.5"/>
      <text fill="#1B1B1B" font-family="Roboto-Regular, Roboto" font-size="16" letter-spacing="0">
        <tspan x="0" y="15">TIN Number (optional)</tspan>
      </text>
    </g>
    <g transform="translate(431 280)">
      <g transform="translate(184)">
        <text fill="#000" fill-opacity=".87" font-family="Roboto-Regular, Roboto" font-size="16" letter-spacing="0">
          <tspan x="0" y="15">End Date</tspan>
        </text>
        <text fill="#000" fill-opacity=".87" font-family="Roboto-Regular, Roboto" font-size="14" letter-spacing="0">
          <tspan x="36" y="55">20/12/2018</tspan>
        </text>
        <path stroke="#E0E0E0" stroke-linecap="square" d="M3,65.5 L133,65.5"/>
        <g fill="#1575C1" transform="translate(7 43)">
          <path d="M12.4444444,1.55555556 L11.6666667,1.55555556 L11.6666667,0 L10.1111111,0 L10.1111111,1.55555556 L3.88888889,1.55555556 L3.88888889,0 L2.33333333,0 L2.33333333,1.55555556 L1.55555556,1.55555556 C0.7,1.55555556 0,2.25555556 0,3.11111111 L0,14 C0,14.8555556 0.7,15.5555556 1.55555556,15.5555556 L12.4444444,15.5555556 C13.3,15.5555556 14,14.8555556 14,14 L14,3.11111111 C14,2.25555556 13.3,1.55555556 12.4444444,1.55555556 L12.4444444,1.55555556 Z M12.4444444,14 L1.55555556,14 L1.55555556,5.44444444 L12.4444444,5.44444444 L12.4444444,14 L12.4444444,14 Z"/>
          <rect width="3.889" height="3.889" x="3.111" y="7"/>
        </g>
      </g>
      <text fill="#000" fill-opacity=".87" font-family="Roboto-Regular, Roboto" font-size="16" letter-spacing="0">
        <tspan x="0" y="15">Start Date</tspan>
      </text>
      <text fill="#000" fill-opacity=".87" font-family="Roboto-Regular, Roboto" font-size="14" letter-spacing="0">
        <tspan x="36" y="55">20/12/2018</tspan>
      </text>
      <path stroke="#E0E0E0" stroke-linecap="square" d="M3,65.5 L133,65.5"/>
      <g fill="#1575C1" transform="translate(7 43)">
        <path d="M12.4444444,1.55555556 L11.6666667,1.55555556 L11.6666667,0 L10.1111111,0 L10.1111111,1.55555556 L3.88888889,1.55555556 L3.88888889,0 L2.33333333,0 L2.33333333,1.55555556 L1.55555556,1.55555556 C0.7,1.55555556 0,2.25555556 0,3.11111111 L0,14 C0,14.8555556 0.7,15.5555556 1.55555556,15.5555556 L12.4444444,15.5555556 C13.3,15.5555556 14,14.8555556 14,14 L14,3.11111111 C14,2.25555556 13.3,1.55555556 12.4444444,1.55555556 L12.4444444,1.55555556 Z M12.4444444,14 L1.55555556,14 L1.55555556,5.44444444 L12.4444444,5.44444444 L12.4444444,14 L12.4444444,14 Z"/>
        <rect width="3.889" height="3.889" x="3.111" y="7"/>
      </g>
    </g>
    <text fill="#1B1B1B" font-family="Roboto-Medium, Roboto" font-size="16" font-weight="400" transform="translate(477 850)">
      <tspan x=".199" y="15">CANCEL</tspan>
    </text>
    <g transform="translate(578 838)">
      <use fill="#000" filter="url(#create-report-c)" xlink:href="#create-report-d"/>
      <use fill="#1E88E5" xlink:href="#create-report-d"/>
      <text fill="#FFF" font-family="Roboto-Medium, Roboto" font-size="16" font-weight="400">
        <tspan x="50.559" y="27">CREATE</tspan>
      </text>
    </g>
    <g transform="translate(0 58)">
      <g>
        <rect width="1184" height="64" fill="#1E88E5"/>
        <g fill="#FFF" font-size="16" transform="translate(60 24)">
          <text font-family="Roboto-Regular, Roboto">
            <tspan x="154" y="15">Dashboard</tspan>
          </text>
          <text font-family="Roboto-Medium, Roboto" font-weight="400">
            <tspan x="0" y="15">MIPSight</tspan>
          </text>
          <text font-family="Roboto-Regular, Roboto">
            <tspan x="281" y="15">All Reports</tspan>
          </text>
          <text font-family="Roboto-Regular, Roboto">
            <tspan x="408" y="15">Create Report</tspan>
          </text>
          <text font-family="Roboto-Regular, Roboto">
            <tspan x="556" y="15">Scorecard</tspan>
          </text>
          <text font-family="Roboto-Regular, Roboto">
            <tspan x="678" y="15">Providers</tspan>
          </text>
          <text font-family="Roboto-Regular, Roboto">
            <tspan x="795" y="15">Contact</tspan>
          </text>
        </g>
      </g>
      <text fill="#FFF" font-family="Roboto-Regular, Roboto" font-size="16">
        <tspan x="1020" y="39">Harriet Becker</tspan>
      </text>
      <g transform="translate(980 19)">
        <use fill="#FFF" opacity=".898" xlink:href="#create-report-e"/>
        <path fill="#085083" fill-rule="nonzero" d="M13,0 C5.82081633,0 0,5.82081633 0,13 C0,20.1818367 5.82081633,26 13,26 C20.1818367,26 26,20.1791837 26,13 C26,5.82081633 20.1818367,0 13,0 Z M9.84816327,5.58734694 C10.6891837,4.74632653 11.8061224,4.28469388 13.0026531,4.28469388 C14.1938776,4.28469388 15.3187755,4.74632653 16.1518367,5.58734694 C17.0008163,6.43102041 17.465102,7.54795918 17.465102,8.74183673 C17.465102,9.93306122 17.0008163,11.0473469 16.1518367,11.8910204 C15.3161224,12.7320408 14.1938776,13.1989796 13.0026531,13.1989796 C11.8087755,13.1989796 10.6918367,12.7346939 9.84816327,11.8910204 C9.00714286,11.05 8.54020408,9.93040816 8.54020408,8.74183673 C8.54020408,7.54795918 9.00714286,6.43102041 9.84816327,5.58734694 Z M13,23.4795918 C9.65979592,23.4795918 6.64061224,22.1 4.48897959,19.8767347 C5.46795918,17.0804082 8.08653061,14.9606122 11.0022449,14.9606122 L14.995102,14.9606122 C17.9055102,14.9606122 20.5293878,17.0804082 21.5110204,19.8740816 C19.3567347,22.1 16.3402041,23.4795918 13,23.4795918 Z"/>
      </g>
    </g>
    <g transform="translate(0 2)">
      <path fill="#E8E8E8" d="M10.2555408,-4.14336123e-16 L1172.74446,4.14336123e-16 C1176.31053,-2.4074122e-16 1177.60368,0.371302445 1178.90738,1.06853082 C1180.21109,1.76575919 1181.23424,2.78891348 1181.93147,4.09261719 C1182.6287,5.39632089 1183,6.68946584 1183,10.2555408 L1183,56 L0,56 L-1.50013276e-15,10.2555408 C-1.93685099e-15,6.68946584 0.371302445,5.39632089 1.06853082,4.09261719 C1.76575919,2.78891348 2.78891348,1.76575919 4.09261719,1.06853082 C5.39632089,0.371302445 6.68946584,2.4074122e-16 10.2555408,-4.14336123e-16 Z"/>
      <rect width="12" height="12" x="60" y="22" fill="#28CA42" rx="6"/>
      <rect width="12" height="12" x="42" y="22" fill="#FFBE2F" rx="6"/>
      <rect width="12" height="12" x="24" y="22" fill="#FF5F57" rx="6"/>
      <path fill="#B3B3B3" d="M1135,34 L1159,34 L1159,38 L1135,38 L1135,34 Z M1135,26 L1159,26 L1159,30 L1135,30 L1135,26 Z M1135,18 L1159,18 L1159,22 L1135,22 L1135,18 Z"/>
      <g transform="translate(120 14)">
        <use fill="#FFF" xlink:href="#create-report-f"/>
        <use fill="#000" filter="url(#create-report-g)" xlink:href="#create-report-f"/>
        <text fill="#000" font-family="ArialMT, Arial" font-size="16">
          <tspan x="75" y="20">mipsight.com</tspan>
        </text>
        <text fill="gray" font-family="ArialMT, Arial" font-size="16">
          <tspan x="61" y="20">://</tspan>
        </text>
        <text fill="#088043" font-family="ArialMT, Arial" font-size="16">
          <tspan x="26" y="20">https</tspan>
        </text>
        <path fill="#088043" d="M14.9298246,12.0178571 L14.9298246,10.8660714 C14.9298246,10.3839262 14.739768,9.96875174 14.3596491,9.62053571 C13.9795303,9.27231969 13.5263184,9.09821429 13,9.09821429 C12.4736816,9.09821429 12.0204697,9.27231969 11.6403509,9.62053571 C11.260232,9.96875174 11.0701754,10.3839262 11.0701754,10.8660714 L11.0701754,12.0178571 L14.9298246,12.0178571 Z M16.7426901,12.0178571 C17.0740757,12.0178571 17.3664705,12.1294632 17.619883,12.3526786 C17.8732956,12.575894 18,12.8392842 18,13.1428571 L18,18.875 C18,19.1785729 17.8732956,19.4419632 17.619883,19.6651786 C17.3664705,19.888394 17.0740757,20 16.7426901,20 L9.25730994,20 C8.92592427,20 8.63352953,19.888394 8.38011696,19.6651786 C8.12670439,19.4419632 8,19.1785729 8,18.875 L8,13.1428571 C8,12.8392842 8.12670439,12.575894 8.38011696,12.3526786 C8.63352953,12.1294632 8.92592427,12.0178571 9.25730994,12.0178571 L9.87134503,12.0178571 L9.87134503,10.8660714 C9.87134503,10.0803532 10.1783595,9.40625281 10.7923977,8.84375 C11.4064358,8.28124719 12.1422959,8 13,8 C13.8577041,8 14.5935642,8.28124719 15.2076023,8.84375 C15.8216405,9.40625281 16.128655,10.0803532 16.128655,10.8660714 L16.128655,12.0178571 L16.7426901,12.0178571 Z"/>
      </g>
    </g>
  </g>
</svg>
