<svg xmlns="http://www.w3.org/2000/svg" xmlns:xlink="http://www.w3.org/1999/xlink" width="1183" height="900" style="background:#fff" viewBox="0 0 1183 900">
  <defs>
    <rect id="create-report@2x-b" width="640" height="793" x="260" y="83" rx="2"/>
    <filter id="create-report@2x-a" width="104.1%" height="103.3%" x="-2%" y="-1.4%" filterUnits="objectBoundingBox">
      <feOffset dy="2" in="SourceAlpha" result="shadowOffsetOuter1"/>
      <feGaussianBlur in="shadowOffsetOuter1" result="shadowBlurOuter1" stdDeviation="4"/>
      <feColorMatrix in="shadowBlurOuter1" values="0 0 0 0 0   0 0 0 0 0   0 0 0 0 0  0 0 0 0.0579710145 0"/>
    </filter>
    <rect id="create-report@2x-d" width="160" height="43" rx="3"/>
    <filter id="create-report@2x-c" height="174.4%" y="-32.6%" filterUnits="objectBoundingBox">
      <feOffset dy="2" in="SourceAlpha" result="shadowOffsetOuter1"/>
      <feGaussianBlur in="shadowOffsetOuter1" result="shadowBlurOuter1" stdDeviation="5"/>
      <feColorMatrix in="shadowBlurOuter1" values="0 0 0 0 0   0 0 0 0 0   0 0 0 0 0  0 0 0 0.16 0"/>
    </filter>
    <rect id="create-report@2x-f" width="160" height="43" rx="3"/>
    <filter id="create-report@2x-e" height="174.4%" y="-32.6%" filterUnits="objectBoundingBox">
      <feOffset dy="2" in="SourceAlpha" result="shadowOffsetOuter1"/>
      <feGaussianBlur in="shadowOffsetOuter1" result="shadowBlurOuter1" stdDeviation="5"/>
      <feColorMatrix in="shadowBlurOuter1" values="0 0 0 0 0   0 0 0 0 0   0 0 0 0 0  0 0 0 0.16 0"/>
    </filter>
    <circle id="create-report@2x-g" cx="17" cy="17" r="17"/>
  </defs>
  <g fill="none" fill-rule="evenodd">
    <rect width="1183" height="836" y="64" fill="#ECF0F2" fill-opacity=".7"/>
    <use fill="#000" filter="url(#create-report@2x-a)" xlink:href="#create-report@2x-b"/>
    <use fill="#FFF" xlink:href="#create-report@2x-b"/>
    <g transform="translate(432 644.333)">
      <path stroke="#E0E0E0" stroke-linecap="square" d="M0.5,31.5 L320.501556,31.5"/>
      <text fill="#1B1B1B" font-family="Roboto-Regular, Roboto" font-size="16" letter-spacing="0">
        <tspan x="0" y="15">Group NPI</tspan>
      </text>
    </g>
    <g transform="translate(432 479)">
      <path stroke="#E0E0E0" stroke-linecap="square" d="M0.5,31.5 L320.501556,31.5"/>
      <polygon fill="#1B1B1B" points="300 7 305 12 310 7"/>
      <text fill="#1B1B1B" font-family="Roboto-Regular, Roboto" font-size="16" letter-spacing="0">
        <tspan x="0" y="15">Business type</tspan>
      </text>
    </g>
    <g transform="translate(432 396.333)">
      <path stroke="#E0E0E0" stroke-linecap="square" d="M0.5,31.5 L320.501556,31.5"/>
      <polygon fill="#1B1B1B" points="300 7 305 12 310 7"/>
      <text fill="#1B1B1B" font-family="Roboto-Regular, Roboto" font-size="16" letter-spacing="0">
        <tspan x="0" y="15">Practice Type</tspan>
      </text>
    </g>
    <g transform="translate(432 313.667)">
      <path stroke="#E0E0E0" stroke-linecap="square" d="M0.5,31.5 L320.501556,31.5"/>
      <polygon fill="#1B1B1B" points="300 7 305 12 310 7"/>
      <text fill="#1B1B1B" font-family="Roboto-Regular, Roboto" font-size="16" letter-spacing="0">
        <tspan x="0" y="15">Number of Providers</tspan>
      </text>
    </g>
    <g transform="translate(432 561.667)">
      <path stroke="#E0E0E0" stroke-linecap="square" d="M0.5,31.5 L320.501556,31.5"/>
      <polygon fill="#1B1B1B" points="300 7 305 12 310 7"/>
      <text fill="#1B1B1B" font-family="Roboto-Regular, Roboto" font-size="16" letter-spacing="0">
        <tspan x="0" y="15">Reporting Type</tspan>
      </text>
    </g>
    <g transform="translate(431 124.333)">
      <path stroke="#E0E0E0" stroke-linecap="square" d="M0.5,30.5 L320.501556,30.5"/>
      <text fill="#1B1B1B" font-family="Roboto-Regular, Roboto" font-size="16" letter-spacing="0">
        <tspan x="0" y="15">Organization Name</tspan>
      </text>
    </g>
    <g transform="translate(432 727)">
      <path stroke="#E0E0E0" stroke-linecap="square" d="M0.5,31.5 L320.501556,31.5"/>
      <text fill="#1B1B1B" font-family="Roboto-Regular, Roboto" font-size="16" letter-spacing="0">
        <tspan x="0" y="15">TIN Number (optional)</tspan>
      </text>
    </g>
    <g transform="translate(393 190)">
      <text fill="#000" fill-opacity=".87" font-family="Roboto-Regular, Roboto" font-size="16" letter-spacing="0">
        <tspan x="0" y="15">Start Date</tspan>
      </text>
      <text fill="#000" fill-opacity=".87" font-family="Roboto-Regular, Roboto" font-size="14" letter-spacing="0">
        <tspan x="70" y="62">10/2/2018</tspan>
      </text>
      <path stroke="#E0E0E0" stroke-linecap="square" d="M70,72.5 L186.504295,72.5"/>
      <g fill="#1575C1" transform="translate(18 46)">
        <path d="M16,2 L15,2 L15,0 L13,0 L13,2 L5,2 L5,0 L3,0 L3,2 L2,2 C0.9,2 0,2.9 0,4 L0,18 C0,19.1 0.9,20 2,20 L16,20 C17.1,20 18,19.1 18,18 L18,4 C18,2.9 17.1,2 16,2 L16,2 Z M16,18 L2,18 L2,7 L16,7 L16,18 L16,18 Z"/>
        <rect width="5" height="5" x="4" y="9"/>
      </g>
    </g>
    <g transform="translate(603 190)">
      <text fill="#000" fill-opacity=".87" font-family="Roboto-Regular, Roboto" font-size="16" letter-spacing="0">
        <tspan x="0" y="15">End Date</tspan>
      </text>
      <text fill="#000" fill-opacity=".87" font-family="Roboto-Regular, Roboto" font-size="14" letter-spacing="0">
        <tspan x="70" y="62">20/12/2018</tspan>
      </text>
      <path stroke="#E0E0E0" stroke-linecap="square" d="M70,72.5 L186.504295,72.5"/>
      <g fill="#1575C1" transform="translate(18 46)">
        <path d="M16,2 L15,2 L15,0 L13,0 L13,2 L5,2 L5,0 L3,0 L3,2 L2,2 C0.9,2 0,2.9 0,4 L0,18 C0,19.1 0.9,20 2,20 L16,20 C17.1,20 18,19.1 18,18 L18,4 C18,2.9 17.1,2 16,2 L16,2 Z M16,18 L2,18 L2,7 L16,7 L16,18 L16,18 Z"/>
        <rect width="5" height="5" x="4" y="9"/>
      </g>
    </g>
    <g transform="translate(610 800.667)">
      <use fill="#000" filter="url(#create-report@2x-c)" xlink:href="#create-report@2x-d"/>
      <use fill="#1579C1" xlink:href="#create-report@2x-d"/>
      <text fill="#FFF" font-family="Roboto-Medium, Roboto" font-size="16" font-weight="400">
        <tspan x="49.199" y="28">CANCEL</tspan>
      </text>
    </g>
    <g transform="translate(414 800.667)">
      <use fill="#000" filter="url(#create-report@2x-e)" xlink:href="#create-report@2x-f"/>
      <use fill="#1579C1" xlink:href="#create-report@2x-f"/>
      <text fill="#FFF" font-family="Roboto-Medium, Roboto" font-size="16" font-weight="400">
        <tspan x="50.559" y="27">CREATE</tspan>
      </text>
    </g>
    <g>
      <rect width="1184" height="64" fill="#1579C1"/>
      <path fill="#FFF" d="M1141,40 C1139.89543,40 1139,39.1045695 1139,38 C1139,36.8954305 1139.89543,36 1141,36 C1142.10457,36 1143,36.8954305 1143,38 C1143,39.1045695 1142.10457,40 1141,40 Z M1141,34 C1139.89543,34 1139,33.1045695 1139,32 C1139,30.8954305 1139.89543,30 1141,30 C1142.10457,30 1143,30.8954305 1143,32 C1143,33.1045695 1142.10457,34 1141,34 Z M1141,28 C1139.89543,28 1139,27.1045695 1139,26 C1139,24.8954305 1139.89543,24 1141,24 C1142.10457,24 1143,24.8954305 1143,26 C1143,27.1045695 1142.10457,28 1141,28 Z"/>
      <text fill="#FFF" font-family="Roboto-Regular, Roboto" font-size="21">
        <tspan x="148" y="39">Dashboard</tspan>
      </text>
      <text fill="#FFF" font-family="Roboto-Regular, Roboto" font-size="21">
        <tspan x="289" y="39">All Reports</tspan>
      </text>
      <text fill="#FFF" font-family="Roboto-Regular, Roboto" font-size="21">
        <tspan x="429" y="39">Create Report</tspan>
      </text>
      <text fill="#FFF" font-family="Roboto-Regular, Roboto" font-size="21">
        <tspan x="597" y="39">Scorecard</tspan>
      </text>
      <text fill="#FFF" font-family="Roboto-Regular, Roboto" font-size="21">
        <tspan x="731" y="39">Providers</tspan>
      </text>
      <text fill="#FFF" font-family="Roboto-Regular, Roboto" font-size="21">
        <tspan x="859" y="39">Contact</tspan>
      </text>
      <g transform="translate(1065 15)">
        <use fill="#FFF" opacity=".898" xlink:href="#create-report@2x-g"/>
        <path fill="#085083" fill-rule="nonzero" d="M17,0 C7.61183673,0 0,7.61183673 0,17 C0,26.3916327 7.61183673,34 17,34 C26.3916327,34 34,26.3881633 34,17 C34,7.61183673 26.3916327,0 17,0 Z M12.8783673,7.30653061 C13.9781633,6.20673469 15.4387755,5.60306122 17.0034694,5.60306122 C18.5612245,5.60306122 20.0322449,6.20673469 21.1216327,7.30653061 C22.2318367,8.40979592 22.8389796,9.87040816 22.8389796,11.4316327 C22.8389796,12.9893878 22.2318367,14.4465306 21.1216327,15.5497959 C20.0287755,16.6495918 18.5612245,17.2602041 17.0034694,17.2602041 C15.4422449,17.2602041 13.9816327,16.6530612 12.8783673,15.5497959 C11.7785714,14.45 11.1679592,12.9859184 11.1679592,11.4316327 C11.1679592,9.87040816 11.7785714,8.40979592 12.8783673,7.30653061 Z M17,30.7040816 C12.6320408,30.7040816 8.68387755,28.9 5.87020408,25.9926531 C7.15040816,22.3359184 10.5746939,19.5638776 14.387551,19.5638776 L19.6089796,19.5638776 C23.414898,19.5638776 26.8461224,22.3359184 28.1297959,25.9891837 C25.3126531,28.9 21.3679592,30.7040816 17,30.7040816 Z"/>
      </g>
    </g>
  </g>
</svg>
