<svg xmlns="http://www.w3.org/2000/svg" xmlns:xlink="http://www.w3.org/1999/xlink" width="1183" height="958" viewBox="0 0 1183 958">
  <defs>
    <circle id="dashboard-a" cx="13" cy="13" r="13"/>
    <rect id="dashboard-c" width="695" height="400" rx="2"/>
    <filter id="dashboard-b" width="104.2%" height="107.2%" x="-2.1%" y="-3.1%" filterUnits="objectBoundingBox">
      <feOffset dy="2" in="SourceAlpha" result="shadowOffsetOuter1"/>
      <feGaussianBlur in="shadowOffsetOuter1" result="shadowBlurOuter1" stdDeviation="4.5"/>
      <feColorMatrix in="shadowBlurOuter1" values="0 0 0 0 0   0 0 0 0 0   0 0 0 0 0  0 0 0 0.0579710145 0"/>
    </filter>
    <radialGradient id="dashboard-d" cy="0%" r="14958.984%" fx="50%" fy="0%" gradientTransform="matrix(0 1 -.00339 0 .5 -.5)">
      <stop offset="0%" stop-color="#F5F7F8"/>
      <stop offset="100%" stop-color="#E7EBEF"/>
    </radialGradient>
    <rect id="dashboard-f" width="330" height="250" rx="2"/>
    <filter id="dashboard-e" width="108.8%" height="111.6%" x="-4.4%" y="-5%" filterUnits="objectBoundingBox">
      <feOffset dy="2" in="SourceAlpha" result="shadowOffsetOuter1"/>
      <feGaussianBlur in="shadowOffsetOuter1" result="shadowBlurOuter1" stdDeviation="4.5"/>
      <feColorMatrix in="shadowBlurOuter1" values="0 0 0 0 0   0 0 0 0 0   0 0 0 0 0  0 0 0 0.0579710145 0"/>
    </filter>
    <rect id="dashboard-h" width="330" height="250" rx="2"/>
    <filter id="dashboard-g" width="108.8%" height="111.6%" x="-4.4%" y="-5%" filterUnits="objectBoundingBox">
      <feOffset dy="2" in="SourceAlpha" result="shadowOffsetOuter1"/>
      <feGaussianBlur in="shadowOffsetOuter1" result="shadowBlurOuter1" stdDeviation="4.5"/>
      <feColorMatrix in="shadowBlurOuter1" values="0 0 0 0 0   0 0 0 0 0   0 0 0 0 0  0 0 0 0.0579710145 0"/>
    </filter>
    <rect id="dashboard-j" width="330" height="250" rx="2"/>
    <filter id="dashboard-i" width="108.8%" height="111.6%" x="-4.4%" y="-5%" filterUnits="objectBoundingBox">
      <feOffset dy="2" in="SourceAlpha" result="shadowOffsetOuter1"/>
      <feGaussianBlur in="shadowOffsetOuter1" result="shadowBlurOuter1" stdDeviation="4.5"/>
      <feColorMatrix in="shadowBlurOuter1" values="0 0 0 0 0   0 0 0 0 0   0 0 0 0 0  0 0 0 0.0579710145 0"/>
    </filter>
    <rect id="dashboard-l" width="330" height="400" x="791" y="420" rx="2"/>
    <filter id="dashboard-k" width="108.8%" height="107.2%" x="-4.4%" y="-3.1%" filterUnits="objectBoundingBox">
      <feOffset dy="2" in="SourceAlpha" result="shadowOffsetOuter1"/>
      <feGaussianBlur in="shadowOffsetOuter1" result="shadowBlurOuter1" stdDeviation="4.5"/>
      <feColorMatrix in="shadowBlurOuter1" values="0 0 0 0 0   0 0 0 0 0   0 0 0 0 0  0 0 0 0.0579710145 0"/>
    </filter>
    <rect id="dashboard-m" width="943" height="28" rx="4"/>
    <filter id="dashboard-n" width="100.1%" height="103.6%" x="-.1%" y="-1.8%" filterUnits="objectBoundingBox">
      <feOffset dy="1" in="SourceAlpha" result="shadowOffsetInner1"/>
      <feComposite in="shadowOffsetInner1" in2="SourceAlpha" k2="-1" k3="1" operator="arithmetic" result="shadowInnerInner1"/>
      <feColorMatrix in="shadowInnerInner1" values="0 0 0 0 0   0 0 0 0 0   0 0 0 0 0  0 0 0 0.24 0"/>
    </filter>
  </defs>
  <g fill="none" fill-rule="evenodd">
    <rect width="1183" height="836" y="122" fill="#F5F5F5"/>
    <g transform="translate(0 58)">
      <g>
        <rect width="1184" height="64" fill="#1E88E5"/>
        <g fill="#FFF" font-size="16" transform="translate(60 24)">
          <text font-family="Roboto-Regular, Roboto">
            <tspan x="154" y="15">Dashboard</tspan>
          </text>
          <text font-family="Roboto-Medium, Roboto" font-weight="400">
            <tspan x="0" y="15">MIPSight</tspan>
          </text>
          <text font-family="Roboto-Regular, Roboto">
            <tspan x="281" y="15">All Reports</tspan>
          </text>
          <text font-family="Roboto-Regular, Roboto">
            <tspan x="408" y="15">Create Report</tspan>
          </text>
          <text font-family="Roboto-Regular, Roboto">
            <tspan x="556" y="15">Scorecard</tspan>
          </text>
          <text font-family="Roboto-Regular, Roboto">
            <tspan x="678" y="15">Providers</tspan>
          </text>
          <text font-family="Roboto-Regular, Roboto">
            <tspan x="795" y="15">Contact</tspan>
          </text>
        </g>
      </g>
      <text fill="#FFF" font-family="Roboto-Regular, Roboto" font-size="16">
        <tspan x="1020" y="39">Harriet Becker</tspan>
      </text>
      <g transform="translate(980 19)">
        <use fill="#FFF" opacity=".898" xlink:href="#dashboard-a"/>
        <path fill="#085083" fill-rule="nonzero" d="M13,0 C5.82081633,0 0,5.82081633 0,13 C0,20.1818367 5.82081633,26 13,26 C20.1818367,26 26,20.1791837 26,13 C26,5.82081633 20.1818367,0 13,0 Z M9.84816327,5.58734694 C10.6891837,4.74632653 11.8061224,4.28469388 13.0026531,4.28469388 C14.1938776,4.28469388 15.3187755,4.74632653 16.1518367,5.58734694 C17.0008163,6.43102041 17.465102,7.54795918 17.465102,8.74183673 C17.465102,9.93306122 17.0008163,11.0473469 16.1518367,11.8910204 C15.3161224,12.7320408 14.1938776,13.1989796 13.0026531,13.1989796 C11.8087755,13.1989796 10.6918367,12.7346939 9.84816327,11.8910204 C9.00714286,11.05 8.54020408,9.93040816 8.54020408,8.74183673 C8.54020408,7.54795918 9.00714286,6.43102041 9.84816327,5.58734694 Z M13,23.4795918 C9.65979592,23.4795918 6.64061224,22.1 4.48897959,19.8767347 C5.46795918,17.0804082 8.08653061,14.9606122 11.0022449,14.9606122 L14.995102,14.9606122 C17.9055102,14.9606122 20.5293878,17.0804082 21.5110204,19.8740816 C19.3567347,22.1 16.3402041,23.4795918 13,23.4795918 Z"/>
      </g>
      <g transform="translate(61 420)">
        <use fill="#000" filter="url(#dashboard-b)" xlink:href="#dashboard-c"/>
        <use fill="#FFF" xlink:href="#dashboard-c"/>
        <g transform="translate(16 70.16)">
          <g transform="translate(.113 69.369)">
            <g stroke="url(#dashboard-d)" stroke-linecap="square" stroke-width=".6" transform="translate(33.78 4.29)">
              <path d="M.987599859 1.37606586L625.925946 1.37606586M.987599859 42.6580418L625.925946 42.6580418M.987599859 83.9400176L625.925946 83.9400176M.987599859 125.221994L625.925946 125.221994M.987599859 166.503969L625.925946 166.503969M.987599859 207.785945L625.925946 207.785945"/>
            </g>
            <g font-family="Roboto-Regular, Roboto">
              <text fill="#4D4D4E" font-size="13" letter-spacing=".156">
                <tspan x="60.519" y="234.456">6-7-14</tspan>
              </text>
              <text fill="#485465" font-size="10" letter-spacing=".12">
                <tspan x="24.666" y="215.41">0</tspan>
              </text>
              <text fill="#485465" font-size="10" letter-spacing=".12">
                <tspan x="13.195" y="174.128">100</tspan>
              </text>
              <text fill="#485465" font-size="10" letter-spacing=".12">
                <tspan x="13.195" y="132.846">200</tspan>
              </text>
              <text fill="#485465" font-size="10" letter-spacing=".12">
                <tspan x="13.195" y="91.564">300</tspan>
              </text>
              <text fill="#485465" font-size="10" letter-spacing=".12">
                <tspan x="13.195" y="50.282">400</tspan>
              </text>
              <text fill="#485465" font-size="10" letter-spacing=".12">
                <tspan x="13.195" y="9">500</tspan>
              </text>
              <text fill="#4D4D4E" font-size="13" letter-spacing=".156">
                <tspan x="145.465" y="234.456">12-8-15</tspan>
              </text>
              <text fill="#4D4D4E" font-size="13" letter-spacing=".156">
                <tspan x="234.138" y="234.456">6-18-15</tspan>
              </text>
              <text fill="#4D4D4E" font-size="13" letter-spacing=".156">
                <tspan x="326.54" y="234.456">1-1-16</tspan>
              </text>
              <text fill="#4D4D4E" font-size="13" letter-spacing=".156">
                <tspan x="411.486" y="234.456">16-4-16</tspan>
              </text>
              <text fill="#4D4D4E" font-size="13" letter-spacing=".156">
                <tspan x="496.432" y="234.456">12-12-16</tspan>
              </text>
              <text fill="#4D4D4E" font-size="13" letter-spacing=".156">
                <tspan x="590.944" y="234.456">5-20-17</tspan>
              </text>
            </g>
            <g transform="translate(34.836 4.29)">
              <polygon fill="#D2ECF7" points="0 13.624 62.963 75.469 101.209 38.324 145.237 31.001 198.959 46.099 240.69 34.228 264.002 .765 348.265 16.535 391.081 46.099 443.368 13.624 490.245 40.635 543.551 68.473 582.713 31.001 624.938 40.635 624.938 81.984 582.713 72.233 543.551 109.46 500.557 72.508 443.368 54.826 389.391 100.489 354.695 60.397 312.759 34.228 238.666 66.139 196.708 100.634 141.419 98.362 99.934 129.297 33.027 125.019 .329 54.734" opacity=".91"/>
              <polyline stroke="#53A8E2" stroke-linecap="round" stroke-linejoin="round" stroke-width="1.5" points="0 13.624 62.963 75.469 101.209 38.324 145.237 31.001 198.959 46.099 240.69 34.228 263.922 1.172 347.856 16.322 391.081 46.099 443.368 13.624 490.245 40.635 543.551 68.473 582.713 31.001 624.938 40.635" opacity=".9"/>
            </g>
            <g transform="translate(34.836 38.162)">
              <polygon fill="#DCEEE5" points="0 22.092 32.222 92.128 99.948 96.75 141.633 65.442 196.456 68.04 239.003 33.327 312.469 1.455 354.695 27.434 389.279 68.04 443.368 22.092 499.841 39.469 543.551 76.941 582.713 39.469 624.938 49.103 624.938 73.081 583.065 91.443 562.128 130.382 496.375 79.763 436.768 119.633 391.241 91.443 351.442 95.697 293.515 57.203 238.422 85.371 177.347 143.708 142.114 117.375 99.617 126.485 59.138 161.064 33.048 144.36 .147 73.899 .1 23.095" opacity=".93"/>
              <polyline stroke="#248E59" stroke-linecap="round" stroke-linejoin="round" stroke-width="1.5" points="0 21.034 32.222 91.069 99.948 95.692 141.633 64.383 196.456 66.982 239.003 32.268 312.469 .397 354.695 26.376 389.279 66.982 443.368 21.034 499.841 38.41 543.551 75.882 582.713 38.41 624.938 48.044" opacity=".9"/>
            </g>
            <g transform="translate(34.836 96.38)">
              <polygon fill="#E9CACA" points="0 16.8 32.222 86.835 59.116 104.214 99.882 69.299 141.633 60.149 177.347 86.835 239.003 28.034 293.352 .165 351.285 38.551 390.636 34.176 436.973 62.748 495.713 22.142 562.474 73.86 582.713 34.176 624.938 16.8 624.938 114.725 .143 114.725" opacity=".65"/>
              <polyline stroke="#CA7CA6" stroke-linecap="round" stroke-linejoin="round" stroke-width="1.5" points="0 16.8 32.222 86.835 59.116 104.214 99.882 69.299 141.633 60.149 177.347 86.835 239.003 28.034 293.352 .165 351.285 38.551 390.636 34.176 436.973 62.748 495.713 22.142 562.474 73.86 582.713 34.176 624.938 16.8"/>
            </g>
            <g transform="translate(339.916 7.466)">
              <path fill="#485465" d="M29.5578947,53.9346982 C29.5578947,53.3771467 30.0017248,52.9285853 30.5643248,52.9329248 L165.784547,53.9759217 C166.340383,53.9802091 166.790977,54.4408848 166.790977,54.982252 L166.790977,141.901029 C166.790977,142.452522 166.347147,142.896173 165.784547,142.891833 L30.5643248,141.848836 C30.0084888,141.844549 29.5578947,141.402665 29.5578947,140.836869 L29.5578947,102.803654 L25.3353383,97.566085 L29.5578947,92.1698414 L29.5578947,53.9346982 Z" opacity=".9"/>
              <ellipse cx="46.448" cy="123.846" fill="#F3DBDB" rx="4.223" ry="4.234"/>
              <ellipse cx="46.448" cy="88.915" fill="#B0E5FC" rx="4.223" ry="4.234"/>
              <ellipse cx="46.448" cy="106.91" fill="#BDFDDD" rx="4.223" ry="4.234"/>
              <text fill="#FFF" font-family="Roboto-Medium, Roboto" font-size="11" font-weight="400">
                <tspan x="126.677" y="90.447">80</tspan> <tspan x="126.677" y="106.447">50</tspan> <tspan x="126.677" y="122.447">90</tspan>
              </text>
              <text fill="#FFF" font-family="Roboto-Regular, Roboto" font-size="12" opacity=".8">
                <tspan x="66.227" y="91.447">ACI</tspan> <tspan x="66.227" y="107.447">Quality</tspan> <tspan x="66.227" y="123.447">CPIA </tspan>
              </text>
              <text fill="#FFF" font-family="Roboto-Medium, Roboto" font-size="11" font-weight="400" letter-spacing=".066" opacity=".709">
                <tspan x="41.17" y="71.394">1-6-16</tspan>
              </text>
              <path stroke="#2E8CCD" stroke-linecap="square" d="M5.27819549,203.763599 L5.27819549,106.327547" opacity=".5"/>
              <path stroke="#76DDFB" stroke-linecap="square" d="M5.27819549,94.7368421 L5.27819549,37.5242584" opacity=".5"/>
              <path stroke="#53A8E2" stroke-linecap="square" d="M5.27819549,25.933549 L5.27819549,11.0614523" opacity=".5"/>
              <ellipse cx="5.278" cy="5.293" fill="#FFF" stroke="#51A5DE" rx="5.278" ry="5.293"/>
              <ellipse cx="5.278" cy="31.755" fill="#FFF" stroke="#76DDFB" rx="5.278" ry="5.293"/>
              <ellipse cx="5.278" cy="99.5" fill="#FFF" stroke="#2E8CCD" rx="5.278" ry="5.293"/>
            </g>
          </g>
          <g transform="translate(411)">
            <g transform="translate(175.236)">
              <text fill="#1B1B1B" font-family="Roboto-Regular, Roboto" font-size="13" letter-spacing="-.078">
                <tspan x="15.835" y="12">CPIA</tspan>
              </text>
              <ellipse cx="4.75" cy="7.883" fill="#CA7C7C" rx="4.75" ry="4.763"/>
            </g>
            <g transform="translate(85.507)">
              <text fill="#1B1B1B" font-family="Roboto-Regular, Roboto" font-size="13" letter-spacing="-.078">
                <tspan x="15.835" y="12">Quality</tspan>
              </text>
              <ellipse cx="4.75" cy="7.883" fill="#49CA8B" rx="4.75" ry="4.763"/>
            </g>
            <text fill="#1B1B1B" font-family="Roboto-Regular, Roboto" font-size="13" letter-spacing="-.078">
              <tspan x="15.835" y="12">ACI</tspan>
            </text>
            <ellipse cx="4.75" cy="7.883" fill="#A8E5FF" rx="4.75" ry="4.763"/>
          </g>
        </g>
        <text fill="#1B1B1B" font-family="Roboto-Medium, Roboto" font-size="20" font-weight="400">
          <tspan x="30" y="49.115">Compare Scores</tspan>
        </text>
      </g>
      <g transform="translate(426 115)">
        <use fill="#000" filter="url(#dashboard-e)" xlink:href="#dashboard-f"/>
        <use fill="#FFF" xlink:href="#dashboard-f"/>
        <path fill="#1575C1" d="M311,31 C309.895431,31 309,30.1045695 309,29 C309,27.8954305 309.895431,27 311,27 C312.104569,27 313,27.8954305 313,29 C313,30.1045695 312.104569,31 311,31 Z M311,25 C309.895431,25 309,24.1045695 309,23 C309,21.8954305 309.895431,21 311,21 C312.104569,21 313,21.8954305 313,23 C313,24.1045695 312.104569,25 311,25 Z M311,19 C309.895431,19 309,18.1045695 309,17 C309,15.8954305 309.895431,15 311,15 C312.104569,15 313,15.8954305 313,17 C313,18.1045695 312.104569,19 311,19 Z"/>
        <text fill="#1B1B1B" font-family="Roboto-Regular, Roboto" font-size="16">
          <tspan x="109.32" y="134">20 August 2017</tspan>
        </text>
        <text fill="#1B1B1B" font-family="Roboto-Medium, Roboto" font-size="20" font-weight="400">
          <tspan x="92.026" y="104">December Report</tspan>
        </text>
        <g transform="translate(0 195)">
          <rect width="165" height="55" fill="#5DB0F6"/>
          <text fill="#FFF" font-family="Roboto-Medium, Roboto" font-size="16" font-weight="400">
            <tspan x="68.802" y="33.458">Edit</tspan>
          </text>
        </g>
        <g transform="translate(165 195)">
          <rect width="165" height="55" fill="#1E88E5"/>
          <text fill="#FFF" font-family="Roboto-Medium, Roboto" font-size="16" font-weight="400">
            <tspan x="46.48" y="33.458">Scorecard</tspan>
          </text>
        </g>
        <text fill="#1575C1" font-family="Roboto-Regular, Roboto" font-size="12" letter-spacing=".144">
          <tspan x="20.5" y="27">Recenty edited</tspan>
        </text>
      </g>
      <g transform="translate(61 115)">
        <use fill="#000" filter="url(#dashboard-g)" xlink:href="#dashboard-h"/>
        <use fill="#FFF" xlink:href="#dashboard-h"/>
        <path fill="#1575C1" d="M311,31 C309.895431,31 309,30.1045695 309,29 C309,27.8954305 309.895431,27 311,27 C312.104569,27 313,27.8954305 313,29 C313,30.1045695 312.104569,31 311,31 Z M311,25 C309.895431,25 309,24.1045695 309,23 C309,21.8954305 309.895431,21 311,21 C312.104569,21 313,21.8954305 313,23 C313,24.1045695 312.104569,25 311,25 Z M311,19 C309.895431,19 309,18.1045695 309,17 C309,15.8954305 309.895431,15 311,15 C312.104569,15 313,15.8954305 313,17 C313,18.1045695 312.104569,19 311,19 Z"/>
        <text fill="#1B1B1B" font-family="Roboto-Regular, Roboto" font-size="16">
          <tspan x="106.289" y="134">17 October 2017</tspan>
        </text>
        <text fill="#1B1B1B" font-family="Roboto-Medium, Roboto" font-size="20" font-weight="400">
          <tspan x="83.853" y="104">December Report 2</tspan>
        </text>
        <g transform="translate(0 195)">
          <rect width="165" height="55" fill="#5DB0F6"/>
          <text fill="#FFF" font-family="Roboto-Medium, Roboto" font-size="16" font-weight="400">
            <tspan x="68.802" y="33.458">Edit</tspan>
          </text>
        </g>
        <g transform="translate(165 195)">
          <rect width="165" height="55" fill="#1E88E5"/>
          <text fill="#FFF" font-family="Roboto-Medium, Roboto" font-size="16" font-weight="400">
            <tspan x="46.48" y="33.458">Scorecard</tspan>
          </text>
        </g>
        <text fill="#1575C1" font-family="Roboto-Regular, Roboto" font-size="12" letter-spacing=".144">
          <tspan x="20.5" y="27">Recenty edited</tspan>
        </text>
      </g>
      <g transform="translate(792 115)">
        <use fill="#000" filter="url(#dashboard-i)" xlink:href="#dashboard-j"/>
        <use fill="#FFF" xlink:href="#dashboard-j"/>
        <path fill="#1575C1" d="M311,31 C309.895431,31 309,30.1045695 309,29 C309,27.8954305 309.895431,27 311,27 C312.104569,27 313,27.8954305 313,29 C313,30.1045695 312.104569,31 311,31 Z M311,25 C309.895431,25 309,24.1045695 309,23 C309,21.8954305 309.895431,21 311,21 C312.104569,21 313,21.8954305 313,23 C313,24.1045695 312.104569,25 311,25 Z M311,19 C309.895431,19 309,18.1045695 309,17 C309,15.8954305 309.895431,15 311,15 C312.104569,15 313,15.8954305 313,17 C313,18.1045695 312.104569,19 311,19 Z"/>
        <text fill="#1B1B1B" font-family="Roboto-Regular, Roboto" font-size="16">
          <tspan x="106.152" y="134">15 January 2017</tspan>
        </text>
        <text fill="#1B1B1B" font-family="Roboto-Medium, Roboto" font-size="20" font-weight="400">
          <tspan x="101.315" y="104">August Report</tspan>
        </text>
        <g transform="translate(0 195)">
          <rect width="165" height="55" fill="#5DB0F6"/>
          <text fill="#FFF" font-family="Roboto-Medium, Roboto" font-size="16" font-weight="400">
            <tspan x="68.802" y="33.458">Edit</tspan>
          </text>
        </g>
        <g transform="translate(165 195)">
          <rect width="165" height="55" fill="#1E88E5"/>
          <text fill="#FFF" font-family="Roboto-Medium, Roboto" font-size="16" font-weight="400">
            <tspan x="46.48" y="33.458">Scorecard</tspan>
          </text>
        </g>
        <text fill="#1575C1" font-family="Roboto-Regular, Roboto" font-size="12" letter-spacing=".144">
          <tspan x="20.664" y="27">Recenty edited</tspan>
        </text>
      </g>
      <use fill="#000" filter="url(#dashboard-k)" xlink:href="#dashboard-l"/>
      <use fill="#FFF" xlink:href="#dashboard-l"/>
      <g transform="translate(826 512)">
        <path stroke="#E0E0E0" stroke-linecap="square" d="M0.5,31.5 L260.5,31.5"/>
        <polygon fill="#1B1B1B" points="239 7 244 12 249 7"/>
        <text fill="#1B1B1B" font-family="Roboto-Regular, Roboto" font-size="16" letter-spacing="0">
          <tspan x="0" y="15">December Report</tspan>
        </text>
      </g>
      <text fill="#1B1B1B" font-family="Roboto-Medium, Roboto" font-size="20" font-weight="400">
        <tspan x="821" y="469.115">Check Score</tspan>
      </text>
      <g transform="translate(823 584)">
        <path fill="#4D4D4E" d="M54.6000809,51.2490987 C54.6000809,52.6541838 54.2294791,53.9045619 53.4882645,55.0002705 C52.7470498,56.0959791 51.7448138,56.9531971 50.4815262,57.5719502 C51.9510648,58.203594 53.1144321,59.1252645 53.9716629,60.3369893 C54.8288938,61.5487141 55.2575028,62.9215519 55.2575028,64.455544 C55.2575028,66.8918843 54.4357336,68.8319039 52.7921707,70.2756612 C51.1486078,71.7194184 48.9862271,72.4412862 46.3049637,72.4412862 C43.5979189,72.4412862 41.429093,71.7161958 39.7984207,70.2659932 C38.1677485,68.8157906 37.3524246,66.8789936 37.3524246,64.455544 C37.3524246,62.9344426 37.7681431,61.5616048 38.5995926,60.3369893 C39.4310421,59.1123738 40.5815189,58.1842581 42.0510575,57.5526143 C40.8006606,56.9338612 39.8145376,56.0766432 39.092659,54.9809346 C38.3707804,53.885226 38.0098465,52.6412931 38.0098465,51.2490987 C38.0098465,48.8772118 38.7703858,46.9951994 40.2914871,45.6030049 C41.8125885,44.2108105 43.8170606,43.5147237 46.3049637,43.5147237 C48.7799761,43.5147237 50.7812256,44.2108105 52.3087723,45.6030049 C53.836319,46.9951994 54.6000809,48.8772118 54.6000809,51.2490987 Z M51.6803543,64.3782002 C51.6803543,62.8055361 51.1808476,61.5229318 50.1818192,60.5303487 C49.1827907,59.5377656 47.877628,59.0414815 46.2662918,59.0414815 C44.6549557,59.0414815 43.3626834,59.5313203 42.3894364,60.5110127 C41.4161893,61.4907051 40.9295731,62.7797547 40.9295731,64.3782002 C40.9295731,65.9766457 41.4032988,67.2334691 42.3507645,68.148708 C43.2982302,69.063947 44.6162834,69.5215596 46.3049637,69.5215596 C47.9807533,69.5215596 49.2955839,69.0607244 50.249495,68.1390401 C51.203406,67.2173558 51.6803543,65.963755 51.6803543,64.3782002 Z M46.3049637,46.4537862 C44.8998786,46.4537862 43.7622923,46.8888404 42.8921707,47.7589619 C42.0220492,48.6290835 41.586995,49.8117865 41.586995,51.3071065 C41.586995,52.737973 42.015604,53.894895 42.8728348,54.7779073 C43.7300657,55.6609195 44.8740972,56.102419 46.3049637,56.102419 C47.7358302,56.102419 48.8798618,55.6609195 49.7370926,54.7779073 C50.5943235,53.894895 51.0229325,52.737973 51.0229325,51.3071065 C51.0229325,49.8762399 50.5782103,48.70965 49.6887528,47.8073018 C48.7992952,46.9049535 47.6713768,46.4537862 46.3049637,46.4537862 Z M73.4719559,59.6795674 C72.7242959,60.569025 71.8316291,61.2844475 70.7939286,61.8258565 C69.7562281,62.3672654 68.6186418,62.6379659 67.3811356,62.6379659 C65.7569087,62.6379659 64.3421768,62.2383605 63.1368973,61.4391377 C61.9316178,60.639915 61.0002795,59.5152192 60.3428543,58.0650166 C59.6854292,56.6148141 59.3567215,55.0131699 59.3567215,53.2600362 C59.3567215,51.3779955 59.7144328,49.6828953 60.4298661,48.1746846 C61.1452993,46.6664739 62.1604259,45.5127745 63.4752762,44.7135518 C64.7901265,43.914329 66.3240956,43.5147237 68.0772293,43.5147237 C70.8616183,43.5147237 73.0562252,44.5556312 74.6611161,46.6374776 C76.2660069,48.7193239 77.0684403,51.5584557 77.0684403,55.154958 L77.0684403,56.1990987 C77.0684403,61.6776417 75.9856386,65.6769181 73.8200028,68.1970479 C71.6543669,70.7171777 68.3866262,72.0094499 64.0166825,72.0739034 L63.3205887,72.0739034 L63.3205887,69.0574971 L64.0746903,69.0574971 C67.0266582,69.0059343 69.2953855,68.2357272 70.8809403,66.7468526 C72.4664951,65.2579779 73.3301583,62.9022398 73.4719559,59.6795674 Z M67.9612137,59.6795674 C69.1600478,59.6795674 70.2654079,59.3121883 71.277327,58.577419 C72.2892461,57.8426497 73.027227,56.9338697 73.4912918,55.8510518 L73.4912918,54.4201924 C73.4912918,52.0740869 72.9821172,50.1662935 71.9637528,48.6967549 C70.9453883,47.2272163 69.6563387,46.492458 68.0965653,46.492458 C66.5239012,46.492458 65.2606325,47.0950887 64.3067215,48.3003682 C63.3528105,49.5056477 62.8758621,51.0944013 62.8758621,53.0666768 C62.8758621,54.9873895 63.3366974,56.5696979 64.2583817,57.8136494 C65.180066,59.057601 66.414331,59.6795674 67.9612137,59.6795674 Z"/>
        <path fill="#C27200" d="M29.2351395,17.836794 L25.2292801,17.836794 L25.2292801,22.0545674 L23.4997879,22.0545674 L23.4997879,12.1014424 L29.8230301,12.1014424 L29.8230301,13.4959737 L25.2292801,13.4959737 L25.2292801,16.4559346 L29.2351395,16.4559346 L29.2351395,17.836794 Z M32.7966629,22.0545674 L31.1355301,22.0545674 L31.1355301,14.658083 L32.7966629,14.658083 L32.7966629,22.0545674 Z M31.0329911,12.7371846 C31.0329911,12.481975 31.1138822,12.270063 31.2756668,12.1014424 C31.4374515,11.9328218 31.6687317,11.8485127 31.9695145,11.8485127 C32.2702972,11.8485127 32.5027168,11.9328218 32.6667801,12.1014424 C32.8308434,12.270063 32.9128739,12.481975 32.9128739,12.7371846 C32.9128739,12.9878369 32.8308434,13.1963309 32.6667801,13.3626729 C32.5027168,13.5290149 32.2702972,13.6121846 31.9695145,13.6121846 C31.6687317,13.6121846 31.4374515,13.5290149 31.2756668,13.3626729 C31.1138822,13.1963309 31.0329911,12.9878369 31.0329911,12.7371846 Z M36.1462723,14.658083 L36.1941239,15.5125752 C36.7410016,14.8517646 37.4587679,14.5213643 38.3474442,14.5213643 C39.8878165,14.5213643 40.6716628,15.4031914 40.6990067,17.1668721 L40.6990067,22.0545674 L39.0378739,22.0545674 L39.0378739,17.2625752 C39.0378739,16.7931718 38.9364751,16.4456818 38.7336746,16.2200948 C38.5308742,15.9945077 38.1993345,15.8817159 37.7390457,15.8817159 C37.0691205,15.8817159 36.5701021,16.1847727 36.2419754,16.7908955 L36.2419754,22.0545674 L34.5808426,22.0545674 L34.5808426,14.658083 L36.1462723,14.658083 Z M46.8103348,22.0545674 C46.7374178,21.9132907 46.6736163,21.6831497 46.6189286,21.3641377 C46.0902801,21.9155728 45.4431511,22.1912862 44.6775223,22.1912862 C43.93468,22.1912862 43.3285663,21.9793742 42.8591629,21.555544 C42.3897595,21.1317137 42.1550614,20.6076304 42.1550614,19.9832784 C42.1550614,19.194863 42.4478644,18.5898885 43.0334793,18.1683369 C43.6190942,17.7467854 44.4564882,17.5360127 45.5456864,17.5360127 L46.5642411,17.5360127 L46.5642411,17.0506612 C46.5642411,16.6678467 46.4571458,16.3613719 46.242952,16.1312276 C46.0287582,15.9010832 45.7029151,15.7860127 45.2654129,15.7860127 C44.8871558,15.7860127 44.5772631,15.8805756 44.3357254,16.0697041 C44.0941878,16.2588327 43.9734207,16.4992274 43.9734207,16.7908955 L42.3122879,16.7908955 C42.3122879,16.3852946 42.4467267,16.0059038 42.7156082,15.6527119 C42.9844898,15.2995201 43.3502088,15.0226674 43.8127762,14.8221455 C44.2753436,14.6216237 44.7914517,14.5213643 45.3611161,14.5213643 C46.2270058,14.5213643 46.9174286,14.7389728 47.4324051,15.1741963 C47.9473817,15.6094198 48.2117019,16.2212301 48.2253739,17.0096455 L48.2253739,20.345583 C48.2253739,21.0109509 48.3187974,21.5418701 48.5056473,21.9383565 L48.5056473,22.0545674 L46.8103348,22.0545674 Z M44.9851395,20.8582784 C45.3132661,20.8582784 45.6220196,20.7785265 45.911409,20.6190205 C46.2007985,20.4595145 46.418407,20.245324 46.5642411,19.9764424 L46.5642411,18.5819112 L45.6687332,18.5819112 C45.0534958,18.5819112 44.5909353,18.6890064 44.2810379,18.9032002 C43.9711405,19.117394 43.8161942,19.4204509 43.8161942,19.8123799 C43.8161942,20.1313919 43.9221502,20.3854584 44.1340653,20.5745869 C44.3459804,20.7637155 44.629669,20.8582784 44.9851395,20.8582784 Z M51.7322098,22.0545674 L50.071077,22.0545674 L50.071077,11.5545674 L51.7322098,11.5545674 L51.7322098,22.0545674 Z M62.3894364,19.4910909 C62.3894364,19.0535887 62.2356293,18.7163525 61.9280106,18.4793721 C61.6203919,18.2423917 61.0655471,18.0031363 60.2634598,17.7615987 C59.4613725,17.520061 58.823358,17.2511835 58.3493973,16.954958 C57.4424917,16.3852937 56.9890457,15.6424626 56.9890457,14.7264424 C56.9890457,13.9243551 57.3160281,13.2635544 57.9700028,12.7440205 C58.6239774,12.2244867 59.4727645,11.9647237 60.5163895,11.9647237 C61.2091013,11.9647237 61.8266081,12.0923266 62.3689286,12.3475362 C62.911249,12.6027458 63.3373515,12.9661861 63.6472489,13.4378682 C63.9571463,13.9095502 64.1120926,14.4324942 64.1120926,15.0067159 L62.3894364,15.0067159 C62.3894364,14.487182 62.2265148,14.0804478 61.9006668,13.786501 C61.5748189,13.4925542 61.1088404,13.345583 60.5027176,13.345583 C59.9376106,13.345583 59.4989757,13.4663501 59.1867996,13.7078877 C58.8746236,13.9494254 58.7185379,14.2866616 58.7185379,14.7196065 C58.7185379,15.0841916 58.887156,15.3883878 59.2243973,15.6322041 C59.5616386,15.8760205 60.1176226,16.1129973 60.8923661,16.3431416 C61.6671095,16.573286 62.2891736,16.8353277 62.758577,17.1292744 C63.2279804,17.4232212 63.5720525,17.7604574 63.7908036,18.1409932 C64.0095546,18.521529 64.1189286,18.9669998 64.1189286,19.477419 C64.1189286,20.3068502 63.8010606,20.9665116 63.1653153,21.4564229 C62.5295699,21.9463342 61.6671111,22.1912862 60.5779129,22.1912862 C59.8578572,22.1912862 59.1959173,22.0579867 58.5920731,21.7913838 C57.9882289,21.5247809 57.5188326,21.1567833 57.18387,20.6873799 C56.8489073,20.2179765 56.6814286,19.671107 56.6814286,19.0467549 L58.4109207,19.0467549 C58.4109207,19.6118619 58.5977678,20.0493575 58.9714676,20.3592549 C59.3451674,20.6691523 59.8806438,20.8240987 60.5779129,20.8240987 C61.1794784,20.8240987 61.6317851,20.7021923 61.9348465,20.458376 C62.2379079,20.2145597 62.3894364,19.8921345 62.3894364,19.4910909 Z M68.5144364,20.8651143 C68.929152,20.8651143 69.2732241,20.7443473 69.5466629,20.5028096 C69.8201018,20.2612719 69.9659337,19.9627723 69.9841629,19.6073018 L71.5495926,19.6073018 C71.5313634,20.0675905 71.3878101,20.497111 71.1189286,20.895876 C70.850047,21.294641 70.4854673,21.6102303 70.0251786,21.8426534 C69.5648898,22.0750764 69.06815,22.1912862 68.5349442,22.1912862 C67.5004338,22.1912862 66.6801295,21.8563286 66.0740067,21.1864034 C65.4678839,20.5164781 65.164827,19.5913572 65.164827,18.4110127 L65.164827,18.2401143 C65.164827,17.1144576 65.4656052,16.2132622 66.0671707,15.536501 C66.6687363,14.8597398 67.4890405,14.5213643 68.5281082,14.5213643 C69.4076699,14.5213643 70.1242969,14.7777094 70.6780106,15.2904073 C71.2317243,15.8031051 71.5222487,16.4764382 71.5495926,17.3104268 L69.9841629,17.3104268 C69.9659337,16.8865965 69.8212411,16.5379672 69.5500809,16.2645284 C69.2789207,15.9910895 68.9337093,15.8543721 68.5144364,15.8543721 C67.9766733,15.8543721 67.5619639,16.0491944 67.2702957,16.4388448 C66.9786276,16.8284951 66.8305171,17.4197978 66.8259598,18.2127705 L66.8259598,18.4793721 C66.8259598,19.2814594 66.9706524,19.879598 67.2600418,20.2738057 C67.5494313,20.6680134 67.9675586,20.8651143 68.5144364,20.8651143 Z M72.492952,18.2879659 C72.492952,17.5633529 72.6365052,16.9105273 72.9236161,16.3294698 C73.2107269,15.7484122 73.6140431,15.301802 74.133577,14.989626 C74.6531108,14.67745 75.2501101,14.5213643 75.9245926,14.5213643 C76.9226445,14.5213643 77.732695,14.8426501 78.3547684,15.4852315 C78.9768418,16.1278128 79.3129387,16.9800178 79.3630692,18.0418721 L79.3699051,18.4315205 C79.3699051,19.1606909 79.2297698,19.812377 78.949495,20.3865987 C78.6692201,20.9608203 78.2681825,21.4051518 77.74637,21.7196065 C77.2245575,22.0340612 76.6218617,22.1912862 75.9382645,22.1912862 C74.8946395,22.1912862 74.0595241,21.8437961 73.4328934,21.1488057 C72.8062627,20.4538152 72.492952,19.527555 72.492952,18.3699971 L72.492952,18.2879659 Z M74.1540848,18.4315205 C74.1540848,19.1925921 74.3113098,19.788452 74.6257645,20.2191182 C74.9402192,20.6497844 75.3777148,20.8651143 75.9382645,20.8651143 C76.4988142,20.8651143 76.9351705,20.6463665 77.2473465,20.2088643 C77.5595226,19.7713621 77.7156082,19.131069 77.7156082,18.2879659 C77.7156082,17.5405663 77.5549653,16.9481243 77.2336746,16.5106221 C76.912384,16.0731199 76.4760277,15.8543721 75.9245926,15.8543721 C75.3822722,15.8543721 74.9516124,16.069702 74.6326004,16.5003682 C74.3135884,16.9310344 74.1540848,17.5747454 74.1540848,18.4315205 Z M84.6472489,16.1756612 C84.4284978,16.1392026 84.2029141,16.1209737 83.9704911,16.1209737 C83.2094195,16.1209737 82.6967294,16.4126374 82.4324051,16.9959737 L82.4324051,22.0545674 L80.7712723,22.0545674 L80.7712723,14.658083 L82.3572098,14.658083 L82.3982254,15.4852315 C82.7992691,14.8426501 83.3552531,14.5213643 84.0661942,14.5213643 C84.3031745,14.5213643 84.4991361,14.553265 84.6540848,14.6170674 L84.6472489,16.1756612 Z M88.9538895,22.1912862 C87.9011499,22.1912862 87.0478055,21.8597465 86.3938309,21.1966573 C85.7398563,20.533568 85.4128739,19.6506016 85.4128739,18.5477315 L85.4128739,18.3426534 C85.4128739,17.6043684 85.5552878,16.944707 85.84012,16.3636494 C86.1249521,15.7825919 86.5248505,15.3302852 87.039827,15.0067159 C87.5548035,14.6831465 88.1290165,14.5213643 88.7624832,14.5213643 C89.7696497,14.5213643 90.5477995,14.8426501 91.0969559,15.4852315 C91.6461123,16.1278128 91.9206864,17.0369834 91.9206864,18.2127705 L91.9206864,18.8826924 L87.0876786,18.8826924 C87.137809,19.4933725 87.3417458,19.9764406 87.699495,20.3319112 C88.0572441,20.6873817 88.5072722,20.8651143 89.0495926,20.8651143 C89.8106641,20.8651143 90.4304496,20.5575002 90.9089676,19.9422627 L91.8044754,20.7967549 C91.50825,21.2388144 91.1129089,21.5817472 90.6184403,21.8255635 C90.1239717,22.0693798 89.5691269,22.1912862 88.9538895,22.1912862 Z M88.7556473,15.8543721 C88.2999159,15.8543721 87.9319182,16.0138757 87.6516434,16.3328877 C87.3713686,16.6518997 87.1924967,17.0962312 87.1150223,17.6658955 L90.2800614,17.6658955 L90.2800614,17.5428487 C90.2436029,16.9868563 90.0954924,16.5664503 89.8357254,16.2816182 C89.5759585,15.996786 89.2159361,15.8543721 88.7556473,15.8543721 Z"/>
        <path fill="#1575C1" d="M184.967561,18.7371846 L181.112093,18.7371846 L180.305452,21.0545674 L178.5076,21.0545674 L182.267366,11.1014424 L183.819124,11.1014424 L187.585725,21.0545674 L185.781038,21.0545674 L184.967561,18.7371846 Z M181.597444,17.3426534 L184.48221,17.3426534 L183.039827,13.2137471 L181.597444,17.3426534 Z M196.308382,17.814333 C196.208121,18.8761873 195.816198,19.7044668 195.1326,20.2991963 C194.449003,20.8939259 193.539833,21.1912862 192.405061,21.1912862 C191.612089,21.1912862 190.913691,21.0032998 190.309847,20.6273213 C189.706002,20.2513429 189.240024,19.7170058 188.911897,19.024294 C188.583771,18.3315822 188.412874,17.5272282 188.399202,16.611208 L188.399202,15.6815205 C188.399202,14.7427138 188.565541,13.9155736 188.898225,13.2000752 C189.230909,12.4845769 189.708281,11.9331501 190.330354,11.5457784 C190.952428,11.1584066 191.671333,10.9647237 192.487093,10.9647237 C193.585405,10.9647237 194.469511,11.2632233 195.139436,11.8602315 C195.809362,12.4572397 196.199006,13.3003302 196.308382,14.3895284 L194.585725,14.3895284 C194.503694,13.67403 194.2952,13.1579219 193.960237,12.8411885 C193.625275,12.5244552 193.134231,12.3660909 192.487093,12.3660909 C191.735136,12.3660909 191.157505,12.6406649 190.754182,13.1898213 C190.35086,13.7389777 190.144645,14.544471 190.13553,15.6063252 L190.13553,16.4881612 C190.13553,17.5636874 190.328074,18.3839917 190.713167,18.9490987 C191.09826,19.5142057 191.662219,19.7967549 192.405061,19.7967549 C193.084101,19.7967549 193.594513,19.6440872 193.936311,19.3387471 C194.27811,19.033407 194.494579,18.5252741 194.585725,17.814333 L196.308382,17.814333 Z M199.678499,21.0545674 L197.955843,21.0545674 L197.955843,11.1014424 L199.678499,11.1014424 L199.678499,21.0545674 Z M210.492952,18.4910909 C210.492952,18.0535887 210.339145,17.7163525 210.031526,17.4793721 C209.723907,17.2423917 209.169063,17.0031363 208.366975,16.7615987 C207.564888,16.520061 206.926874,16.2511835 206.452913,15.954958 C205.546007,15.3852937 205.092561,14.6424626 205.092561,13.7264424 C205.092561,12.9243551 205.419544,12.2635544 206.073518,11.7440205 C206.727493,11.2244867 207.57628,10.9647237 208.619905,10.9647237 C209.312617,10.9647237 209.930124,11.0923266 210.472444,11.3475362 C211.014765,11.6027458 211.440867,11.9661861 211.750764,12.4378682 C212.060662,12.9095502 212.215608,13.4324942 212.215608,14.0067159 L210.492952,14.0067159 C210.492952,13.487182 210.33003,13.0804478 210.004182,12.786501 C209.678334,12.4925542 209.212356,12.345583 208.606233,12.345583 C208.041126,12.345583 207.602491,12.4663501 207.290315,12.7078877 C206.978139,12.9494254 206.822054,13.2866616 206.822054,13.7196065 C206.822054,14.0841916 206.990672,14.3883878 207.327913,14.6322041 C207.665154,14.8760205 208.221138,15.1129973 208.995882,15.3431416 C209.770625,15.573286 210.392689,15.8353277 210.862093,16.1292744 C211.331496,16.4232212 211.675568,16.7604574 211.894319,17.1409932 C212.11307,17.521529 212.222444,17.9669998 212.222444,18.477419 C212.222444,19.3068502 211.904576,19.9665116 211.268831,20.4564229 C210.633086,20.9463342 209.770627,21.1912862 208.681429,21.1912862 C207.961373,21.1912862 207.299433,21.0579867 206.695589,20.7913838 C206.091745,20.5247809 205.622348,20.1567833 205.287386,19.6873799 C204.952423,19.2179765 204.784944,18.671107 204.784944,18.0467549 L206.514436,18.0467549 C206.514436,18.6118619 206.701283,19.0493575 207.074983,19.3592549 C207.448683,19.6691523 207.984159,19.8240987 208.681429,19.8240987 C209.282994,19.8240987 209.735301,19.7021923 210.038362,19.458376 C210.341424,19.2145597 210.492952,18.8921345 210.492952,18.4910909 Z M216.617952,19.8651143 C217.032668,19.8651143 217.37674,19.7443473 217.650179,19.5028096 C217.923617,19.2612719 218.069449,18.9627723 218.087679,18.6073018 L219.653108,18.6073018 C219.634879,19.0675905 219.491326,19.497111 219.222444,19.895876 C218.953563,20.294641 218.588983,20.6102303 218.128694,20.8426534 C217.668405,21.0750764 217.171666,21.1912862 216.63846,21.1912862 C215.603949,21.1912862 214.783645,20.8563286 214.177522,20.1864034 C213.571399,19.5164781 213.268343,18.5913572 213.268343,17.4110127 L213.268343,17.2401143 C213.268343,16.1144576 213.569121,15.2132622 214.170686,14.536501 C214.772252,13.8597398 215.592556,13.5213643 216.631624,13.5213643 C217.511186,13.5213643 218.227813,13.7777094 218.781526,14.2904073 C219.33524,14.8031051 219.625764,15.4764382 219.653108,16.3104268 L218.087679,16.3104268 C218.069449,15.8865965 217.924757,15.5379672 217.653597,15.2645284 C217.382436,14.9910895 217.037225,14.8543721 216.617952,14.8543721 C216.080189,14.8543721 215.665479,15.0491944 215.373811,15.4388448 C215.082143,15.8284951 214.934033,16.4197978 214.929475,17.2127705 L214.929475,17.4793721 C214.929475,18.2814594 215.074168,18.879598 215.363557,19.2738057 C215.652947,19.6680134 216.071074,19.8651143 216.617952,19.8651143 Z M220.596468,17.2879659 C220.596468,16.5633529 220.740021,15.9105273 221.027132,15.3294698 C221.314242,14.7484122 221.717559,14.301802 222.237093,13.989626 C222.756626,13.67745 223.353626,13.5213643 224.028108,13.5213643 C225.02616,13.5213643 225.836211,13.8426501 226.458284,14.4852315 C227.080357,15.1278128 227.416454,15.9800178 227.466585,17.0418721 L227.473421,17.4315205 C227.473421,18.1606909 227.333285,18.812377 227.053011,19.3865987 C226.772736,19.9608203 226.371698,20.4051518 225.849886,20.7196065 C225.328073,21.0340612 224.725377,21.1912862 224.04178,21.1912862 C222.998155,21.1912862 222.16304,20.8437961 221.536409,20.1488057 C220.909778,19.4538152 220.596468,18.527555 220.596468,17.3699971 L220.596468,17.2879659 Z M222.2576,17.4315205 C222.2576,18.1925921 222.414825,18.788452 222.72928,19.2191182 C223.043735,19.6497844 223.48123,19.8651143 224.04178,19.8651143 C224.60233,19.8651143 225.038686,19.6463665 225.350862,19.2088643 C225.663038,18.7713621 225.819124,18.131069 225.819124,17.2879659 C225.819124,16.5405663 225.658481,15.9481243 225.33719,15.5106221 C225.0159,15.0731199 224.579543,14.8543721 224.028108,14.8543721 C223.485788,14.8543721 223.055128,15.069702 222.736116,15.5003682 C222.417104,15.9310344 222.2576,16.5747454 222.2576,17.4315205 Z M232.750764,15.1756612 C232.532013,15.1392026 232.30643,15.1209737 232.074007,15.1209737 C231.312935,15.1209737 230.800245,15.4126374 230.535921,15.9959737 L230.535921,21.0545674 L228.874788,21.0545674 L228.874788,13.658083 L230.460725,13.658083 L230.501741,14.4852315 C230.902785,13.8426501 231.458769,13.5213643 232.16971,13.5213643 C232.40669,13.5213643 232.602652,13.553265 232.7576,13.6170674 L232.750764,15.1756612 Z M237.057405,21.1912862 C236.004665,21.1912862 235.151321,20.8597465 234.497347,20.1966573 C233.843372,19.533568 233.516389,18.6506016 233.516389,17.5477315 L233.516389,17.3426534 C233.516389,16.6043684 233.658803,15.944707 233.943636,15.3636494 C234.228468,14.7825919 234.628366,14.3302852 235.143343,14.0067159 C235.658319,13.6831465 236.232532,13.5213643 236.865999,13.5213643 C237.873165,13.5213643 238.651315,13.8426501 239.200472,14.4852315 C239.749628,15.1278128 240.024202,16.0369834 240.024202,17.2127705 L240.024202,17.8826924 L235.191194,17.8826924 C235.241325,18.4933725 235.445261,18.9764406 235.803011,19.3319112 C236.16076,19.6873817 236.610788,19.8651143 237.153108,19.8651143 C237.91418,19.8651143 238.533965,19.5575002 239.012483,18.9422627 L239.907991,19.7967549 C239.611766,20.2388144 239.216425,20.5817472 238.721956,20.8255635 C238.227487,21.0693798 237.672643,21.1912862 237.057405,21.1912862 Z M236.859163,14.8543721 C236.403431,14.8543721 236.035434,15.0138757 235.755159,15.3328877 C235.474884,15.6518997 235.296012,16.0962312 235.218538,16.6658955 L238.383577,16.6658955 L238.383577,16.5428487 C238.347118,15.9868563 238.199008,15.5664503 237.939241,15.2816182 C237.679474,14.996786 237.319452,14.8543721 236.859163,14.8543721 Z"/>
        <path fill="#4D4D4E" d="M206.600081,50.2490987 C206.600081,51.6541838 206.229479,52.9045619 205.488264,54.0002705 C204.74705,55.0959791 203.744814,55.9531971 202.481526,56.5719502 C203.951065,57.203594 205.114432,58.1252645 205.971663,59.3369893 C206.828894,60.5487141 207.257503,61.9215519 207.257503,63.455544 C207.257503,65.8918843 206.435734,67.8319039 204.792171,69.2756612 C203.148608,70.7194184 200.986227,71.4412862 198.304964,71.4412862 C195.597919,71.4412862 193.429093,70.7161958 191.798421,69.2659932 C190.167749,67.8157906 189.352425,65.8789936 189.352425,63.455544 C189.352425,61.9344426 189.768143,60.5616048 190.599593,59.3369893 C191.431042,58.1123738 192.581519,57.1842581 194.051057,56.5526143 C192.800661,55.9338612 191.814538,55.0766432 191.092659,53.9809346 C190.37078,52.885226 190.009847,51.6412931 190.009847,50.2490987 C190.009847,47.8772118 190.770386,45.9951994 192.291487,44.6030049 C193.812589,43.2108105 195.817061,42.5147237 198.304964,42.5147237 C200.779976,42.5147237 202.781226,43.2108105 204.308772,44.6030049 C205.836319,45.9951994 206.600081,47.8772118 206.600081,50.2490987 Z M203.680354,63.3782002 C203.680354,61.8055361 203.180848,60.5229318 202.181819,59.5303487 C201.182791,58.5377656 199.877628,58.0414815 198.266292,58.0414815 C196.654956,58.0414815 195.362683,58.5313203 194.389436,59.5110127 C193.416189,60.4907051 192.929573,61.7797547 192.929573,63.3782002 C192.929573,64.9766457 193.403299,66.2334691 194.350764,67.148708 C195.29823,68.063947 196.616283,68.5215596 198.304964,68.5215596 C199.980753,68.5215596 201.295584,68.0607244 202.249495,67.1390401 C203.203406,66.2173558 203.680354,64.963755 203.680354,63.3782002 Z M198.304964,45.4537862 C196.899879,45.4537862 195.762292,45.8888404 194.892171,46.7589619 C194.022049,47.6290835 193.586995,48.8117865 193.586995,50.3071065 C193.586995,51.737973 194.015604,52.894895 194.872835,53.7779073 C195.730066,54.6609195 196.874097,55.102419 198.304964,55.102419 C199.73583,55.102419 200.879862,54.6609195 201.737093,53.7779073 C202.594323,52.894895 203.022932,51.737973 203.022932,50.3071065 C203.022932,48.8762399 202.57821,47.70965 201.688753,46.8073018 C200.799295,45.9049535 199.671377,45.4537862 198.304964,45.4537862 Z M229.416487,59.0469502 C229.416487,63.2364243 228.701065,66.3494791 227.270198,68.386208 C225.839332,70.422937 223.60283,71.4412862 220.560628,71.4412862 C217.557097,71.4412862 215.333487,70.4454953 213.889729,68.4538838 C212.445972,66.4622723 211.698323,63.4877903 211.646761,59.5303487 L211.646761,54.7543721 C211.646761,50.6164608 212.362183,47.5420775 213.79305,45.5311299 C215.223916,43.5201824 217.466862,42.5147237 220.521956,42.5147237 C223.551268,42.5147237 225.781324,43.4847335 227.21219,45.4247823 C228.643057,47.364831 229.377815,50.3586487 229.416487,54.4063252 L229.416487,59.0469502 Z M225.839339,54.154958 C225.839339,51.125646 225.413952,48.9181486 224.563167,47.5323994 C223.712381,46.1466503 222.365324,45.4537862 220.521956,45.4537862 C218.691478,45.4537862 217.357312,46.1434277 216.519417,47.5227315 C215.681522,48.9020352 215.24969,51.0225219 215.223909,53.8842549 L215.223909,59.6076924 C215.223909,62.6498951 215.665409,64.8960641 216.548421,66.3462666 C217.431433,67.7964692 218.768822,68.5215596 220.560628,68.5215596 C222.326652,68.5215596 223.63826,67.8383633 224.495491,66.4719502 C225.352722,65.1055371 225.800667,62.9528243 225.839339,60.0137471 L225.839339,54.154958 Z"/>
        <g transform="translate(9 124)">
          <path fill="#2C845A" d="M21.5168778,14.814333 C21.4166169,15.8761873 21.0246937,16.7044668 20.3410965,17.2991963 C19.6574994,17.8939259 18.7483288,18.1912862 17.6135575,18.1912862 C16.8205847,18.1912862 16.1221868,18.0032998 15.5183426,17.6273213 C14.9144985,17.2513429 14.44852,16.7170058 14.1203934,16.024294 C13.7922668,15.3315822 13.62137,14.5272282 13.6076981,13.611208 L13.6076981,12.6815205 C13.6076981,11.7427138 13.7740376,10.9155736 14.1067215,10.2000752 C14.4394055,9.48457686 14.916777,8.93315008 15.5388504,8.54577835 C16.1609239,8.15840662 16.8798294,7.96472366 17.6955887,7.96472366 C18.7939015,7.96472366 19.6780072,8.26322328 20.3479325,8.86023148 C21.0178577,9.45723967 21.4075022,10.3003302 21.5168778,11.3895284 L19.7942215,11.3895284 C19.7121899,10.67403 19.5036959,10.1579219 19.1687332,9.84118851 C18.8337706,9.52445515 18.3427274,9.36609085 17.6955887,9.36609085 C16.9436318,9.36609085 16.3660009,9.64066493 15.9626786,10.1898213 C15.5593562,10.7389777 15.3531408,11.544471 15.3440262,12.6063252 L15.3440262,13.4881612 C15.3440262,14.5636874 15.5365699,15.3839917 15.9216629,15.9490987 C16.306756,16.5142057 16.8707152,16.7967549 17.6135575,16.7967549 C18.2925973,16.7967549 18.8030089,16.6440872 19.1448075,16.3387471 C19.486606,16.033407 19.7030752,15.5252741 19.7942215,14.814333 L21.5168778,14.814333 Z M24.886995,18.0545674 L23.1643387,18.0545674 L23.1643387,8.10144241 L24.886995,8.10144241 L24.886995,18.0545674 Z M28.7424637,14.3563252 L28.7424637,18.0545674 L27.0129715,18.0545674 L27.0129715,8.10144241 L30.8205887,8.10144241 C31.9325734,8.10144241 32.8155399,8.39082754 33.4695145,8.96960648 C34.1234891,9.54838541 34.4504715,10.3140028 34.4504715,11.2664815 C34.4504715,12.2417468 34.130325,13.0005282 33.4900223,13.5428487 C32.8497196,14.0851691 31.9530815,14.3563252 30.8000809,14.3563252 L28.7424637,14.3563252 Z M28.7424637,12.9686299 L30.8205887,12.9686299 C31.4358262,12.9686299 31.9052225,12.8239373 32.2287918,12.5345479 C32.5523612,12.2451584 32.7141434,11.8270311 32.7141434,11.2801534 C32.7141434,10.7423902 32.5500825,10.3128698 32.2219559,9.99157913 C31.8938293,9.67028846 31.4426619,9.50508829 30.8684403,9.49597366 L28.7424637,9.49597366 L28.7424637,12.9686299 Z M41.5325028,15.7371846 L37.677034,15.7371846 L36.8703934,18.0545674 L35.0725418,18.0545674 L38.8323075,8.10144241 L40.3840653,8.10144241 L44.1506668,18.0545674 L42.3459793,18.0545674 L41.5325028,15.7371846 Z M38.1623856,14.3426534 L41.0471512,14.3426534 L39.6047684,10.2137471 L38.1623856,14.3426534 Z M53.9670731,15.4910909 C53.9670731,15.0535887 53.813266,14.7163525 53.5056473,14.4793721 C53.1980286,14.2423917 52.6431839,14.0031363 51.8410965,13.7615987 C51.0390092,13.520061 50.4009947,13.2511835 49.927034,12.954958 C49.0201284,12.3852937 48.5666825,11.6424626 48.5666825,10.7264424 C48.5666825,9.92435507 48.8936649,9.26355439 49.5476395,8.74402054 C50.2016141,8.22448669 51.0504012,7.96472366 52.0940262,7.96472366 C52.786738,7.96472366 53.4042449,8.09232655 53.9465653,8.34753616 C54.4888857,8.60274577 54.9149882,8.96618615 55.2248856,9.43786819 C55.534783,9.90955024 55.6897293,10.4324942 55.6897293,11.0067159 L53.9670731,11.0067159 C53.9670731,10.487182 53.8041515,10.0804478 53.4783036,9.78650101 C53.1524556,9.49255422 52.6864772,9.34558304 52.0803543,9.34558304 C51.5152473,9.34558304 51.0766124,9.46635006 50.7644364,9.70788773 C50.4522603,9.94942539 50.2961746,10.2866616 50.2961746,10.7196065 C50.2961746,11.0841916 50.4647928,11.3883878 50.802034,11.6322041 C51.1392753,11.8760205 51.6952593,12.1129973 52.4700028,12.3431416 C53.2447462,12.573286 53.8668103,12.8353277 54.3362137,13.1292744 C54.8056171,13.4232212 55.1496892,13.7604574 55.3684403,14.1409932 C55.5871914,14.521529 55.6965653,14.9669998 55.6965653,15.477419 C55.6965653,16.3068502 55.3786974,16.9665116 54.742952,17.4564229 C54.1072066,17.9463342 53.2447478,18.1912862 52.1555496,18.1912862 C51.435494,18.1912862 50.773554,18.0579867 50.1697098,17.7913838 C49.5658656,17.5247809 49.0964693,17.1567833 48.7615067,16.6873799 C48.4265441,16.2179765 48.2590653,15.671107 48.2590653,15.0467549 L49.9885575,15.0467549 C49.9885575,15.6118619 50.1754046,16.0493575 50.5491043,16.3592549 C50.9228041,16.6691523 51.4582805,16.8240987 52.1555496,16.8240987 C52.7571152,16.8240987 53.2094218,16.7021923 53.5124832,16.458376 C53.8155447,16.2145597 53.9670731,15.8921345 53.9670731,15.4910909 Z M60.0920731,16.8651143 C60.5067887,16.8651143 60.8508608,16.7443473 61.1242996,16.5028096 C61.3977385,16.2612719 61.5435704,15.9627723 61.5617996,15.6073018 L63.1272293,15.6073018 C63.1090001,16.0675905 62.9654468,16.497111 62.6965653,16.895876 C62.4276837,17.294641 62.063104,17.6102303 61.6028153,17.8426534 C61.1425265,18.0750764 60.6457867,18.1912862 60.1125809,18.1912862 C59.0780705,18.1912862 58.2577662,17.8563286 57.6516434,17.1864034 C57.0455206,16.5164781 56.7424637,15.5913572 56.7424637,14.4110127 L56.7424637,14.2401143 C56.7424637,13.1144576 57.043242,12.2132622 57.6448075,11.536501 C58.246373,10.8597398 59.0666773,10.5213643 60.105745,10.5213643 C60.9853067,10.5213643 61.7019336,10.7777094 62.2556473,11.2904073 C62.809361,11.8031051 63.0998854,12.4764382 63.1272293,13.3104268 L61.5617996,13.3104268 C61.5435704,12.8865965 61.3988778,12.5379672 61.1277176,12.2645284 C60.8565574,11.9910895 60.511346,11.8543721 60.0920731,11.8543721 C59.55431,11.8543721 59.1396006,12.0491944 58.8479325,12.4388448 C58.5562643,12.8284951 58.4081538,13.4197978 58.4035965,14.2127705 L58.4035965,14.4793721 C58.4035965,15.2814594 58.5482891,15.879598 58.8376786,16.2738057 C59.127068,16.6680134 59.5451954,16.8651143 60.0920731,16.8651143 Z M64.0705887,14.2879659 C64.0705887,13.5633529 64.214142,12.9105273 64.5012528,12.3294698 C64.7883636,11.7484122 65.1916799,11.301802 65.7112137,10.989626 C66.2307476,10.67745 66.8277468,10.5213643 67.5022293,10.5213643 C68.5002812,10.5213643 69.3103317,10.8426501 69.9324051,11.4852315 C70.5544785,12.1278128 70.8905754,12.9800178 70.9407059,14.0418721 L70.9475418,14.4315205 C70.9475418,15.1606909 70.8074065,15.812377 70.5271317,16.3865987 C70.2468568,16.9608203 69.8458192,17.4051518 69.3240067,17.7196065 C68.8021942,18.0340612 68.1994984,18.1912862 67.5159012,18.1912862 C66.4722762,18.1912862 65.6371609,17.8437961 65.0105301,17.1488057 C64.3838994,16.4538152 64.0705887,15.527555 64.0705887,14.3699971 L64.0705887,14.2879659 Z M65.7317215,14.4315205 C65.7317215,15.1925921 65.8889465,15.788452 66.2034012,16.2191182 C66.5178559,16.6497844 66.9553515,16.8651143 67.5159012,16.8651143 C68.0764509,16.8651143 68.5128072,16.6463665 68.8249832,16.2088643 C69.1371593,15.7713621 69.293245,15.131069 69.293245,14.2879659 C69.293245,13.5405663 69.132602,12.9481243 68.8113114,12.5106221 C68.4900207,12.0731199 68.0536644,11.8543721 67.5022293,11.8543721 C66.9599089,11.8543721 66.5292492,12.069702 66.2102371,12.5003682 C65.8912251,12.9310344 65.7317215,13.5747454 65.7317215,14.4315205 Z M76.2248856,12.1756612 C76.0061345,12.1392026 75.7805508,12.1209737 75.5481278,12.1209737 C74.7870563,12.1209737 74.2743661,12.4126374 74.0100418,12.9959737 L74.0100418,18.0545674 L72.348909,18.0545674 L72.348909,10.658083 L73.9348465,10.658083 L73.9758621,11.4852315 C74.3769058,10.8426501 74.9328898,10.5213643 75.6438309,10.5213643 C75.8808113,10.5213643 76.0767728,10.553265 76.2317215,10.6170674 L76.2248856,12.1756612 Z M80.5315262,18.1912862 C79.4787866,18.1912862 78.6254422,17.8597465 77.9714676,17.1966573 C77.317493,16.533568 76.9905106,15.6506016 76.9905106,14.5477315 L76.9905106,14.3426534 C76.9905106,13.6043684 77.1329245,12.944707 77.4177567,12.3636494 C77.7025888,11.7825919 78.1024872,11.3302852 78.6174637,11.0067159 C79.1324402,10.6831465 79.7066533,10.5213643 80.34012,10.5213643 C81.3472865,10.5213643 82.1254362,10.8426501 82.6745926,11.4852315 C83.223749,12.1278128 83.4983231,13.0369834 83.4983231,14.2127705 L83.4983231,14.8826924 L78.6653153,14.8826924 C78.7154457,15.4933725 78.9193825,15.9764406 79.2771317,16.3319112 C79.6348809,16.6873817 80.0849089,16.8651143 80.6272293,16.8651143 C81.3883008,16.8651143 82.0080863,16.5575002 82.4866043,15.9422627 L83.3821121,16.7967549 C83.0858867,17.2388144 82.6905456,17.5817472 82.196077,17.8255635 C81.7016084,18.0693798 81.1467637,18.1912862 80.5315262,18.1912862 Z M80.333284,11.8543721 C79.8775526,11.8543721 79.509555,12.0138757 79.2292801,12.3328877 C78.9490053,12.6518997 78.7701334,13.0962312 78.692659,13.6658955 L81.8576981,13.6658955 L81.8576981,13.5428487 C81.8212396,12.9868563 81.6731291,12.5664503 81.4133621,12.2816182 C81.1535952,11.996786 80.7935728,11.8543721 80.333284,11.8543721 Z"/>
          <path fill="#4D4D4E" d="M46.8877366,40.8578125 L35.2281663,67 L31.4769944,67 L43.0978928,41.7859375 L27.8611741,41.7859375 L27.8611741,38.846875 L46.8877366,38.846875 L46.8877366,40.8578125 Z M69.3947678,67 L50.9482835,67 L50.9482835,64.4283203 L60.693596,53.6001953 C62.1373532,51.9630778 63.133144,50.632134 63.6809983,49.6073242 C64.2288526,48.5825144 64.5027756,47.5222711 64.5027756,46.4265625 C64.5027756,44.9570239 64.0580535,43.7517625 63.168596,42.8107422 C62.2791384,41.8697219 61.0932127,41.3992187 59.6107835,41.3992188 C57.8318683,41.3992187 56.4493626,41.9051707 55.4632249,42.9170898 C54.4770871,43.929009 53.9840256,45.3372957 53.9840256,47.1419922 L50.4068772,47.1419922 C50.4068772,44.5509636 51.2415368,42.456258 52.9108811,40.8578125 C54.5802254,39.259367 56.8135038,38.4601563 59.6107835,38.4601562 C62.2275934,38.4601563 64.296518,39.1465752 65.8176194,40.5194336 C67.3387208,41.892292 68.09926,43.7195198 68.09926,46.0011719 C68.09926,48.7726701 66.3332621,52.0726371 62.8012131,55.9011719 L55.2601975,64.0802734 L69.3947678,64.0802734 L69.3947678,67 Z"/>
        </g>
        <g transform="translate(161 123)">
          <path fill="#C35252" d="M15.6892411,13.3377705 C15.6892411,14.2811346 15.5399912,15.098021 15.2414871,15.7884541 C14.9429831,16.4788873 14.5248557,17.0268961 13.9870926,17.4324971 L15.696077,18.7655049 L14.5749832,19.7772237 L12.4558426,18.102419 C12.1778464,18.1616641 11.8793468,18.1912862 11.5603348,18.1912862 C10.7582475,18.1912862 10.0416205,17.9941853 9.41043246,17.5999776 C8.77924441,17.2057699 8.29161908,16.6440893 7.94754184,15.914919 C7.6034646,15.1857487 7.42914993,14.3449368 7.42459262,13.392458 L7.42459262,12.8319112 C7.42459262,11.8612032 7.59662866,11.0044409 7.9407059,10.2615987 C8.28478314,9.51875641 8.77012985,8.95023996 9.39676059,8.55603226 C10.0233913,8.16182456 10.7400183,7.96472366 11.5466629,7.96472366 C12.3669795,7.96472366 13.0904423,8.15954593 13.7170731,8.54919632 C14.3437038,8.93884671 14.8279112,9.49938797 15.1697098,10.2308369 C15.5115084,10.9622859 15.6846837,11.8133516 15.6892411,12.7840596 L15.6892411,13.3377705 Z M13.9529129,12.8182393 C13.9529129,11.6971399 13.7432796,10.8472135 13.3240067,10.2684346 C12.9047338,9.68965567 12.3122918,9.40027054 11.5466629,9.40027054 C10.8038207,9.40027054 10.2216325,9.6930736 9.8000809,10.2786885 C9.37852931,10.8643034 9.16319943,11.6903043 9.15408481,12.7567159 L9.15408481,13.3377705 C9.15408481,14.4132967 9.36485744,15.2541087 9.78640902,15.8602315 C10.2079606,16.4663543 10.7992633,16.7694112 11.5603348,16.7694112 C12.3305209,16.7694112 12.9218236,16.4777474 13.3342606,15.8944112 C13.7466975,15.3110749 13.9529129,14.4588699 13.9529129,13.3377705 L13.9529129,12.8182393 Z M21.7663895,17.329958 C21.2787568,17.9041797 20.5860554,18.1912862 19.6882645,18.1912862 C18.8861771,18.1912862 18.2789241,17.956588 17.8664871,17.4871846 C17.4540502,17.0177812 17.2478348,16.3387515 17.2478348,15.4500752 L17.2478348,10.658083 L18.9089676,10.658083 L18.9089676,15.4295674 C18.9089676,16.3683742 19.2986122,16.8377705 20.0779129,16.8377705 C20.8845576,16.8377705 21.4291485,16.5483854 21.711702,15.9696065 L21.711702,10.658083 L23.3728348,10.658083 L23.3728348,18.0545674 L21.8074051,18.0545674 L21.7663895,17.329958 Z M29.4841629,18.0545674 C29.4112459,17.9132907 29.3474445,17.6831497 29.2927567,17.3641377 C28.7641082,17.9155728 28.1169793,18.1912862 27.3513504,18.1912862 C26.6085082,18.1912862 26.0023944,17.9793742 25.5329911,17.555544 C25.0635877,17.1317137 24.8288895,16.6076304 24.8288895,15.9832784 C24.8288895,15.194863 25.1216926,14.5898885 25.7073075,14.1683369 C26.2929224,13.7467854 27.1303163,13.5360127 28.2195145,13.5360127 L29.2380692,13.5360127 L29.2380692,13.0506612 C29.2380692,12.6678467 29.1309739,12.3613719 28.9167801,12.1312276 C28.7025863,11.9010832 28.3767432,11.7860127 27.9392411,11.7860127 C27.560984,11.7860127 27.2510912,11.8805756 27.0095536,12.0697041 C26.7680159,12.2588327 26.6472489,12.4992274 26.6472489,12.7908955 L24.9861161,12.7908955 C24.9861161,12.3852946 25.1205548,12.0059038 25.3894364,11.6527119 C25.6583179,11.2995201 26.0240369,11.0226674 26.4866043,10.8221455 C26.9491718,10.6216237 27.4652799,10.5213643 28.0349442,10.5213643 C28.9008339,10.5213643 29.5912567,10.7389728 30.1062332,11.1741963 C30.6212098,11.6094198 30.88553,12.2212301 30.899202,13.0096455 L30.899202,16.345583 C30.899202,17.0109509 30.9926255,17.5418701 31.1794754,17.9383565 L31.1794754,18.0545674 L29.4841629,18.0545674 Z M27.6589676,16.8582784 C27.9870943,16.8582784 28.2958477,16.7785265 28.5852371,16.6190205 C28.8746266,16.4595145 29.0922351,16.245324 29.2380692,15.9764424 L29.2380692,14.5819112 L28.3425614,14.5819112 C27.7273239,14.5819112 27.2647634,14.6890064 26.9548661,14.9032002 C26.6449687,15.117394 26.4900223,15.4204509 26.4900223,15.8123799 C26.4900223,16.1313919 26.5959783,16.3854584 26.8078934,16.5745869 C27.0198085,16.7637155 27.3034971,16.8582784 27.6589676,16.8582784 Z M34.4060379,18.0545674 L32.7449051,18.0545674 L32.7449051,7.55456741 L34.4060379,7.55456741 L34.4060379,18.0545674 Z M37.9812332,18.0545674 L36.3201004,18.0545674 L36.3201004,10.658083 L37.9812332,10.658083 L37.9812332,18.0545674 Z M36.2175614,8.7371846 C36.2175614,8.48197499 36.2984525,8.27006305 36.4602371,8.10144241 C36.6220218,7.93282178 36.8533021,7.84851273 37.1540848,7.84851273 C37.4548676,7.84851273 37.6872871,7.93282178 37.8513504,8.10144241 C38.0154138,8.27006305 38.0974442,8.48197499 38.0974442,8.7371846 C38.0974442,8.9878369 38.0154138,9.1963309 37.8513504,9.36267288 C37.6872871,9.52901486 37.4548676,9.6121846 37.1540848,9.6121846 C36.8533021,9.6121846 36.6220218,9.52901486 36.4602371,9.36267288 C36.2984525,9.1963309 36.2175614,8.9878369 36.2175614,8.7371846 Z M41.8708817,8.86023148 L41.8708817,10.658083 L43.1765457,10.658083 L43.1765457,11.8885518 L41.8708817,11.8885518 L41.8708817,16.017458 C41.8708817,16.3000115 41.9267079,16.5039483 42.0383621,16.6292744 C42.1500164,16.7546006 42.3493959,16.8172627 42.6365067,16.8172627 C42.8279139,16.8172627 43.0215968,16.7944765 43.2175614,16.7489034 L43.2175614,18.0340596 C42.8393043,18.1388778 42.4747246,18.1912862 42.1238114,18.1912862 C40.8477633,18.1912862 40.2097489,17.4871916 40.2097489,16.0789815 L40.2097489,11.8885518 L38.992952,11.8885518 L38.992952,10.658083 L40.2097489,10.658083 L40.2097489,8.86023148 L41.8708817,8.86023148 Z M47.0320145,15.6756612 L48.5359207,10.658083 L50.3064286,10.658083 L47.3669754,19.1756612 C46.9158013,20.419808 46.150184,21.0418721 45.0701004,21.0418721 C44.8285628,21.0418721 44.5619639,21.0008569 44.2702957,20.9188252 L44.2702957,19.633669 L44.5847489,19.6541768 C45.0040218,19.6541768 45.3196111,19.5778429 45.5315262,19.4251729 C45.7434413,19.2725028 45.9109201,19.0161578 46.0339676,18.6561299 L46.2732254,18.0203877 L43.6755692,10.658083 L45.4665848,10.658083 L47.0320145,15.6756612 Z M60.1091629,15.4910909 C60.1091629,15.0535887 59.9553559,14.7163525 59.6477371,14.4793721 C59.3401184,14.2423917 58.7852737,14.0031363 57.9831864,13.7615987 C57.181099,13.520061 56.5430846,13.2511835 56.0691239,12.954958 C55.1622183,12.3852937 54.7087723,11.6424626 54.7087723,10.7264424 C54.7087723,9.92435507 55.0357547,9.26355439 55.6897293,8.74402054 C56.343704,8.22448669 57.192491,7.96472366 58.2361161,7.96472366 C58.9288279,7.96472366 59.5463347,8.09232655 60.0886551,8.34753616 C60.6309755,8.60274577 61.057078,8.96618615 61.3669754,9.43786819 C61.6768728,9.90955024 61.8318192,10.4324942 61.8318192,11.0067159 L60.1091629,11.0067159 C60.1091629,10.487182 59.9462414,10.0804478 59.6203934,9.78650101 C59.2945454,9.49255422 58.828567,9.34558304 58.2224442,9.34558304 C57.6573372,9.34558304 57.2187023,9.46635006 56.9065262,9.70788773 C56.5943502,9.94942539 56.4382645,10.2866616 56.4382645,10.7196065 C56.4382645,11.0841916 56.6068826,11.3883878 56.9441239,11.6322041 C57.2813651,11.8760205 57.8373492,12.1129973 58.6120926,12.3431416 C59.3868361,12.573286 60.0089002,12.8353277 60.4783036,13.1292744 C60.9477069,13.4232212 61.291779,13.7604574 61.5105301,14.1409932 C61.7292812,14.521529 61.8386551,14.9669998 61.8386551,15.477419 C61.8386551,16.3068502 61.5207872,16.9665116 60.8850418,17.4564229 C60.2492965,17.9463342 59.3868376,18.1912862 58.2976395,18.1912862 C57.5775838,18.1912862 56.9156438,18.0579867 56.3117996,17.7913838 C55.7079555,17.5247809 55.2385591,17.1567833 54.9035965,16.6873799 C54.5686339,16.2179765 54.4011551,15.671107 54.4011551,15.0467549 L56.1306473,15.0467549 C56.1306473,15.6118619 56.3174944,16.0493575 56.6911942,16.3592549 C57.064894,16.6691523 57.6003704,16.8240987 58.2976395,16.8240987 C58.899205,16.8240987 59.3515117,16.7021923 59.6545731,16.458376 C59.9576345,16.2145597 60.1091629,15.8921345 60.1091629,15.4910909 Z M66.2341629,16.8651143 C66.6488785,16.8651143 66.9929506,16.7443473 67.2663895,16.5028096 C67.5398284,16.2612719 67.6856602,15.9627723 67.7038895,15.6073018 L69.2693192,15.6073018 C69.2510899,16.0675905 69.1075367,16.497111 68.8386551,16.895876 C68.5697736,17.294641 68.2051939,17.6102303 67.7449051,17.8426534 C67.2846164,18.0750764 66.7878765,18.1912862 66.2546707,18.1912862 C65.2201604,18.1912862 64.3998561,17.8563286 63.7937332,17.1864034 C63.1876104,16.5164781 62.8845536,15.5913572 62.8845536,14.4110127 L62.8845536,14.2401143 C62.8845536,13.1144576 63.1853318,12.2132622 63.7868973,11.536501 C64.3884628,10.8597398 65.2087671,10.5213643 66.2478348,10.5213643 C67.1273965,10.5213643 67.8440234,10.7777094 68.3977371,11.2904073 C68.9514509,11.8031051 69.2419753,12.4764382 69.2693192,13.3104268 L67.7038895,13.3104268 C67.6856602,12.8865965 67.5409677,12.5379672 67.2698075,12.2645284 C66.9986473,11.9910895 66.6534359,11.8543721 66.2341629,11.8543721 C65.6963998,11.8543721 65.2816904,12.0491944 64.9900223,12.4388448 C64.6983542,12.8284951 64.5502437,13.4197978 64.5456864,14.2127705 L64.5456864,14.4793721 C64.5456864,15.2814594 64.6903789,15.879598 64.9797684,16.2738057 C65.2691579,16.6680134 65.6872852,16.8651143 66.2341629,16.8651143 Z M70.2126786,14.2879659 C70.2126786,13.5633529 70.3562318,12.9105273 70.6433426,12.3294698 C70.9304534,11.7484122 71.3337697,11.301802 71.8533036,10.989626 C72.3728374,10.67745 72.9698366,10.5213643 73.6443192,10.5213643 C74.642371,10.5213643 75.4524215,10.8426501 76.074495,11.4852315 C76.6965684,12.1278128 77.0326653,12.9800178 77.0827957,14.0418721 L77.0896317,14.4315205 C77.0896317,15.1606909 76.9494964,15.812377 76.6692215,16.3865987 C76.3889467,16.9608203 75.987909,17.4051518 75.4660965,17.7196065 C74.944284,18.0340612 74.3415882,18.1912862 73.6579911,18.1912862 C72.614366,18.1912862 71.7792507,17.8437961 71.15262,17.1488057 C70.5259892,16.4538152 70.2126786,15.527555 70.2126786,14.3699971 L70.2126786,14.2879659 Z M71.8738114,14.4315205 C71.8738114,15.1925921 72.0310364,15.788452 72.3454911,16.2191182 C72.6599458,16.6497844 73.0974414,16.8651143 73.6579911,16.8651143 C74.2185407,16.8651143 74.654897,16.6463665 74.9670731,16.2088643 C75.2792491,15.7713621 75.4353348,15.131069 75.4353348,14.2879659 C75.4353348,13.5405663 75.2746919,12.9481243 74.9534012,12.5106221 C74.6321105,12.0731199 74.1957542,11.8543721 73.6443192,11.8543721 C73.1019988,11.8543721 72.671339,12.069702 72.352327,12.5003682 C72.033315,12.9310344 71.8738114,13.5747454 71.8738114,14.4315205 Z M82.3669754,12.1756612 C82.1482243,12.1392026 81.9226407,12.1209737 81.6902176,12.1209737 C80.9291461,12.1209737 80.4164559,12.4126374 80.1521317,12.9959737 L80.1521317,18.0545674 L78.4909989,18.0545674 L78.4909989,10.658083 L80.0769364,10.658083 L80.117952,11.4852315 C80.5189957,10.8426501 81.0749797,10.5213643 81.7859207,10.5213643 C82.0229011,10.5213643 82.2188627,10.553265 82.3738114,10.6170674 L82.3669754,12.1756612 Z M86.6736161,18.1912862 C85.6208764,18.1912862 84.7675321,17.8597465 84.1135575,17.1966573 C83.4595828,16.533568 83.1326004,15.6506016 83.1326004,14.5477315 L83.1326004,14.3426534 C83.1326004,13.6043684 83.2750144,12.944707 83.5598465,12.3636494 C83.8446787,11.7825919 84.244577,11.3302852 84.7595536,11.0067159 C85.2745301,10.6831465 85.8487431,10.5213643 86.4822098,10.5213643 C87.4893763,10.5213643 88.2675261,10.8426501 88.8166825,11.4852315 C89.3658389,12.1278128 89.6404129,13.0369834 89.6404129,14.2127705 L89.6404129,14.8826924 L84.8074051,14.8826924 C84.8575356,15.4933725 85.0614723,15.9764406 85.4192215,16.3319112 C85.7769707,16.6873817 86.2269988,16.8651143 86.7693192,16.8651143 C87.5303907,16.8651143 88.1501762,16.5575002 88.6286942,15.9422627 L89.524202,16.7967549 C89.2279766,17.2388144 88.8326355,17.5817472 88.3381668,17.8255635 C87.8436982,18.0693798 87.2888535,18.1912862 86.6736161,18.1912862 Z M86.4753739,11.8543721 C86.0196424,11.8543721 85.6516448,12.0138757 85.37137,12.3328877 C85.0910951,12.6518997 84.9122232,13.0962312 84.8347489,13.6658955 L87.9997879,13.6658955 L87.9997879,13.5428487 C87.9633294,12.9868563 87.8152189,12.5664503 87.555452,12.2816182 C87.2956851,11.996786 86.9356626,11.8543721 86.4753739,11.8543721 Z"/>
          <path fill="#4D4D4E" d="M30.35551,53.8847656 L31.7863694,39.846875 L46.2109788,39.846875 L46.2109788,43.1533203 L34.8221116,43.1533203 L33.9713303,50.8296875 C35.3506341,50.0175741 36.9168294,49.6115234 38.6699631,49.6115234 C41.2352103,49.6115234 43.2719087,50.4590736 44.7801194,52.1541992 C46.2883301,53.8493249 47.0424241,56.1406106 47.0424241,59.028125 C47.0424241,61.9285301 46.2593264,64.2133706 44.6931077,65.8827148 C43.1268889,67.5520591 40.9387272,68.3867188 38.1285569,68.3867188 C35.6406538,68.3867188 33.6104007,67.6970772 32.0377366,66.3177734 C30.4650725,64.9384697 29.569183,63.0306762 29.3500413,60.5943359 L32.7338303,60.5943359 C32.9529721,62.2056721 33.5265991,63.4206014 34.4547288,64.2391602 C35.3828584,65.0577189 36.6074555,65.4669922 38.1285569,65.4669922 C39.7914558,65.4669922 41.0966186,64.8998104 42.0440842,63.7654297 C42.9915499,62.631049 43.4652756,61.0648537 43.4652756,59.0667969 C43.4652756,57.1847562 42.9528784,55.6733455 41.9280686,54.5325195 C40.9032588,53.3916935 39.5400888,52.8212891 37.8385178,52.8212891 C36.2787444,52.8212891 35.0541473,53.1628872 34.1646897,53.8460938 L33.2172288,54.6195313 L30.35551,53.8847656 Z M68.6019944,55.9923828 C68.6019944,60.1818569 67.8865719,63.2949117 66.4557053,65.3316406 C65.0248388,67.3683696 62.7883377,68.3867188 59.746135,68.3867188 C56.7426044,68.3867188 54.5189938,67.3909279 53.0752366,65.3993164 C51.6314794,63.4077049 50.8838306,60.4332229 50.8322678,56.4757812 L50.8322678,51.6998047 C50.8322678,47.5618934 51.5476904,44.4875101 52.9785569,42.4765625 C54.4094234,40.4656149 56.6523697,39.4601563 59.7074631,39.4601562 C62.7367752,39.4601563 64.966831,40.4301661 66.3976975,42.3702148 C67.828564,44.3102636 68.5633223,47.3040813 68.6019944,51.3517578 L68.6019944,55.9923828 Z M65.024846,51.1003906 C65.024846,48.0710786 64.5994596,45.8635811 63.7486741,44.477832 C62.8978886,43.0920829 61.5508317,42.3992187 59.7074631,42.3992188 C57.8769852,42.3992187 56.5428189,43.0888603 55.7049241,44.4681641 C54.8670293,45.8474678 54.4351976,47.9679544 54.4094163,50.8296875 L54.4094163,56.553125 C54.4094163,59.5953277 54.8509158,61.8414967 55.733928,63.2916992 C56.6169402,64.7419018 57.9543292,65.4669922 59.746135,65.4669922 C61.5121595,65.4669922 62.8237675,64.7837959 63.6809983,63.4173828 C64.5382292,62.0509697 64.9861739,59.8982569 65.024846,56.9591797 L65.024846,51.1003906 Z"/>
        </g>
        <path stroke="#E0E0E0" stroke-linecap="square" d="M133.5.5L133.5 207.5M.5 100.5L265.516981 100.5"/>
      </g>
      <rect width="103" height="4" x="204" y="60" fill="#FFF"/>
    </g>
    <g transform="translate(0 2)">
      <path fill="#E8E8E8" d="M10.2555408,-4.14336123e-16 L1172.74446,4.14336123e-16 C1176.31053,-2.4074122e-16 1177.60368,0.371302445 1178.90738,1.06853082 C1180.21109,1.76575919 1181.23424,2.78891348 1181.93147,4.09261719 C1182.6287,5.39632089 1183,6.68946584 1183,10.2555408 L1183,56 L0,56 L-1.50013276e-15,10.2555408 C-1.93685099e-15,6.68946584 0.371302445,5.39632089 1.06853082,4.09261719 C1.76575919,2.78891348 2.78891348,1.76575919 4.09261719,1.06853082 C5.39632089,0.371302445 6.68946584,2.4074122e-16 10.2555408,-4.14336123e-16 Z"/>
      <rect width="12" height="12" x="60" y="22" fill="#28CA42" rx="6"/>
      <rect width="12" height="12" x="42" y="22" fill="#FFBE2F" rx="6"/>
      <rect width="12" height="12" x="24" y="22" fill="#FF5F57" rx="6"/>
      <path fill="#B3B3B3" d="M1135,34 L1159,34 L1159,38 L1135,38 L1135,34 Z M1135,26 L1159,26 L1159,30 L1135,30 L1135,26 Z M1135,18 L1159,18 L1159,22 L1135,22 L1135,18 Z"/>
      <g transform="translate(120 14)">
        <use fill="#FFF" xlink:href="#dashboard-m"/>
        <use fill="#000" filter="url(#dashboard-n)" xlink:href="#dashboard-m"/>
        <text fill="#000" font-family="ArialMT, Arial" font-size="16">
          <tspan x="75" y="20">mipsight.com</tspan>
        </text>
        <text fill="gray" font-family="ArialMT, Arial" font-size="16">
          <tspan x="61" y="20">://</tspan>
        </text>
        <text fill="#088043" font-family="ArialMT, Arial" font-size="16">
          <tspan x="26" y="20">https</tspan>
        </text>
        <path fill="#088043" d="M14.9298246,12.0178571 L14.9298246,10.8660714 C14.9298246,10.3839262 14.739768,9.96875174 14.3596491,9.62053571 C13.9795303,9.27231969 13.5263184,9.09821429 13,9.09821429 C12.4736816,9.09821429 12.0204697,9.27231969 11.6403509,9.62053571 C11.260232,9.96875174 11.0701754,10.3839262 11.0701754,10.8660714 L11.0701754,12.0178571 L14.9298246,12.0178571 Z M16.7426901,12.0178571 C17.0740757,12.0178571 17.3664705,12.1294632 17.619883,12.3526786 C17.8732956,12.575894 18,12.8392842 18,13.1428571 L18,18.875 C18,19.1785729 17.8732956,19.4419632 17.619883,19.6651786 C17.3664705,19.888394 17.0740757,20 16.7426901,20 L9.25730994,20 C8.92592427,20 8.63352953,19.888394 8.38011696,19.6651786 C8.12670439,19.4419632 8,19.1785729 8,18.875 L8,13.1428571 C8,12.8392842 8.12670439,12.575894 8.38011696,12.3526786 C8.63352953,12.1294632 8.92592427,12.0178571 9.25730994,12.0178571 L9.87134503,12.0178571 L9.87134503,10.8660714 C9.87134503,10.0803532 10.1783595,9.40625281 10.7923977,8.84375 C11.4064358,8.28124719 12.1422959,8 13,8 C13.8577041,8 14.5935642,8.28124719 15.2076023,8.84375 C15.8216405,9.40625281 16.128655,10.0803532 16.128655,10.8660714 L16.128655,12.0178571 L16.7426901,12.0178571 Z"/>
      </g>
    </g>
  </g>
</svg>
