<svg xmlns="http://www.w3.org/2000/svg" xmlns:xlink="http://www.w3.org/1999/xlink" width="1183" height="1173" viewBox="0 0 1183 1173">
  <defs>
    <circle id="dashboard2-a" cx="13" cy="13" r="13"/>
    <rect id="dashboard2-c" width="1076.457" height="398.258" y=".742" rx="2"/>
    <filter id="dashboard2-b" width="103.9%" height="110.5%" x="-2%" y="-4.3%" filterUnits="objectBoundingBox">
      <feOffset dy="2" in="SourceAlpha" result="shadowOffsetOuter1"/>
      <feGaussianBlur in="shadowOffsetOuter1" result="shadowBlurOuter1" stdDeviation="5"/>
      <feColorMatrix in="shadowBlurOuter1" result="shadowMatrixOuter1" values="0 0 0 0 0   0 0 0 0 0   0 0 0 0 0  0 0 0 0.16 0"/>
      <feOffset dy="2" in="SourceAlpha" result="shadowOffsetOuter2"/>
      <feGaussianBlur in="shadowOffsetOuter2" result="shadowBlurOuter2" stdDeviation="2.5"/>
      <feColorMatrix in="shadowBlurOuter2" result="shadowMatrixOuter2" values="0 0 0 0 0   0 0 0 0 0   0 0 0 0 0  0 0 0 0.26 0"/>
      <feMerge>
        <feMergeNode in="shadowMatrixOuter1"/>
        <feMergeNode in="shadowMatrixOuter2"/>
      </feMerge>
    </filter>
    <radialGradient id="dashboard2-d" cy="0%" r="14958.984%" fx="50%" fy="0%" gradientTransform="matrix(0 1 -.0022 0 .5 -.5)">
      <stop offset="0%" stop-color="#F5F7F8"/>
      <stop offset="100%" stop-color="#E7EBEF"/>
    </radialGradient>
    <rect id="dashboard2-f" width="249.458" height="190.75" rx="2"/>
    <filter id="dashboard2-e" width="116.8%" height="122%" x="-8.4%" y="-8.9%" filterUnits="objectBoundingBox">
      <feOffset dy="2" in="SourceAlpha" result="shadowOffsetOuter1"/>
      <feGaussianBlur in="shadowOffsetOuter1" result="shadowBlurOuter1" stdDeviation="5"/>
      <feColorMatrix in="shadowBlurOuter1" result="shadowMatrixOuter1" values="0 0 0 0 0   0 0 0 0 0   0 0 0 0 0  0 0 0 0.16 0"/>
      <feOffset dy="2" in="SourceAlpha" result="shadowOffsetOuter2"/>
      <feGaussianBlur in="shadowOffsetOuter2" result="shadowBlurOuter2" stdDeviation="2.5"/>
      <feColorMatrix in="shadowBlurOuter2" result="shadowMatrixOuter2" values="0 0 0 0 0   0 0 0 0 0   0 0 0 0 0  0 0 0 0.26 0"/>
      <feMerge>
        <feMergeNode in="shadowMatrixOuter1"/>
        <feMergeNode in="shadowMatrixOuter2"/>
      </feMerge>
    </filter>
    <rect id="dashboard2-h" width="249.458" height="190.75" rx="2"/>
    <filter id="dashboard2-g" width="116.8%" height="122%" x="-8.4%" y="-8.9%" filterUnits="objectBoundingBox">
      <feOffset dy="2" in="SourceAlpha" result="shadowOffsetOuter1"/>
      <feGaussianBlur in="shadowOffsetOuter1" result="shadowBlurOuter1" stdDeviation="5"/>
      <feColorMatrix in="shadowBlurOuter1" result="shadowMatrixOuter1" values="0 0 0 0 0   0 0 0 0 0   0 0 0 0 0  0 0 0 0.16 0"/>
      <feOffset dy="2" in="SourceAlpha" result="shadowOffsetOuter2"/>
      <feGaussianBlur in="shadowOffsetOuter2" result="shadowBlurOuter2" stdDeviation="2.5"/>
      <feColorMatrix in="shadowBlurOuter2" result="shadowMatrixOuter2" values="0 0 0 0 0   0 0 0 0 0   0 0 0 0 0  0 0 0 0.26 0"/>
      <feMerge>
        <feMergeNode in="shadowMatrixOuter1"/>
        <feMergeNode in="shadowMatrixOuter2"/>
      </feMerge>
    </filter>
    <rect id="dashboard2-j" width="249.458" height="190.75" rx="2"/>
    <filter id="dashboard2-i" width="116.8%" height="122%" x="-8.4%" y="-8.9%" filterUnits="objectBoundingBox">
      <feOffset dy="2" in="SourceAlpha" result="shadowOffsetOuter1"/>
      <feGaussianBlur in="shadowOffsetOuter1" result="shadowBlurOuter1" stdDeviation="5"/>
      <feColorMatrix in="shadowBlurOuter1" result="shadowMatrixOuter1" values="0 0 0 0 0   0 0 0 0 0   0 0 0 0 0  0 0 0 0.16 0"/>
      <feOffset dy="2" in="SourceAlpha" result="shadowOffsetOuter2"/>
      <feGaussianBlur in="shadowOffsetOuter2" result="shadowBlurOuter2" stdDeviation="2.5"/>
      <feColorMatrix in="shadowBlurOuter2" result="shadowMatrixOuter2" values="0 0 0 0 0   0 0 0 0 0   0 0 0 0 0  0 0 0 0.26 0"/>
      <feMerge>
        <feMergeNode in="shadowMatrixOuter1"/>
        <feMergeNode in="shadowMatrixOuter2"/>
      </feMerge>
    </filter>
    <rect id="dashboard2-l" width="249.458" height="190.75" rx="2"/>
    <filter id="dashboard2-k" width="116.8%" height="122%" x="-8.4%" y="-8.9%" filterUnits="objectBoundingBox">
      <feOffset dy="2" in="SourceAlpha" result="shadowOffsetOuter1"/>
      <feGaussianBlur in="shadowOffsetOuter1" result="shadowBlurOuter1" stdDeviation="5"/>
      <feColorMatrix in="shadowBlurOuter1" result="shadowMatrixOuter1" values="0 0 0 0 0   0 0 0 0 0   0 0 0 0 0  0 0 0 0.16 0"/>
      <feOffset dy="2" in="SourceAlpha" result="shadowOffsetOuter2"/>
      <feGaussianBlur in="shadowOffsetOuter2" result="shadowBlurOuter2" stdDeviation="2.5"/>
      <feColorMatrix in="shadowBlurOuter2" result="shadowMatrixOuter2" values="0 0 0 0 0   0 0 0 0 0   0 0 0 0 0  0 0 0 0.26 0"/>
      <feMerge>
        <feMergeNode in="shadowMatrixOuter1"/>
        <feMergeNode in="shadowMatrixOuter2"/>
      </feMerge>
    </filter>
    <rect id="dashboard2-n" width="249.458" height="190.405" rx="2"/>
    <filter id="dashboard2-m" width="116.8%" height="122.1%" x="-8.4%" y="-8.9%" filterUnits="objectBoundingBox">
      <feOffset dy="2" in="SourceAlpha" result="shadowOffsetOuter1"/>
      <feGaussianBlur in="shadowOffsetOuter1" result="shadowBlurOuter1" stdDeviation="5"/>
      <feColorMatrix in="shadowBlurOuter1" result="shadowMatrixOuter1" values="0 0 0 0 0   0 0 0 0 0   0 0 0 0 0  0 0 0 0.16 0"/>
      <feOffset dy="2" in="SourceAlpha" result="shadowOffsetOuter2"/>
      <feGaussianBlur in="shadowOffsetOuter2" result="shadowBlurOuter2" stdDeviation="2.5"/>
      <feColorMatrix in="shadowBlurOuter2" result="shadowMatrixOuter2" values="0 0 0 0 0   0 0 0 0 0   0 0 0 0 0  0 0 0 0.26 0"/>
      <feMerge>
        <feMergeNode in="shadowMatrixOuter1"/>
        <feMergeNode in="shadowMatrixOuter2"/>
      </feMerge>
    </filter>
    <rect id="dashboard2-p" width="249.458" height="190.75" rx="2"/>
    <filter id="dashboard2-o" width="116.8%" height="122%" x="-8.4%" y="-8.9%" filterUnits="objectBoundingBox">
      <feOffset dy="2" in="SourceAlpha" result="shadowOffsetOuter1"/>
      <feGaussianBlur in="shadowOffsetOuter1" result="shadowBlurOuter1" stdDeviation="5"/>
      <feColorMatrix in="shadowBlurOuter1" result="shadowMatrixOuter1" values="0 0 0 0 0   0 0 0 0 0   0 0 0 0 0  0 0 0 0.16 0"/>
      <feOffset dy="2" in="SourceAlpha" result="shadowOffsetOuter2"/>
      <feGaussianBlur in="shadowOffsetOuter2" result="shadowBlurOuter2" stdDeviation="2.5"/>
      <feColorMatrix in="shadowBlurOuter2" result="shadowMatrixOuter2" values="0 0 0 0 0   0 0 0 0 0   0 0 0 0 0  0 0 0 0.26 0"/>
      <feMerge>
        <feMergeNode in="shadowMatrixOuter1"/>
        <feMergeNode in="shadowMatrixOuter2"/>
      </feMerge>
    </filter>
    <rect id="dashboard2-r" width="249.458" height="190.75" rx="2"/>
    <filter id="dashboard2-q" width="116.8%" height="122%" x="-8.4%" y="-8.9%" filterUnits="objectBoundingBox">
      <feOffset dy="2" in="SourceAlpha" result="shadowOffsetOuter1"/>
      <feGaussianBlur in="shadowOffsetOuter1" result="shadowBlurOuter1" stdDeviation="5"/>
      <feColorMatrix in="shadowBlurOuter1" result="shadowMatrixOuter1" values="0 0 0 0 0   0 0 0 0 0   0 0 0 0 0  0 0 0 0.16 0"/>
      <feOffset dy="2" in="SourceAlpha" result="shadowOffsetOuter2"/>
      <feGaussianBlur in="shadowOffsetOuter2" result="shadowBlurOuter2" stdDeviation="2.5"/>
      <feColorMatrix in="shadowBlurOuter2" result="shadowMatrixOuter2" values="0 0 0 0 0   0 0 0 0 0   0 0 0 0 0  0 0 0 0.26 0"/>
      <feMerge>
        <feMergeNode in="shadowMatrixOuter1"/>
        <feMergeNode in="shadowMatrixOuter2"/>
      </feMerge>
    </filter>
    <rect id="dashboard2-t" width="249.458" height="190.75" rx="2"/>
    <filter id="dashboard2-s" width="116.8%" height="122%" x="-8.4%" y="-8.9%" filterUnits="objectBoundingBox">
      <feOffset dy="2" in="SourceAlpha" result="shadowOffsetOuter1"/>
      <feGaussianBlur in="shadowOffsetOuter1" result="shadowBlurOuter1" stdDeviation="5"/>
      <feColorMatrix in="shadowBlurOuter1" result="shadowMatrixOuter1" values="0 0 0 0 0   0 0 0 0 0   0 0 0 0 0  0 0 0 0.16 0"/>
      <feOffset dy="2" in="SourceAlpha" result="shadowOffsetOuter2"/>
      <feGaussianBlur in="shadowOffsetOuter2" result="shadowBlurOuter2" stdDeviation="2.5"/>
      <feColorMatrix in="shadowBlurOuter2" result="shadowMatrixOuter2" values="0 0 0 0 0   0 0 0 0 0   0 0 0 0 0  0 0 0 0.26 0"/>
      <feMerge>
        <feMergeNode in="shadowMatrixOuter1"/>
        <feMergeNode in="shadowMatrixOuter2"/>
      </feMerge>
    </filter>
    <rect id="dashboard2-u" width="1183" height="64"/>
  </defs>
  <g fill="none" fill-rule="evenodd">
    <g>
      <rect width="1184" height="64" fill="#1E88E5"/>
      <g fill="#FFF" font-size="16" transform="translate(60 24)">
        <text font-family="Roboto-Regular, Roboto">
          <tspan x="154" y="15">Dashboard</tspan>
        </text>
        <text font-family="Roboto-Medium, Roboto" font-weight="400">
          <tspan x="0" y="15">MIPSight</tspan>
        </text>
        <text font-family="Roboto-Regular, Roboto">
          <tspan x="281" y="15">All Reports</tspan>
        </text>
        <text font-family="Roboto-Regular, Roboto">
          <tspan x="408" y="15">Create Report</tspan>
        </text>
        <text font-family="Roboto-Regular, Roboto">
          <tspan x="556" y="15">Scorecard</tspan>
        </text>
        <text font-family="Roboto-Regular, Roboto">
          <tspan x="678" y="15">Providers</tspan>
        </text>
        <text font-family="Roboto-Regular, Roboto">
          <tspan x="795" y="15">Contact</tspan>
        </text>
      </g>
    </g>
    <text fill="#FFF" font-family="Roboto-Regular, Roboto" font-size="16">
      <tspan x="1020" y="39">Harriet Becker</tspan>
    </text>
    <g transform="translate(980 19)">
      <use fill="#FFF" opacity=".898" xlink:href="#dashboard2-a"/>
      <path fill="#085083" fill-rule="nonzero" d="M13,0 C5.82081633,0 0,5.82081633 0,13 C0,20.1818367 5.82081633,26 13,26 C20.1818367,26 26,20.1791837 26,13 C26,5.82081633 20.1818367,0 13,0 Z M9.84816327,5.58734694 C10.6891837,4.74632653 11.8061224,4.28469388 13.0026531,4.28469388 C14.1938776,4.28469388 15.3187755,4.74632653 16.1518367,5.58734694 C17.0008163,6.43102041 17.465102,7.54795918 17.465102,8.74183673 C17.465102,9.93306122 17.0008163,11.0473469 16.1518367,11.8910204 C15.3161224,12.7320408 14.1938776,13.1989796 13.0026531,13.1989796 C11.8087755,13.1989796 10.6918367,12.7346939 9.84816327,11.8910204 C9.00714286,11.05 8.54020408,9.93040816 8.54020408,8.74183673 C8.54020408,7.54795918 9.00714286,6.43102041 9.84816327,5.58734694 Z M13,23.4795918 C9.65979592,23.4795918 6.64061224,22.1 4.48897959,19.8767347 C5.46795918,17.0804082 8.08653061,14.9606122 11.0022449,14.9606122 L14.995102,14.9606122 C17.9055102,14.9606122 20.5293878,17.0804082 21.5110204,19.8740816 C19.3567347,22.1 16.3402041,23.4795918 13,23.4795918 Z"/>
    </g>
    <rect width="1183" height="1381" y="64" fill="#EEE"/>
    <g transform="translate(53 424)">
      <use fill="#000" filter="url(#dashboard2-b)" xlink:href="#dashboard2-c"/>
      <use fill="#FFF" xlink:href="#dashboard2-c"/>
      <g style="mix-blend-mode:luminosity" transform="translate(33.704 51)">
        <g transform="translate(.173 69.196)">
          <g stroke="url(#dashboard2-d)" stroke-linecap="square" stroke-width=".6" transform="translate(52.752 4.28)">
            <path d="M.513008603 1.3726257L957.92211 1.3726257M.513008603 42.5513966L957.92211 42.5513966M.513008603 83.7301676L957.92211 83.7301676M.513008603 124.908939L957.92211 124.908939M.513008603 166.087709L957.92211 166.087709M.513008603 207.26648L957.92211 207.26648"/>
          </g>
          <g font-family="Roboto-Regular, Roboto">
            <text fill="#4D4D4E" font-size="13" letter-spacing=".156">
              <tspan x="102.639" y="233.899">6-7-14</tspan>
            </text>
            <text fill="#485465" font-size="10" letter-spacing=".12">
              <tspan x="40.84" y="214.894">0</tspan>
            </text>
            <text fill="#485465" font-size="10" letter-spacing=".12">
              <tspan x="29.369" y="173.715">100</tspan>
            </text>
            <text fill="#485465" font-size="10" letter-spacing=".12">
              <tspan x="29.369" y="132.536">200</tspan>
            </text>
            <text fill="#485465" font-size="10" letter-spacing=".12">
              <tspan x="29.369" y="91.358">300</tspan>
            </text>
            <text fill="#485465" font-size="10" letter-spacing=".12">
              <tspan x="29.369" y="50.179">400</tspan>
            </text>
            <text fill="#485465" font-size="10" letter-spacing=".12">
              <tspan x="29.369" y="9">500</tspan>
            </text>
            <text fill="#4D4D4E" font-size="13" letter-spacing=".156">
              <tspan x="234.76" y="233.899">12-8-15</tspan>
            </text>
            <text fill="#4D4D4E" font-size="13" letter-spacing=".156">
              <tspan x="370.609" y="233.899">6-18-15</tspan>
            </text>
            <text fill="#4D4D4E" font-size="13" letter-spacing=".156">
              <tspan x="510.185" y="233.899">1-1-16</tspan>
            </text>
            <text fill="#4D4D4E" font-size="13" letter-spacing=".156">
              <tspan x="642.306" y="233.899">16-4-16</tspan>
            </text>
            <text fill="#4D4D4E" font-size="13" letter-spacing=".156">
              <tspan x="774.426" y="233.899">12-12-16</tspan>
            </text>
            <text fill="#4D4D4E" font-size="13" letter-spacing=".156">
              <tspan x="917.237" y="233.899">5-20-17</tspan>
            </text>
          </g>
          <g transform="translate(53.37 4.28)">
            <polygon fill="#53A8E2" fill-opacity=".2" points="0 13.59 96.46 75.28 155.053 38.228 222.504 30.923 304.806 45.984 368.738 34.142 404.452 .763 533.544 16.494 599.139 45.984 679.243 13.59 751.059 40.533 832.723 68.301 892.719 30.923 957.409 40.533 957.409 81.779 892.719 72.053 832.723 109.186 766.856 72.327 679.243 54.688 596.549 100.238 543.394 60.246 479.148 34.142 365.638 65.974 301.358 100.383 216.654 98.116 153.099 128.974 50.597 124.706 .505 54.597"/>
            <polyline stroke="#53A8E2" stroke-linecap="round" stroke-linejoin="round" points="0 13.59 96.46 75.28 155.053 38.228 222.504 30.923 304.806 45.984 368.738 34.142 404.33 1.169 532.917 16.281 599.139 45.984 679.243 13.59 751.059 40.533 832.723 68.301 892.719 30.923 957.409 40.533" opacity=".9"/>
          </g>
          <g transform="translate(53.37 38.067)">
            <polygon fill="#76DDFB" fill-opacity=".2" points="0 22.037 49.364 91.897 153.12 96.509 216.982 65.278 300.972 67.87 366.154 33.243 478.705 1.452 543.394 27.366 596.378 67.87 679.243 22.037 765.759 39.37 832.723 76.748 892.719 39.37 957.409 48.98 957.409 72.898 893.259 91.215 861.183 130.056 760.449 79.563 669.13 119.334 599.383 91.215 538.411 95.458 449.666 57.06 365.264 85.158 271.697 143.348 217.719 117.081 152.614 126.169 90.6 160.662 50.63 143.999 .226 73.715 .154 23.038"/>
            <polyline stroke="#76DDFB" stroke-linecap="round" stroke-linejoin="round" points="0 20.981 49.364 90.842 153.12 95.453 216.982 64.222 300.972 66.814 366.154 32.187 478.705 .396 543.394 26.31 596.378 66.814 679.243 20.981 765.759 38.314 832.723 75.692 892.719 38.314 957.409 47.924" opacity=".9"/>
          </g>
          <g transform="translate(53.37 96.14)">
            <polygon fill="#2C82BE" fill-opacity=".25" points="0 16.758 49.364 86.618 90.566 103.953 153.019 69.126 216.982 59.999 271.697 86.618 366.154 27.964 449.417 .165 538.171 38.455 598.456 34.091 669.445 62.591 759.436 22.087 861.714 73.676 892.719 34.091 957.409 16.758 957.409 114.439 .22 114.439"/>
            <polyline stroke="#2C82BE" stroke-linecap="round" stroke-linejoin="round" points="0 16.758 49.364 86.618 90.566 103.953 153.019 69.126 216.982 59.999 271.697 86.618 366.154 27.964 449.417 .165 538.171 38.455 598.456 34.091 669.445 62.591 759.436 22.087 861.714 73.676 892.719 34.091 957.409 16.758"/>
          </g>
        </g>
        <g transform="translate(629.654)">
          <g transform="translate(268.463)">
            <text fill="#485465" font-family="Roboto-Regular, Roboto" font-size="13" letter-spacing="-.078">
              <tspan x="24.259" y="12">CPIA</tspan>
            </text>
            <ellipse cx="7.275" cy="10.387" fill="#76DDFB" rx="7.275" ry="7.275"/>
          </g>
          <g transform="translate(130.997)">
            <text fill="#485465" font-family="Roboto-Regular, Roboto" font-size="13" letter-spacing="-.078">
              <tspan x="24.259" y="12">Quality</tspan>
            </text>
            <ellipse cx="7.275" cy="10.387" fill="#53A8E2" rx="7.275" ry="7.275"/>
          </g>
          <text fill="#485465" font-family="Roboto-Regular, Roboto" font-size="13" letter-spacing="-.078">
            <tspan x="24.259" y="12">ACI</tspan>
          </text>
          <ellipse cx="7.275" cy="10.387" fill="#2C82BE" rx="7.275" ry="7.275"/>
        </g>
      </g>
      <text fill="#4D4D4E" font-family="Roboto-Regular, Roboto" font-size="24">
        <tspan x="53.62" y="55">Compare Scores</tspan>
      </text>
    </g>
    <g transform="translate(53 110)">
      <g transform="translate(3)">
        <path stroke="#616161" stroke-linecap="square" stroke-width="2" d="M0.5,32 L320.501556,32"/>
        <polygon fill="#757575" points="300 7 305 12 310 7"/>
        <text fill="gray" font-family="Roboto-Regular, Roboto" font-size="16" letter-spacing="0">
          <tspan x="0" y="15">Select Assessment</tspan>
        </text>
      </g>
      <g transform="translate(0 74)">
        <use fill="#000" filter="url(#dashboard2-e)" xlink:href="#dashboard2-f"/>
        <use fill="#FFF6C4" xlink:href="#dashboard2-f"/>
        <path fill="#4D4D4E" d="M42.4023438,49.546875 L35.2539062,49.546875 L33.6484375,54 L31.328125,54 L37.84375,36.9375 L39.8125,36.9375 L46.3398438,54 L44.03125,54 L42.4023438,49.546875 Z M35.9335938,47.6953125 L41.734375,47.6953125 L38.828125,39.7148438 L35.9335938,47.6953125 Z M61.1875,48.5859375 C60.9765614,50.390634 60.3105525,51.7831982 59.1894531,52.7636719 C58.0683538,53.7441455 56.5781343,54.234375 54.71875,54.234375 C52.7031149,54.234375 51.0878967,53.511726 49.8730469,52.0664062 C48.6581971,50.6210865 48.0507812,48.6875121 48.0507812,46.265625 L48.0507812,44.625 C48.0507812,43.0390546 48.3339815,41.6445373 48.9003906,40.4414062 C49.4667997,39.2382752 50.2695261,38.3144563 51.3085938,37.6699219 C52.3476614,37.0253874 53.5507744,36.703125 54.9179688,36.703125 C56.7304778,36.703125 58.1835883,37.2089793 59.2773438,38.2207031 C60.3710992,39.2324269 61.0078116,40.6328036 61.1875,42.421875 L58.9257812,42.421875 C58.7304678,41.0624932 58.3066439,40.078128 57.6542969,39.46875 C57.0019499,38.859372 56.0898496,38.5546875 54.9179688,38.5546875 C53.4804616,38.5546875 52.3535197,39.0859322 51.5371094,40.1484375 C50.720699,41.2109428 50.3125,42.7226464 50.3125,44.6835938 L50.3125,46.3359375 C50.3125,48.1875093 50.6992149,49.6601508 51.4726562,50.7539062 C52.2460976,51.8476617 53.328118,52.3945312 54.71875,52.3945312 C55.9687562,52.3945312 56.927731,52.111331 57.5957031,51.5449219 C58.2636752,50.9785128 58.7070302,49.9921945 58.9257812,48.5859375 L61.1875,48.5859375 Z M66.671875,54 L64.421875,54 L64.421875,36.9375 L66.671875,36.9375 L66.671875,54 Z M81.7539062,46.3945312 C79.8242091,45.839841 78.4199263,45.1582072 77.5410156,44.3496094 C76.662105,43.5410116 76.2226562,42.5429747 76.2226562,41.3554688 C76.2226562,40.011712 76.7597603,38.900395 77.8339844,38.0214844 C78.9082085,37.1425737 80.3046789,36.703125 82.0234375,36.703125 C83.1953184,36.703125 84.2402298,36.9296852 85.1582031,37.3828125 C86.0761765,37.8359398 86.7871069,38.4609335 87.2910156,39.2578125 C87.7949244,40.0546915 88.046875,40.9257765 88.046875,41.8710938 L85.7851562,41.8710938 C85.7851562,40.8398386 85.4570345,40.0292998 84.8007812,39.4394531 C84.144528,38.8496064 83.218756,38.5546875 82.0234375,38.5546875 C80.914057,38.5546875 80.0488312,38.7988257 79.4277344,39.2871094 C78.8066375,39.7753931 78.4960938,40.4531207 78.4960938,41.3203125 C78.4960938,42.0156285 78.7910127,42.6035132 79.3808594,43.0839844 C79.9707061,43.5644555 80.9746023,44.0039043 82.3925781,44.4023438 C83.810554,44.8007832 84.9199179,45.240232 85.7207031,45.7207031 C86.5214884,46.2011743 87.1152324,46.7617155 87.5019531,47.4023438 C87.8886738,48.042972 88.0820312,48.7968707 88.0820312,49.6640625 C88.0820312,51.0468819 87.5429741,52.1542927 86.4648438,52.9863281 C85.3867134,53.8183635 83.9453215,54.234375 82.140625,54.234375 C80.9687441,54.234375 79.8750051,54.0097679 78.859375,53.5605469 C77.8437449,53.1113259 77.0605496,52.4960977 76.5097656,51.7148438 C75.9589816,50.9335898 75.6835938,50.04688 75.6835938,49.0546875 L77.9453125,49.0546875 C77.9453125,50.0859427 78.3261681,50.9003876 79.0878906,51.4980469 C79.8496132,52.0957061 80.8671811,52.3945312 82.140625,52.3945312 C83.3281309,52.3945312 84.2382781,52.1523462 84.8710938,51.6679688 C85.5039094,51.1835913 85.8203125,50.5234417 85.8203125,49.6875 C85.8203125,48.8515583 85.5273467,48.2050804 84.9414062,47.7480469 C84.3554658,47.2910133 83.2929764,46.839846 81.7539062,46.3945312 Z M95.7109375,52.4648438 C96.4843789,52.4648438 97.1601534,52.2304711 97.7382812,51.7617188 C98.3164091,51.2929664 98.6367184,50.7070348 98.6992188,50.0039062 L100.75,50.0039062 C100.710937,50.7304724 100.46094,51.4218717 100,52.078125 C99.5390602,52.7343783 98.923832,53.2578105 98.1542969,53.6484375 C97.3847618,54.0390645 96.5703168,54.234375 95.7109375,54.234375 C93.9843664,54.234375 92.6113332,53.6582089 91.5917969,52.5058594 C90.5722605,51.3535099 90.0625,49.7773538 90.0625,47.7773438 L90.0625,47.4140625 C90.0625,46.1796813 90.2890602,45.0820361 90.7421875,44.1210938 C91.1953148,43.1601514 91.8456989,42.4140652 92.6933594,41.8828125 C93.5410199,41.3515598 94.542963,41.0859375 95.6992188,41.0859375 C97.1211009,41.0859375 98.3027297,41.5117145 99.2441406,42.3632812 C100.185552,43.214848 100.6875,44.3203057 100.75,45.6796875 L98.6992188,45.6796875 C98.6367184,44.8593709 98.3261747,44.1855495 97.7675781,43.6582031 C97.2089816,43.1308567 96.5195354,42.8671875 95.6992188,42.8671875 C94.5976507,42.8671875 93.7441437,43.2636679 93.1386719,44.0566406 C92.5332001,44.8496133 92.2304688,45.9960862 92.2304688,47.4960938 L92.2304688,47.90625 C92.2304688,49.3671948 92.531247,50.4921836 93.1328125,51.28125 C93.734378,52.0703164 94.5937444,52.4648438 95.7109375,52.4648438 Z M102.613281,47.5429688 C102.613281,46.300775 102.857419,45.1835987 103.345703,44.1914062 C103.833987,43.1992138 104.513668,42.4335964 105.384766,41.8945312 C106.255864,41.3554661 107.249994,41.0859375 108.367188,41.0859375 C110.093759,41.0859375 111.490229,41.6835878 112.556641,42.8789062 C113.623052,44.0742247 114.15625,45.6640526 114.15625,47.6484375 L114.15625,47.8007812 C114.15625,49.0351624 113.919924,50.1425732 113.447266,51.1230469 C112.974607,52.1035205 112.298833,52.8671848 111.419922,53.4140625 C110.541011,53.9609402 109.531256,54.234375 108.390625,54.234375 C106.671866,54.234375 105.279302,53.6367247 104.212891,52.4414062 C103.146479,51.2460878 102.613281,49.6640723 102.613281,47.6953125 L102.613281,47.5429688 Z M104.792969,47.8007812 C104.792969,49.2070383 105.119137,50.3359332 105.771484,51.1875 C106.423831,52.0390668 107.29687,52.4648438 108.390625,52.4648438 C109.492193,52.4648438 110.367184,52.0332074 111.015625,51.1699219 C111.664066,50.3066363 111.988281,49.097664 111.988281,47.5429688 C111.988281,46.1523368 111.658206,45.0253949 110.998047,44.1621094 C110.337887,43.2988238 109.460943,42.8671875 108.367188,42.8671875 C107.29687,42.8671875 106.433597,43.2929645 105.777344,44.1445312 C105.12109,44.996098 104.792969,46.2148358 104.792969,47.8007812 Z M123.003906,43.265625 C122.67578,43.2109372 122.320314,43.1835938 121.9375,43.1835938 C120.515618,43.1835938 119.550784,43.7890564 119.042969,45 L119.042969,54 L116.875,54 L116.875,41.3203125 L118.984375,41.3203125 L119.019531,42.7851562 C119.730472,41.6523381 120.738275,41.0859375 122.042969,41.0859375 C122.464846,41.0859375 122.785155,41.1406245 123.003906,41.25 L123.003906,43.265625 Z M130.257812,54.234375 C128.539054,54.234375 127.14063,53.6699275 126.0625,52.5410156 C124.98437,51.4121037 124.445312,49.9023532 124.445312,48.0117188 L124.445312,47.6132812 C124.445312,46.3554625 124.685544,45.2324268 125.166016,44.2441406 C125.646487,43.2558544 126.318355,42.4824247 127.181641,41.9238281 C128.044926,41.3652316 128.980464,41.0859375 129.988281,41.0859375 C131.636727,41.0859375 132.917964,41.6289008 133.832031,42.7148438 C134.746098,43.8007867 135.203125,45.3554586 135.203125,47.3789062 L135.203125,48.28125 L126.613281,48.28125 C126.644531,49.5312562 127.009762,50.5410118 127.708984,51.3105469 C128.408207,52.080082 129.29687,52.4648438 130.375,52.4648438 C131.140629,52.4648438 131.78906,52.3085953 132.320312,51.9960938 C132.851565,51.6835922 133.316404,51.2695338 133.714844,50.7539062 L135.039062,51.7851562 C133.976557,53.4179769 132.382823,54.234375 130.257812,54.234375 Z M129.988281,42.8671875 C129.113277,42.8671875 128.378909,43.1855437 127.785156,43.8222656 C127.191403,44.4589876 126.824219,45.3515568 126.683594,46.5 L133.035156,46.5 L133.035156,46.3359375 C132.972656,45.2343695 132.675784,44.3808624 132.144531,43.7753906 C131.613279,43.1699188 130.894536,42.8671875 129.988281,42.8671875 Z M62.7109375,136.808594 L69.8125,136.808594 L69.8125,142.117188 L62.7109375,142.117188 L62.7109375,154 L56.171875,154 L56.171875,142.117188 L32.8632812,142.117188 L32.8632812,138.285156 L55.7851562,102.8125 L62.7109375,102.8125 L62.7109375,136.808594 Z M40.2460938,136.808594 L56.171875,136.808594 L56.171875,111.707031 L55.3984375,113.113281 L40.2460938,136.808594 Z M78.671875,128.335938 L81.2734375,102.8125 L107.5,102.8125 L107.5,108.824219 L86.7929688,108.824219 L85.2460938,122.78125 C87.7539188,121.30468 90.6015466,120.566406 93.7890625,120.566406 C98.4531483,120.566406 102.156236,122.107406 104.898438,125.189453 C107.640639,128.2715 109.011719,132.437474 109.011719,137.6875 C109.011719,142.960964 107.587905,147.115219 104.740234,150.150391 C101.892564,153.185562 97.914088,154.703125 92.8046875,154.703125 C88.2812274,154.703125 84.589858,153.449231 81.7304688,150.941406 C78.8710795,148.433581 77.2421895,144.964866 76.84375,140.535156 L82.9960938,140.535156 C83.3945332,143.464858 84.4374916,145.673821 86.125,147.162109 C87.8125084,148.650398 90.0390487,149.394531 92.8046875,149.394531 C95.8281401,149.394531 98.2011633,148.363292 99.9238281,146.300781 C101.646493,144.238271 102.507812,141.390643 102.507812,137.757812 C102.507812,134.33592 101.576181,131.587901 99.7128906,129.513672 C97.8496001,127.439443 95.3711092,126.402344 92.2773438,126.402344 C89.4413921,126.402344 87.2148518,127.023431 85.5976562,128.265625 L83.875,129.671875 L78.671875,128.335938 Z"/>
      </g>
      <g transform="translate(276 73)">
        <use fill="#000" filter="url(#dashboard2-g)" xlink:href="#dashboard2-h"/>
        <use fill="#CCF6C4" xlink:href="#dashboard2-h"/>
        <path fill="#4D4D4E" d="M46.0117188,46.0195312 C46.0117188,47.667977 45.7500026,49.0878847 45.2265625,50.2792969 C44.7031224,51.4707091 43.9687547,52.4023404 43.0234375,53.0742188 L46.0703125,55.4648438 L44.5351562,56.8828125 L40.9375,54.0234375 C40.3749972,54.1640632 39.7812531,54.234375 39.15625,54.234375 C37.8124933,54.234375 36.6210989,53.9043002 35.5820312,53.2441406 C34.5429636,52.5839811 33.736331,51.6425842 33.1621094,50.4199219 C32.5878878,49.1972595 32.2929688,47.781258 32.2773438,46.171875 L32.2773438,44.9414062 C32.2773438,43.300773 32.5624971,41.8515688 33.1328125,40.59375 C33.7031279,39.3359312 34.5097604,38.3730502 35.5527344,37.7050781 C36.5957083,37.037106 37.7890558,36.703125 39.1328125,36.703125 C40.5078194,36.703125 41.7167917,37.0351529 42.7597656,37.6992188 C43.8027396,38.3632846 44.6054659,39.3183531 45.1679688,40.5644531 C45.7304716,41.8105531 46.0117188,43.2656167 46.0117188,44.9296875 L46.0117188,46.0195312 Z M43.7617188,44.9179688 C43.7617188,42.9101462 43.3613321,41.3613336 42.5605469,40.2714844 C41.7597616,39.1816352 40.6171949,38.6367188 39.1328125,38.6367188 C37.7187429,38.6367188 36.6035197,39.177729 35.7871094,40.2597656 C34.970699,41.3418023 34.5507814,42.8437404 34.5273438,44.765625 L34.5273438,46.0195312 C34.5273438,47.972666 34.9355428,49.5117131 35.7519531,50.6367188 C36.5683635,51.7617244 37.7031177,52.3242188 39.15625,52.3242188 C40.6093823,52.3242188 41.734371,51.7949272 42.53125,50.7363281 C43.328129,49.6777291 43.7382811,48.1601661 43.7617188,46.1835938 L43.7617188,44.9179688 Z M56.96875,52.7460938 C56.1249958,53.7382862 54.8867269,54.234375 53.2539062,54.234375 C51.902337,54.234375 50.8730504,53.8418008 50.1660156,53.0566406 C49.4589808,52.2714804 49.1015625,51.1093827 49.09375,49.5703125 L49.09375,41.3203125 L51.2617188,41.3203125 L51.2617188,49.5117188 C51.2617188,51.4336034 52.0429609,52.3945312 53.6054688,52.3945312 C55.261727,52.3945312 56.3632785,51.7773499 56.9101562,50.5429688 L56.9101562,41.3203125 L59.078125,41.3203125 L59.078125,54 L57.015625,54 L56.96875,52.7460938 Z M70.1992188,54 C70.0742181,53.7499988 69.9726566,53.3046907 69.8945312,52.6640625 C68.8867137,53.7109427 67.6836007,54.234375 66.2851562,54.234375 C65.03515,54.234375 64.0097696,53.8808629 63.2089844,53.1738281 C62.4081991,52.4667933 62.0078125,51.5703179 62.0078125,50.484375 C62.0078125,49.1640559 62.5097606,48.1386755 63.5136719,47.4082031 C64.5175831,46.6777307 65.9296784,46.3125 67.75,46.3125 L69.859375,46.3125 L69.859375,45.3164062 C69.859375,44.55859 69.6328148,43.9550804 69.1796875,43.5058594 C68.7265602,43.0566384 68.0585982,42.8320312 67.1757812,42.8320312 C66.4023399,42.8320312 65.7539089,43.0273418 65.2304688,43.4179688 C64.7070286,43.8085957 64.4453125,44.2812472 64.4453125,44.8359375 L62.265625,44.8359375 C62.265625,44.2031218 62.4902321,43.5917998 62.9394531,43.0019531 C63.3886741,42.4121064 63.998043,41.9453142 64.7675781,41.6015625 C65.5371132,41.2578108 66.3828079,41.0859375 67.3046875,41.0859375 C68.7656323,41.0859375 69.9101521,41.4511682 70.7382812,42.1816406 C71.5664104,42.912113 71.9960936,43.9179623 72.0273438,45.1992188 L72.0273438,51.0351562 C72.0273438,52.1992246 72.1757798,53.1249966 72.4726562,53.8125 L72.4726562,54 L70.1992188,54 Z M66.6015625,52.3476562 C67.2812534,52.3476562 67.9257782,52.1718768 68.5351562,51.8203125 C69.1445343,51.4687482 69.5859361,51.0117216 69.859375,50.4492188 L69.859375,47.8476562 L68.1601562,47.8476562 C65.503893,47.8476562 64.1757812,48.6249922 64.1757812,50.1796875 C64.1757812,50.8593784 64.4023415,51.3906231 64.8554688,51.7734375 C65.308596,52.1562519 65.8906214,52.3476562 66.6015625,52.3476562 Z M77.78125,54 L75.6132812,54 L75.6132812,36 L77.78125,36 L77.78125,54 Z M83.6054688,54 L81.4375,54 L81.4375,41.3203125 L83.6054688,41.3203125 L83.6054688,54 Z M81.2617188,37.9570312 C81.2617188,37.605467 81.3691396,37.308595 81.5839844,37.0664062 C81.7988292,36.8242175 82.1171854,36.703125 82.5390625,36.703125 C82.9609396,36.703125 83.2812489,36.8242175 83.5,37.0664062 C83.7187511,37.308595 83.828125,37.605467 83.828125,37.9570312 C83.828125,38.3085955 83.7187511,38.6015613 83.5,38.8359375 C83.2812489,39.0703137 82.9609396,39.1875 82.5390625,39.1875 C82.1171854,39.1875 81.7988292,39.0703137 81.5839844,38.8359375 C81.3691396,38.6015613 81.2617188,38.3085955 81.2617188,37.9570312 Z M90.015625,38.25 L90.015625,41.3203125 L92.3828125,41.3203125 L92.3828125,42.9960938 L90.015625,42.9960938 L90.015625,50.859375 C90.015625,51.36719 90.1210927,51.7480456 90.3320312,52.0019531 C90.5429698,52.2558606 90.9023412,52.3828125 91.4101562,52.3828125 C91.6601575,52.3828125 92.0039041,52.335938 92.4414062,52.2421875 L92.4414062,54 C91.8710909,54.1562508 91.3164089,54.234375 90.7773438,54.234375 C89.8085889,54.234375 89.0781275,53.9414092 88.5859375,53.3554688 C88.0937475,52.7695283 87.8476562,51.9375054 87.8476562,50.859375 L87.8476562,42.9960938 L85.5390625,42.9960938 L85.5390625,41.3203125 L87.8476562,41.3203125 L87.8476562,38.25 L90.015625,38.25 Z M99.0625,50.8242188 L102.015625,41.3203125 L104.335938,41.3203125 L99.2382812,55.9570312 C98.4492148,58.0664168 97.1953211,59.1210938 95.4765625,59.1210938 L95.0664062,59.0859375 L94.2578125,58.9335938 L94.2578125,57.1757812 L94.84375,57.2226562 C95.5781287,57.2226562 96.1503886,57.0742202 96.5605469,56.7773438 C96.9707052,56.4804673 97.3085924,55.9375039 97.5742188,55.1484375 L98.0546875,53.859375 L93.53125,41.3203125 L95.8984375,41.3203125 L99.0625,50.8242188 Z M117.578125,46.3945312 C115.648428,45.839841 114.244145,45.1582072 113.365234,44.3496094 C112.486324,43.5410116 112.046875,42.5429747 112.046875,41.3554688 C112.046875,40.011712 112.583979,38.900395 113.658203,38.0214844 C114.732427,37.1425737 116.128898,36.703125 117.847656,36.703125 C119.019537,36.703125 120.064449,36.9296852 120.982422,37.3828125 C121.900395,37.8359398 122.611326,38.4609335 123.115234,39.2578125 C123.619143,40.0546915 123.871094,40.9257765 123.871094,41.8710938 L121.609375,41.8710938 C121.609375,40.8398386 121.281253,40.0292998 120.625,39.4394531 C119.968747,38.8496064 119.042975,38.5546875 117.847656,38.5546875 C116.738276,38.5546875 115.87305,38.7988257 115.251953,39.2871094 C114.630856,39.7753931 114.320312,40.4531207 114.320312,41.3203125 C114.320312,42.0156285 114.615231,42.6035132 115.205078,43.0839844 C115.794925,43.5644555 116.798821,44.0039043 118.216797,44.4023438 C119.634773,44.8007832 120.744137,45.240232 121.544922,45.7207031 C122.345707,46.2011743 122.939451,46.7617155 123.326172,47.4023438 C123.712893,48.042972 123.90625,48.7968707 123.90625,49.6640625 C123.90625,51.0468819 123.367193,52.1542927 122.289062,52.9863281 C121.210932,53.8183635 119.76954,54.234375 117.964844,54.234375 C116.792963,54.234375 115.699224,54.0097679 114.683594,53.5605469 C113.667964,53.1113259 112.884768,52.4960977 112.333984,51.7148438 C111.7832,50.9335898 111.507812,50.04688 111.507812,49.0546875 L113.769531,49.0546875 C113.769531,50.0859427 114.150387,50.9003876 114.912109,51.4980469 C115.673832,52.0957061 116.6914,52.3945312 117.964844,52.3945312 C119.15235,52.3945312 120.062497,52.1523462 120.695312,51.6679688 C121.328128,51.1835913 121.644531,50.5234417 121.644531,49.6875 C121.644531,48.8515583 121.351565,48.2050804 120.765625,47.7480469 C120.179685,47.2910133 119.117195,46.839846 117.578125,46.3945312 Z M131.535156,52.4648438 C132.308598,52.4648438 132.984372,52.2304711 133.5625,51.7617188 C134.140628,51.2929664 134.460937,50.7070348 134.523438,50.0039062 L136.574219,50.0039062 C136.535156,50.7304724 136.285159,51.4218717 135.824219,52.078125 C135.363279,52.7343783 134.748051,53.2578105 133.978516,53.6484375 C133.208981,54.0390645 132.394536,54.234375 131.535156,54.234375 C129.808585,54.234375 128.435552,53.6582089 127.416016,52.5058594 C126.396479,51.3535099 125.886719,49.7773538 125.886719,47.7773438 L125.886719,47.4140625 C125.886719,46.1796813 126.113279,45.0820361 126.566406,44.1210938 C127.019534,43.1601514 127.669918,42.4140652 128.517578,41.8828125 C129.365239,41.3515598 130.367182,41.0859375 131.523438,41.0859375 C132.94532,41.0859375 134.126948,41.5117145 135.068359,42.3632812 C136.00977,43.214848 136.511718,44.3203057 136.574219,45.6796875 L134.523438,45.6796875 C134.460937,44.8593709 134.150393,44.1855495 133.591797,43.6582031 C133.0332,43.1308567 132.343754,42.8671875 131.523438,42.8671875 C130.421869,42.8671875 129.568362,43.2636679 128.962891,44.0566406 C128.357419,44.8496133 128.054688,45.9960862 128.054688,47.4960938 L128.054688,47.90625 C128.054688,49.3671948 128.355466,50.4921836 128.957031,51.28125 C129.558597,52.0703164 130.417963,52.4648438 131.535156,52.4648438 Z M138.4375,47.5429688 C138.4375,46.300775 138.681638,45.1835987 139.169922,44.1914062 C139.658206,43.1992138 140.337886,42.4335964 141.208984,41.8945312 C142.080082,41.3554661 143.074213,41.0859375 144.191406,41.0859375 C145.917977,41.0859375 147.314448,41.6835878 148.380859,42.8789062 C149.447271,44.0742247 149.980469,45.6640526 149.980469,47.6484375 L149.980469,47.8007812 C149.980469,49.0351624 149.744143,50.1425732 149.271484,51.1230469 C148.798826,52.1035205 148.123051,52.8671848 147.244141,53.4140625 C146.36523,53.9609402 145.355474,54.234375 144.214844,54.234375 C142.496085,54.234375 141.103521,53.6367247 140.037109,52.4414062 C138.970698,51.2460878 138.4375,49.6640723 138.4375,47.6953125 L138.4375,47.5429688 Z M140.617188,47.8007812 C140.617188,49.2070383 140.943356,50.3359332 141.595703,51.1875 C142.24805,52.0390668 143.121088,52.4648438 144.214844,52.4648438 C145.316412,52.4648438 146.191403,52.0332074 146.839844,51.1699219 C147.488284,50.3066363 147.8125,49.097664 147.8125,47.5429688 C147.8125,46.1523368 147.482425,45.0253949 146.822266,44.1621094 C146.162106,43.2988238 145.285162,42.8671875 144.191406,42.8671875 C143.121088,42.8671875 142.257816,43.2929645 141.601562,44.1445312 C140.945309,44.996098 140.617188,46.2148358 140.617188,47.8007812 Z M158.828125,43.265625 C158.499998,43.2109372 158.144533,43.1835938 157.761719,43.1835938 C156.339837,43.1835938 155.375003,43.7890564 154.867188,45 L154.867188,54 L152.699219,54 L152.699219,41.3203125 L154.808594,41.3203125 L154.84375,42.7851562 C155.554691,41.6523381 156.562493,41.0859375 157.867188,41.0859375 C158.289065,41.0859375 158.609374,41.1406245 158.828125,41.25 L158.828125,43.265625 Z M166.082031,54.234375 C164.363273,54.234375 162.964849,53.6699275 161.886719,52.5410156 C160.808588,51.4121037 160.269531,49.9023532 160.269531,48.0117188 L160.269531,47.6132812 C160.269531,46.3554625 160.509763,45.2324268 160.990234,44.2441406 C161.470706,43.2558544 162.142574,42.4824247 163.005859,41.9238281 C163.869145,41.3652316 164.804682,41.0859375 165.8125,41.0859375 C167.460946,41.0859375 168.742183,41.6289008 169.65625,42.7148438 C170.570317,43.8007867 171.027344,45.3554586 171.027344,47.3789062 L171.027344,48.28125 L162.4375,48.28125 C162.46875,49.5312562 162.833981,50.5410118 163.533203,51.3105469 C164.232425,52.080082 165.121088,52.4648438 166.199219,52.4648438 C166.964848,52.4648438 167.613279,52.3085953 168.144531,51.9960938 C168.675784,51.6835922 169.140623,51.2695338 169.539062,50.7539062 L170.863281,51.7851562 C169.800776,53.4179769 168.207042,54.234375 166.082031,54.234375 Z M165.8125,42.8671875 C164.937496,42.8671875 164.203128,43.1855437 163.609375,43.8222656 C163.015622,44.4589876 162.648438,45.3515568 162.507812,46.5 L168.859375,46.5 L168.859375,46.3359375 C168.796875,45.2343695 168.500003,44.3808624 167.96875,43.7753906 C167.437497,43.1699188 166.718755,42.8671875 165.8125,42.8671875 Z M60.7773438,102.777344 L60.7773438,108.296875 L59.5820312,108.296875 C54.5195059,108.390625 50.4882963,109.89061 47.4882812,112.796875 C44.4882662,115.70314 42.7539086,119.792942 42.2851562,125.066406 C44.9804822,121.972641 48.6601329,120.425781 53.3242188,120.425781 C57.777366,120.425781 61.3339711,121.996078 63.9941406,125.136719 C66.6543102,128.277359 67.984375,132.332006 67.984375,137.300781 C67.984375,142.574245 66.5488425,146.792953 63.6777344,149.957031 C60.8066263,153.12111 56.9570554,154.703125 52.1289062,154.703125 C47.2304443,154.703125 43.2578277,152.822284 40.2109375,149.060547 C37.1640473,145.298809 35.640625,140.453155 35.640625,134.523438 L35.640625,132.027344 C35.640625,122.605422 37.6503705,115.404322 41.6699219,110.423828 C45.6894732,105.443334 51.6718353,102.894532 59.6171875,102.777344 L60.7773438,102.777344 Z M52.234375,125.839844 C50.0078014,125.839844 47.9570406,126.507806 46.0820312,127.84375 C44.2070219,129.179694 42.9062536,130.855459 42.1796875,132.871094 L42.1796875,135.261719 C42.1796875,139.48049 43.1288968,142.878893 45.0273438,145.457031 C46.9257907,148.035169 49.2929546,149.324219 52.1289062,149.324219 C55.0586084,149.324219 57.3613197,148.246105 59.0371094,146.089844 C60.712899,143.933583 61.5507812,141.109392 61.5507812,137.617188 C61.5507812,134.101545 60.7011804,131.259776 59.0019531,129.091797 C57.3027259,126.923817 55.0468891,125.839844 52.234375,125.839844 Z M108.730469,106.46875 L87.53125,154 L80.7109375,154 L101.839844,108.15625 L74.1367188,108.15625 L74.1367188,102.8125 L108.730469,102.8125 L108.730469,106.46875 Z"/>
      </g>
      <g transform="translate(552 73)">
        <use fill="#000" filter="url(#dashboard2-i)" xlink:href="#dashboard2-j"/>
        <use fill="#FFD7CD" xlink:href="#dashboard2-j"/>
        <path fill="#4D4D4E" d="M45.53125,48.5859375 C45.3203114,50.390634 44.6543025,51.7831982 43.5332031,52.7636719 C42.4121038,53.7441455 40.9218843,54.234375 39.0625,54.234375 C37.0468649,54.234375 35.4316467,53.511726 34.2167969,52.0664062 C33.0019471,50.6210865 32.3945312,48.6875121 32.3945312,46.265625 L32.3945312,44.625 C32.3945312,43.0390546 32.6777315,41.6445373 33.2441406,40.4414062 C33.8105497,39.2382752 34.6132761,38.3144563 35.6523438,37.6699219 C36.6914114,37.0253874 37.8945244,36.703125 39.2617188,36.703125 C41.0742278,36.703125 42.5273383,37.2089793 43.6210938,38.2207031 C44.7148492,39.2324269 45.3515616,40.6328036 45.53125,42.421875 L43.2695312,42.421875 C43.0742178,41.0624932 42.6503939,40.078128 41.9980469,39.46875 C41.3456999,38.859372 40.4335996,38.5546875 39.2617188,38.5546875 C37.8242116,38.5546875 36.6972697,39.0859322 35.8808594,40.1484375 C35.064449,41.2109428 34.65625,42.7226464 34.65625,44.6835938 L34.65625,46.3359375 C34.65625,48.1875093 35.0429649,49.6601508 35.8164062,50.7539062 C36.5898476,51.8476617 37.671868,52.3945312 39.0625,52.3945312 C40.3125062,52.3945312 41.271481,52.111331 41.9394531,51.5449219 C42.6074252,50.9785128 43.0507802,49.9921945 43.2695312,48.5859375 L45.53125,48.5859375 Z M50.8515625,47.3203125 L50.8515625,54 L48.6015625,54 L48.6015625,36.9375 L54.8945312,36.9375 C56.7617281,36.9375 58.2246041,37.4140577 59.2832031,38.3671875 C60.3418022,39.3203173 60.8710938,40.5820234 60.8710938,42.1523438 C60.8710938,43.808602 60.3535208,45.0839799 59.3183594,45.9785156 C58.2831979,46.8730513 56.8007909,47.3203125 54.8710938,47.3203125 L50.8515625,47.3203125 Z M50.8515625,45.4804688 L54.8945312,45.4804688 C56.0976623,45.4804688 57.019528,45.1972685 57.6601562,44.6308594 C58.3007845,44.0644503 58.6210938,43.2460991 58.6210938,42.1757812 C58.6210938,41.1601512 58.3007845,40.3476593 57.6601562,39.7382812 C57.019528,39.1289032 56.1406306,38.8125001 55.0234375,38.7890625 L50.8515625,38.7890625 L50.8515625,45.4804688 Z M66.15625,54 L63.90625,54 L63.90625,36.9375 L66.15625,36.9375 L66.15625,54 Z M79.6914062,49.546875 L72.5429688,49.546875 L70.9375,54 L68.6171875,54 L75.1328125,36.9375 L77.1015625,36.9375 L83.6289062,54 L81.3203125,54 L79.6914062,49.546875 Z M73.2226562,47.6953125 L79.0234375,47.6953125 L76.1171875,39.7148438 L73.2226562,47.6953125 Z M96.8945312,46.3945312 C94.9648341,45.839841 93.5605513,45.1582072 92.6816406,44.3496094 C91.80273,43.5410116 91.3632812,42.5429747 91.3632812,41.3554688 C91.3632812,40.011712 91.9003853,38.900395 92.9746094,38.0214844 C94.0488335,37.1425737 95.4453039,36.703125 97.1640625,36.703125 C98.3359434,36.703125 99.3808548,36.9296852 100.298828,37.3828125 C101.216801,37.8359398 101.927732,38.4609335 102.431641,39.2578125 C102.935549,40.0546915 103.1875,40.9257765 103.1875,41.8710938 L100.925781,41.8710938 C100.925781,40.8398386 100.59766,40.0292998 99.9414062,39.4394531 C99.285153,38.8496064 98.359381,38.5546875 97.1640625,38.5546875 C96.054682,38.5546875 95.1894562,38.7988257 94.5683594,39.2871094 C93.9472625,39.7753931 93.6367188,40.4531207 93.6367188,41.3203125 C93.6367188,42.0156285 93.9316377,42.6035132 94.5214844,43.0839844 C95.1113311,43.5644555 96.1152273,44.0039043 97.5332031,44.4023438 C98.951179,44.8007832 100.060543,45.240232 100.861328,45.7207031 C101.662113,46.2011743 102.255857,46.7617155 102.642578,47.4023438 C103.029299,48.042972 103.222656,48.7968707 103.222656,49.6640625 C103.222656,51.0468819 102.683599,52.1542927 101.605469,52.9863281 C100.527338,53.8183635 99.0859465,54.234375 97.28125,54.234375 C96.1093691,54.234375 95.0156301,54.0097679 94,53.5605469 C92.9843699,53.1113259 92.2011746,52.4960977 91.6503906,51.7148438 C91.0996066,50.9335898 90.8242188,50.04688 90.8242188,49.0546875 L93.0859375,49.0546875 C93.0859375,50.0859427 93.4667931,50.9003876 94.2285156,51.4980469 C94.9902382,52.0957061 96.0078061,52.3945312 97.28125,52.3945312 C98.4687559,52.3945312 99.3789031,52.1523462 100.011719,51.6679688 C100.644534,51.1835913 100.960938,50.5234417 100.960938,49.6875 C100.960938,48.8515583 100.667972,48.2050804 100.082031,47.7480469 C99.4960908,47.2910133 98.4336014,46.839846 96.8945312,46.3945312 Z M110.851562,52.4648438 C111.625004,52.4648438 112.300778,52.2304711 112.878906,51.7617188 C113.457034,51.2929664 113.777343,50.7070348 113.839844,50.0039062 L115.890625,50.0039062 C115.851562,50.7304724 115.601565,51.4218717 115.140625,52.078125 C114.679685,52.7343783 114.064457,53.2578105 113.294922,53.6484375 C112.525387,54.0390645 111.710942,54.234375 110.851562,54.234375 C109.124991,54.234375 107.751958,53.6582089 106.732422,52.5058594 C105.712886,51.3535099 105.203125,49.7773538 105.203125,47.7773438 L105.203125,47.4140625 C105.203125,46.1796813 105.429685,45.0820361 105.882812,44.1210938 C106.33594,43.1601514 106.986324,42.4140652 107.833984,41.8828125 C108.681645,41.3515598 109.683588,41.0859375 110.839844,41.0859375 C112.261726,41.0859375 113.443355,41.5117145 114.384766,42.3632812 C115.326177,43.214848 115.828125,44.3203057 115.890625,45.6796875 L113.839844,45.6796875 C113.777343,44.8593709 113.4668,44.1855495 112.908203,43.6582031 C112.349607,43.1308567 111.66016,42.8671875 110.839844,42.8671875 C109.738276,42.8671875 108.884769,43.2636679 108.279297,44.0566406 C107.673825,44.8496133 107.371094,45.9960862 107.371094,47.4960938 L107.371094,47.90625 C107.371094,49.3671948 107.671872,50.4921836 108.273438,51.28125 C108.875003,52.0703164 109.734369,52.4648438 110.851562,52.4648438 Z M117.753906,47.5429688 C117.753906,46.300775 117.998044,45.1835987 118.486328,44.1914062 C118.974612,43.1992138 119.654293,42.4335964 120.525391,41.8945312 C121.396489,41.3554661 122.390619,41.0859375 123.507812,41.0859375 C125.234384,41.0859375 126.630854,41.6835878 127.697266,42.8789062 C128.763677,44.0742247 129.296875,45.6640526 129.296875,47.6484375 L129.296875,47.8007812 C129.296875,49.0351624 129.060549,50.1425732 128.587891,51.1230469 C128.115232,52.1035205 127.439458,52.8671848 126.560547,53.4140625 C125.681636,53.9609402 124.671881,54.234375 123.53125,54.234375 C121.812491,54.234375 120.419927,53.6367247 119.353516,52.4414062 C118.287104,51.2460878 117.753906,49.6640723 117.753906,47.6953125 L117.753906,47.5429688 Z M119.933594,47.8007812 C119.933594,49.2070383 120.259762,50.3359332 120.912109,51.1875 C121.564456,52.0390668 122.437495,52.4648438 123.53125,52.4648438 C124.632818,52.4648438 125.507809,52.0332074 126.15625,51.1699219 C126.804691,50.3066363 127.128906,49.097664 127.128906,47.5429688 C127.128906,46.1523368 126.798831,45.0253949 126.138672,44.1621094 C125.478512,43.2988238 124.601568,42.8671875 123.507812,42.8671875 C122.437495,42.8671875 121.574222,43.2929645 120.917969,44.1445312 C120.261715,44.996098 119.933594,46.2148358 119.933594,47.8007812 Z M138.144531,43.265625 C137.816405,43.2109372 137.460939,43.1835938 137.078125,43.1835938 C135.656243,43.1835938 134.691409,43.7890564 134.183594,45 L134.183594,54 L132.015625,54 L132.015625,41.3203125 L134.125,41.3203125 L134.160156,42.7851562 C134.871097,41.6523381 135.8789,41.0859375 137.183594,41.0859375 C137.605471,41.0859375 137.92578,41.1406245 138.144531,41.25 L138.144531,43.265625 Z M145.398438,54.234375 C143.679679,54.234375 142.281255,53.6699275 141.203125,52.5410156 C140.124995,51.4121037 139.585938,49.9023532 139.585938,48.0117188 L139.585938,47.6132812 C139.585938,46.3554625 139.826169,45.2324268 140.306641,44.2441406 C140.787112,43.2558544 141.45898,42.4824247 142.322266,41.9238281 C143.185551,41.3652316 144.121089,41.0859375 145.128906,41.0859375 C146.777352,41.0859375 148.058589,41.6289008 148.972656,42.7148438 C149.886723,43.8007867 150.34375,45.3554586 150.34375,47.3789062 L150.34375,48.28125 L141.753906,48.28125 C141.785156,49.5312562 142.150387,50.5410118 142.849609,51.3105469 C143.548832,52.080082 144.437495,52.4648438 145.515625,52.4648438 C146.281254,52.4648438 146.929685,52.3085953 147.460938,51.9960938 C147.99219,51.6835922 148.457029,51.2695338 148.855469,50.7539062 L150.179688,51.7851562 C149.117182,53.4179769 147.523448,54.234375 145.398438,54.234375 Z M145.128906,42.8671875 C144.253902,42.8671875 143.519534,43.1855437 142.925781,43.8222656 C142.332028,44.4589876 141.964844,45.3515568 141.824219,46.5 L148.175781,46.5 L148.175781,46.3359375 C148.113281,45.2343695 147.816409,44.3808624 147.285156,43.7753906 C146.753904,43.1699188 146.035161,42.8671875 145.128906,42.8671875 Z M44.7109375,125.242188 L49.5976562,125.242188 C52.6679841,125.195312 55.0820225,124.386727 56.8398438,122.816406 C58.597665,121.246086 59.4765625,119.125013 59.4765625,116.453125 C59.4765625,110.453095 56.4883111,107.453125 50.5117188,107.453125 C47.6992047,107.453125 45.4550865,108.255851 43.7792969,109.861328 C42.1035072,111.466805 41.265625,113.593737 41.265625,116.242188 L34.7617188,116.242188 C34.7617188,112.18748 36.2441258,108.818373 39.2089844,106.134766 C42.1738429,103.451158 45.9413834,102.109375 50.5117188,102.109375 C55.3398679,102.109375 59.1249863,103.386706 61.8671875,105.941406 C64.6093887,108.496107 65.9804688,112.046852 65.9804688,116.59375 C65.9804688,118.820324 65.2597728,120.976552 63.8183594,123.0625 C62.3769459,125.148448 60.4140749,126.707026 57.9296875,127.738281 C60.7422016,128.628911 62.9160079,130.105458 64.4511719,132.167969 C65.9863358,134.230479 66.7539062,136.749985 66.7539062,139.726562 C66.7539062,144.320335 65.2539212,147.96483 62.2539062,150.660156 C59.2538913,153.355482 55.3515865,154.703125 50.546875,154.703125 C45.7421635,154.703125 41.8339994,153.402357 38.8222656,150.800781 C35.8105318,148.199206 34.3046875,144.765646 34.3046875,140.5 L40.84375,140.5 C40.84375,143.195326 41.7226475,145.351554 43.4804688,146.96875 C45.23829,148.585946 47.5937352,149.394531 50.546875,149.394531 C53.6875157,149.394531 56.0898354,148.574227 57.7539062,146.933594 C59.4179771,145.292961 60.25,142.937515 60.25,139.867188 C60.25,136.89061 59.3359466,134.605477 57.5078125,133.011719 C55.6796784,131.417961 53.042986,130.597656 49.5976562,130.550781 L44.7109375,130.550781 L44.7109375,125.242188 Z M103.140625,136.808594 L110.242188,136.808594 L110.242188,142.117188 L103.140625,142.117188 L103.140625,154 L96.6015625,154 L96.6015625,142.117188 L73.2929688,142.117188 L73.2929688,138.285156 L96.2148438,102.8125 L103.140625,102.8125 L103.140625,136.808594 Z M80.6757812,136.808594 L96.6015625,136.808594 L96.6015625,111.707031 L95.828125,113.113281 L80.6757812,136.808594 Z"/>
      </g>
      <g transform="translate(827 74)">
        <use fill="#000" filter="url(#dashboard2-k)" xlink:href="#dashboard2-l"/>
        <use fill="#D0ECF7" xlink:href="#dashboard2-l"/>
        <path fill="#4D4D4E" d="M42.390625,46.4648438 L35.2304688,46.4648438 L35.2304688,54 L32.9804688,54 L32.9804688,36.9375 L43.5507812,36.9375 L43.5507812,38.7890625 L35.2304688,38.7890625 L35.2304688,44.625 L42.390625,44.625 L42.390625,46.4648438 Z M48.2617188,54 L46.09375,54 L46.09375,41.3203125 L48.2617188,41.3203125 L48.2617188,54 Z M45.9179688,37.9570312 C45.9179688,37.605467 46.0253896,37.308595 46.2402344,37.0664062 C46.4550792,36.8242175 46.7734354,36.703125 47.1953125,36.703125 C47.6171896,36.703125 47.9374989,36.8242175 48.15625,37.0664062 C48.3750011,37.308595 48.484375,37.605467 48.484375,37.9570312 C48.484375,38.3085955 48.3750011,38.6015613 48.15625,38.8359375 C47.9374989,39.0703137 47.6171896,39.1875 47.1953125,39.1875 C46.7734354,39.1875 46.4550792,39.0703137 46.2402344,38.8359375 C46.0253896,38.6015613 45.9179688,38.3085955 45.9179688,37.9570312 Z M53.78125,41.3203125 L53.8515625,42.9140625 C54.8203173,41.6953064 56.0859297,41.0859375 57.6484375,41.0859375 C60.3281384,41.0859375 61.6796874,42.5976411 61.703125,45.6210938 L61.703125,54 L59.5351562,54 L59.5351562,45.609375 C59.5273437,44.6953079 59.3183614,44.0195334 58.9082031,43.5820312 C58.4980448,43.1445291 57.8593793,42.9257812 56.9921875,42.9257812 C56.289059,42.9257812 55.6718777,43.1132794 55.140625,43.4882812 C54.6093723,43.8632831 54.195314,44.3554657 53.8984375,44.9648438 L53.8984375,54 L51.7304688,54 L51.7304688,41.3203125 L53.78125,41.3203125 Z M72.8007812,54 C72.6757806,53.7499988 72.5742191,53.3046907 72.4960938,52.6640625 C71.4882762,53.7109427 70.2851632,54.234375 68.8867188,54.234375 C67.6367125,54.234375 66.6113321,53.8808629 65.8105469,53.1738281 C65.0097616,52.4667933 64.609375,51.5703179 64.609375,50.484375 C64.609375,49.1640559 65.1113231,48.1386755 66.1152344,47.4082031 C67.1191456,46.6777307 68.5312409,46.3125 70.3515625,46.3125 L72.4609375,46.3125 L72.4609375,45.3164062 C72.4609375,44.55859 72.2343773,43.9550804 71.78125,43.5058594 C71.3281227,43.0566384 70.6601607,42.8320312 69.7773438,42.8320312 C69.0039024,42.8320312 68.3554714,43.0273418 67.8320312,43.4179688 C67.3085911,43.8085957 67.046875,44.2812472 67.046875,44.8359375 L64.8671875,44.8359375 C64.8671875,44.2031218 65.0917946,43.5917998 65.5410156,43.0019531 C65.9902366,42.4121064 66.5996055,41.9453142 67.3691406,41.6015625 C68.1386757,41.2578108 68.9843704,41.0859375 69.90625,41.0859375 C71.3671948,41.0859375 72.5117146,41.4511682 73.3398438,42.1816406 C74.1679729,42.912113 74.5976561,43.9179623 74.6289062,45.1992188 L74.6289062,51.0351562 C74.6289062,52.1992246 74.7773423,53.1249966 75.0742188,53.8125 L75.0742188,54 L72.8007812,54 Z M69.203125,52.3476562 C69.8828159,52.3476562 70.5273407,52.1718768 71.1367188,51.8203125 C71.7460968,51.4687482 72.1874986,51.0117216 72.4609375,50.4492188 L72.4609375,47.8476562 L70.7617188,47.8476562 C68.1054555,47.8476562 66.7773438,48.6249922 66.7773438,50.1796875 C66.7773438,50.8593784 67.003904,51.3906231 67.4570312,51.7734375 C67.9101585,52.1562519 68.4921839,52.3476562 69.203125,52.3476562 Z M80.3828125,54 L78.2148438,54 L78.2148438,36 L80.3828125,36 L80.3828125,54 Z M95.1601562,46.3945312 C93.2304591,45.839841 91.8261763,45.1582072 90.9472656,44.3496094 C90.068355,43.5410116 89.6289062,42.5429747 89.6289062,41.3554688 C89.6289062,40.011712 90.1660103,38.900395 91.2402344,38.0214844 C92.3144585,37.1425737 93.7109289,36.703125 95.4296875,36.703125 C96.6015684,36.703125 97.6464798,36.9296852 98.5644531,37.3828125 C99.4824265,37.8359398 100.193357,38.4609335 100.697266,39.2578125 C101.201174,40.0546915 101.453125,40.9257765 101.453125,41.8710938 L99.1914062,41.8710938 C99.1914062,40.8398386 98.8632845,40.0292998 98.2070312,39.4394531 C97.550778,38.8496064 96.625006,38.5546875 95.4296875,38.5546875 C94.320307,38.5546875 93.4550812,38.7988257 92.8339844,39.2871094 C92.2128875,39.7753931 91.9023438,40.4531207 91.9023438,41.3203125 C91.9023438,42.0156285 92.1972627,42.6035132 92.7871094,43.0839844 C93.3769561,43.5644555 94.3808523,44.0039043 95.7988281,44.4023438 C97.216804,44.8007832 98.3261679,45.240232 99.1269531,45.7207031 C99.9277384,46.2011743 100.521482,46.7617155 100.908203,47.4023438 C101.294924,48.042972 101.488281,48.7968707 101.488281,49.6640625 C101.488281,51.0468819 100.949224,52.1542927 99.8710937,52.9863281 C98.7929634,53.8183635 97.3515715,54.234375 95.546875,54.234375 C94.3749941,54.234375 93.2812551,54.0097679 92.265625,53.5605469 C91.2499949,53.1113259 90.4667996,52.4960977 89.9160156,51.7148438 C89.3652316,50.9335898 89.0898438,50.04688 89.0898438,49.0546875 L91.3515625,49.0546875 C91.3515625,50.0859427 91.7324181,50.9003876 92.4941406,51.4980469 C93.2558632,52.0957061 94.2734311,52.3945312 95.546875,52.3945312 C96.7343809,52.3945312 97.6445281,52.1523462 98.2773437,51.6679688 C98.9101594,51.1835913 99.2265625,50.5234417 99.2265625,49.6875 C99.2265625,48.8515583 98.9335967,48.2050804 98.3476562,47.7480469 C97.7617158,47.2910133 96.6992264,46.839846 95.1601562,46.3945312 Z M109.117187,52.4648438 C109.890629,52.4648438 110.566403,52.2304711 111.144531,51.7617188 C111.722659,51.2929664 112.042968,50.7070348 112.105469,50.0039062 L114.15625,50.0039062 C114.117187,50.7304724 113.86719,51.4218717 113.40625,52.078125 C112.94531,52.7343783 112.330082,53.2578105 111.560547,53.6484375 C110.791012,54.0390645 109.976567,54.234375 109.117187,54.234375 C107.390616,54.234375 106.017583,53.6582089 104.998047,52.5058594 C103.978511,51.3535099 103.46875,49.7773538 103.46875,47.7773438 L103.46875,47.4140625 C103.46875,46.1796813 103.69531,45.0820361 104.148437,44.1210938 C104.601565,43.1601514 105.251949,42.4140652 106.099609,41.8828125 C106.94727,41.3515598 107.949213,41.0859375 109.105469,41.0859375 C110.527351,41.0859375 111.70898,41.5117145 112.650391,42.3632812 C113.591802,43.214848 114.09375,44.3203057 114.15625,45.6796875 L112.105469,45.6796875 C112.042968,44.8593709 111.732425,44.1855495 111.173828,43.6582031 C110.615232,43.1308567 109.925785,42.8671875 109.105469,42.8671875 C108.003901,42.8671875 107.150394,43.2636679 106.544922,44.0566406 C105.93945,44.8496133 105.636719,45.9960862 105.636719,47.4960938 L105.636719,47.90625 C105.636719,49.3671948 105.937497,50.4921836 106.539062,51.28125 C107.140628,52.0703164 107.999994,52.4648438 109.117187,52.4648438 Z M116.019531,47.5429688 C116.019531,46.300775 116.263669,45.1835987 116.751953,44.1914062 C117.240237,43.1992138 117.919918,42.4335964 118.791016,41.8945312 C119.662114,41.3554661 120.656244,41.0859375 121.773437,41.0859375 C123.500009,41.0859375 124.896479,41.6835878 125.962891,42.8789062 C127.029302,44.0742247 127.5625,45.6640526 127.5625,47.6484375 L127.5625,47.8007812 C127.5625,49.0351624 127.326174,50.1425732 126.853516,51.1230469 C126.380857,52.1035205 125.705083,52.8671848 124.826172,53.4140625 C123.947261,53.9609402 122.937506,54.234375 121.796875,54.234375 C120.078116,54.234375 118.685552,53.6367247 117.619141,52.4414062 C116.552729,51.2460878 116.019531,49.6640723 116.019531,47.6953125 L116.019531,47.5429688 Z M118.199219,47.8007812 C118.199219,49.2070383 118.525387,50.3359332 119.177734,51.1875 C119.830081,52.0390668 120.70312,52.4648438 121.796875,52.4648438 C122.898443,52.4648438 123.773434,52.0332074 124.421875,51.1699219 C125.070316,50.3066363 125.394531,49.097664 125.394531,47.5429688 C125.394531,46.1523368 125.064456,45.0253949 124.404297,44.1621094 C123.744137,43.2988238 122.867193,42.8671875 121.773437,42.8671875 C120.70312,42.8671875 119.839847,43.2929645 119.183594,44.1445312 C118.52734,44.996098 118.199219,46.2148358 118.199219,47.8007812 Z M136.410156,43.265625 C136.08203,43.2109372 135.726564,43.1835938 135.34375,43.1835938 C133.921868,43.1835938 132.957034,43.7890564 132.449219,45 L132.449219,54 L130.28125,54 L130.28125,41.3203125 L132.390625,41.3203125 L132.425781,42.7851562 C133.136722,41.6523381 134.144525,41.0859375 135.449219,41.0859375 C135.871096,41.0859375 136.191405,41.1406245 136.410156,41.25 L136.410156,43.265625 Z M143.664062,54.234375 C141.945304,54.234375 140.54688,53.6699275 139.46875,52.5410156 C138.39062,51.4121037 137.851562,49.9023532 137.851562,48.0117188 L137.851562,47.6132812 C137.851562,46.3554625 138.091794,45.2324268 138.572266,44.2441406 C139.052737,43.2558544 139.724605,42.4824247 140.587891,41.9238281 C141.451176,41.3652316 142.386714,41.0859375 143.394531,41.0859375 C145.042977,41.0859375 146.324214,41.6289008 147.238281,42.7148438 C148.152348,43.8007867 148.609375,45.3554586 148.609375,47.3789062 L148.609375,48.28125 L140.019531,48.28125 C140.050781,49.5312562 140.416012,50.5410118 141.115234,51.3105469 C141.814457,52.080082 142.70312,52.4648438 143.78125,52.4648438 C144.546879,52.4648438 145.19531,52.3085953 145.726562,51.9960938 C146.257815,51.6835922 146.722654,51.2695338 147.121094,50.7539062 L148.445312,51.7851562 C147.382807,53.4179769 145.789073,54.234375 143.664062,54.234375 Z M143.394531,42.8671875 C142.519527,42.8671875 141.785159,43.1855437 141.191406,43.8222656 C140.597653,44.4589876 140.230469,45.3515568 140.089844,46.5 L146.441406,46.5 L146.441406,46.3359375 C146.378906,45.2343695 146.082034,44.3808624 145.550781,43.7753906 C145.019529,43.1699188 144.300786,42.8671875 143.394531,42.8671875 Z M66.296875,116.171875 C66.296875,118.726575 65.6230536,120.99999 64.2753906,122.992187 C62.9277276,124.984385 61.1054802,126.542963 58.8085938,127.667969 C61.4804821,128.816412 63.5956953,130.492176 65.1542969,132.695312 C66.7128984,134.898449 67.4921875,137.394517 67.4921875,140.183594 C67.4921875,144.613303 65.9980618,148.140612 63.0097656,150.765625 C60.0214694,153.390638 56.0898681,154.703125 51.2148438,154.703125 C46.2929441,154.703125 42.3496242,153.384779 39.3847656,150.748047 C36.4199071,148.111315 34.9375,144.589866 34.9375,140.183594 C34.9375,137.417955 35.6933518,134.921886 37.2050781,132.695312 C38.7168044,130.468739 40.8085804,128.781256 43.4804688,127.632812 C41.2070199,126.507807 39.4140691,124.949229 38.1015625,122.957031 C36.7890559,120.964834 36.1328125,118.703138 36.1328125,116.171875 C36.1328125,111.859353 37.5156112,108.437513 40.28125,105.90625 C43.0468888,103.374987 46.6913836,102.109375 51.2148438,102.109375 C55.7148662,102.109375 59.3535017,103.374987 62.1308594,105.90625 C64.908217,108.437513 66.296875,111.859353 66.296875,116.171875 Z M60.9882812,140.042969 C60.9882812,137.183579 60.0800872,134.851572 58.2636719,133.046875 C56.4472565,131.242178 54.0742334,130.339844 51.1445312,130.339844 C48.2148291,130.339844 45.8652432,131.23046 44.0957031,133.011719 C42.326163,134.792978 41.4414062,137.136704 41.4414062,140.042969 C41.4414062,142.949233 42.3027258,145.234367 44.0253906,146.898438 C45.7480555,148.562508 48.1445159,149.394531 51.2148438,149.394531 C54.261734,149.394531 56.6523351,148.556649 58.3867188,146.880859 C60.1211024,145.20507 60.9882812,142.925796 60.9882812,140.042969 Z M51.2148438,107.453125 C48.6601435,107.453125 46.5918048,108.244133 45.0097656,109.826172 C43.4277265,111.408211 42.6367188,113.55858 42.6367188,116.277344 C42.6367188,118.878919 43.4160078,120.982414 44.9746094,122.587891 C46.5332109,124.193367 48.6132682,124.996094 51.2148438,124.996094 C53.8164193,124.996094 55.8964766,124.193367 57.4550781,122.587891 C59.0136797,120.982414 59.7929687,118.878919 59.7929687,116.277344 C59.7929687,113.675768 58.9843831,111.554696 57.3671875,109.914062 C55.7499919,108.273429 53.6992312,107.453125 51.2148438,107.453125 Z M100.609375,131.5 C99.2499932,133.117196 97.6269626,134.417964 95.7402344,135.402344 C93.8535062,136.386724 91.7851675,136.878906 89.5351562,136.878906 C86.5820165,136.878906 84.0097766,136.152351 81.8183594,134.699219 C79.6269422,133.246086 77.9335997,131.201185 76.7382812,128.564453 C75.5429628,125.927721 74.9453125,123.015641 74.9453125,119.828125 C74.9453125,116.406233 75.5956966,113.324232 76.8964844,110.582031 C78.1972721,107.83983 80.0429568,105.742195 82.4335938,104.289062 C84.8242307,102.83593 87.6132653,102.109375 90.8007812,102.109375 C95.8633066,102.109375 99.853501,104.001934 102.771484,107.787109 C105.689468,111.572285 107.148438,116.734342 107.148438,123.273437 L107.148438,125.171875 C107.148438,135.132862 105.179707,142.404274 101.242188,146.986328 C97.3046678,151.568382 91.363321,153.917968 83.4179688,154.035156 L82.1523438,154.035156 L82.1523438,148.550781 L83.5234375,148.550781 C88.8906518,148.457031 93.0156106,147.056654 95.8984375,144.349609 C98.7812644,141.642565 100.351561,137.359404 100.609375,131.5 Z M90.5898438,131.5 C92.7695421,131.5 94.7792877,130.832038 96.6191406,129.496094 C98.4589936,128.16015 99.800777,126.507822 100.644531,124.539062 L100.644531,121.9375 C100.644531,117.671854 99.7187593,114.203138 97.8671875,111.53125 C96.0156157,108.859362 93.6718892,107.523438 90.8359375,107.523438 C87.9765482,107.523438 85.6796962,108.61913 83.9453125,110.810547 C82.2109288,113.001964 81.34375,115.890607 81.34375,119.476562 C81.34375,122.968767 82.1816322,125.845692 83.8574219,128.107422 C85.5332115,130.369152 87.7773297,131.5 90.5898438,131.5 Z"/>
      </g>
    </g>
    <g transform="translate(53 872)">
      <text fill="#4D4D4E" font-family="Roboto-Regular, Roboto" font-size="24" letter-spacing=".288">
        <tspan x=".17" y="22">Recenty Created Assessment</tspan>
      </text>
      <g transform="translate(0 57)">
        <use fill="#000" filter="url(#dashboard2-m)" xlink:href="#dashboard2-n"/>
        <use fill="#FFF" xlink:href="#dashboard2-n"/>
        <text fill="#4D4D4E" font-family="Roboto-Regular, Roboto" font-size="24">
          <tspan x="17.308" y="50.146">10 Jan 2017</tspan>  <tspan x="17.308" y="106.146" font-size="20">ABC Childrens Hospital</tspan>
        </text>
        <rect width="125.382" height="55.709" y="135.076" fill="#D8D8D8"/>
        <rect width="125.382" height="55.709" x="124.618" y="135.076" fill="#C4C4C4"/>
        <text fill="#4D4D4E" font-family="Roboto-Regular, Roboto" font-size="20">
          <tspan x="43.269" y="168.246">Edit</tspan>
        </text>
        <text fill="#4D4D4E" font-family="Roboto-Regular, Roboto" font-size="20">
          <tspan x="142.13" y="168.246">Scorecard</tspan>
        </text>
      </g>
      <g transform="translate(276 57)">
        <use fill="#000" filter="url(#dashboard2-o)" xlink:href="#dashboard2-p"/>
        <use fill="#FFF" xlink:href="#dashboard2-p"/>
        <text fill="#4D4D4E" font-family="Roboto-Regular, Roboto" font-size="24">
          <tspan x="17.308" y="50.269">10 Jan 2017</tspan>  <tspan x="17.308" y="106.269" font-size="20">XYZ Childrens Hospital</tspan>
        </text>
        <rect width="125.382" height="55.81" y="135.321" fill="#D8D8D8"/>
        <rect width="125.382" height="55.81" x="124.618" y="135.321" fill="#C4C4C4"/>
        <text fill="#4D4D4E" font-family="Roboto-Regular, Roboto" font-size="20">
          <tspan x="43.269" y="168.538">Edit</tspan>
        </text>
        <text fill="#4D4D4E" font-family="Roboto-Regular, Roboto" font-size="20">
          <tspan x="142.13" y="168.538">Scorecard</tspan>
        </text>
      </g>
      <g transform="translate(552 57)">
        <use fill="#000" filter="url(#dashboard2-q)" xlink:href="#dashboard2-r"/>
        <use fill="#FFF" xlink:href="#dashboard2-r"/>
        <text fill="#4D4D4E" font-family="Roboto-Regular, Roboto" font-size="24">
          <tspan x="17.308" y="50.269">10 Jan 2017</tspan>  <tspan x="17.308" y="106.269" font-size="20">PQR Childrens Hospital</tspan>
        </text>
        <rect width="125.382" height="55.81" y="135.321" fill="#D8D8D8"/>
        <rect width="125.382" height="55.81" x="124.618" y="135.321" fill="#C4C4C4"/>
        <text fill="#4D4D4E" font-family="Roboto-Regular, Roboto" font-size="20">
          <tspan x="43.269" y="168.538">Edit</tspan>
        </text>
        <text fill="#4D4D4E" font-family="Roboto-Regular, Roboto" font-size="20">
          <tspan x="142.13" y="168.538">Scorecard</tspan>
        </text>
      </g>
      <g transform="translate(827 57)">
        <use fill="#000" filter="url(#dashboard2-s)" xlink:href="#dashboard2-t"/>
        <use fill="#FFF" xlink:href="#dashboard2-t"/>
        <text fill="#4D4D4E" font-family="Roboto-Regular, Roboto" font-size="24">
          <tspan x="17.308" y="50.269">10 Jan 2017</tspan>  <tspan x="17.308" y="106.269" font-size="20">ABC Childrens Hospital</tspan>
        </text>
        <rect width="125.382" height="55.81" y="135.321" fill="#D8D8D8"/>
        <rect width="125.382" height="55.81" x="124.618" y="135.321" fill="#C4C4C4"/>
        <text fill="#4D4D4E" font-family="Roboto-Regular, Roboto" font-size="20">
          <tspan x="43.269" y="168.538">Edit</tspan>
        </text>
        <text fill="#4D4D4E" font-family="Roboto-Regular, Roboto" font-size="20">
          <tspan x="142.13" y="168.538">Scorecard</tspan>
        </text>
      </g>
    </g>
    <g style="mix-blend-mode:color">
      <use fill="#FFF" xlink:href="#dashboard2-u"/>
      <rect width="1182" height="63" x=".5" y=".5" stroke="#979797"/>
    </g>
  </g>
</svg>
