<?xml version="1.0" encoding="iso-8859-1"?>
<!-- Generator: Adobe Illustrator 19.0.0, SVG Export Plug-In . SVG Version: 6.00 Build 0)  -->
<svg version="1.1" id="Layer_1" xmlns="http://www.w3.org/2000/svg" xmlns:xlink="http://www.w3.org/1999/xlink" x="0px" y="0px"
	 viewBox="0 0 491.52 491.52" style="enable-background:new 0 0 491.52 491.52;" xml:space="preserve">
<g>
	<g>
		<path d="M342.165,0H40.96v491.52h409.6V108.4L342.165,0z M348.16,34.956l67.441,67.444H348.16V34.956z M430.08,471.04H61.44V20.48
			h266.24v102.4h102.4V471.04z"/>
	</g>
</g>
<g>
	<g>
		<polygon points="177.08,197.56 122.88,251.76 99.4,228.28 84.92,242.76 122.88,280.72 191.56,212.04 		"/>
	</g>
</g>
<g>
	<g>
		<rect x="215.04" y="215.04" width="81.92" height="20.48"/>
	</g>
</g>
<g>
	<g>
		<rect x="215.04" y="256" width="184.32" height="20.48"/>
	</g>
</g>
<g>
	<g>
		<polygon points="177.08,320.44 122.88,374.64 99.4,351.16 84.92,365.64 122.88,403.6 191.56,334.92 		"/>
	</g>
</g>
<g>
	<g>
		<rect x="215.04" y="337.92" width="81.92" height="20.48"/>
	</g>
</g>
<g>
	<g>
		<rect x="215.04" y="378.88" width="184.32" height="20.48"/>
	</g>
</g>
<g>
</g>
<g>
</g>
<g>
</g>
<g>
</g>
<g>
</g>
<g>
</g>
<g>
</g>
<g>
</g>
<g>
</g>
<g>
</g>
<g>
</g>
<g>
</g>
<g>
</g>
<g>
</g>
<g>
</g>
</svg>
