<?xml version="1.0" encoding="iso-8859-1"?>
<!-- Generator: Adobe Illustrator 19.0.0, SVG Export Plug-In . SVG Version: 6.00 Build 0)  -->
<svg version="1.1" id="Layer_1" xmlns="http://www.w3.org/2000/svg" xmlns:xlink="http://www.w3.org/1999/xlink" x="0px" y="0px"
	 viewBox="0 0 491.52 491.52" style="enable-background:new 0 0 491.52 491.52;" xml:space="preserve">
<g>
	<g>
		<path d="M491.52,419.84V61.44h-82.513L378.88,24.85l-30.72,37.31v183.6h61.44V81.92h61.44v256H20.48v-256h61.44v184.32H61.44
			v20.48h20.48h245.76h102.4v-20.48h-102.4V0H81.92v61.44H0v358.4h153.6v51.2h-40.96v20.48h266.24v-20.48h-40.96v-51.2H491.52z
			 M389.12,225.28h-20.48V204.8h20.48V225.28z M389.12,184.32h-20.48V102.4h20.48V184.32z M389.12,81.92h-20.48V69.5l10.24-12.43
			l10.24,12.43V81.92z M102.4,20.48h204.8v245.76H102.4V20.48z M317.44,471.04H174.08v-51.2h143.36V471.04z M20.48,399.36V358.4
			h450.56v40.96H20.48z"/>
	</g>
</g>
<g>
	<g>
		<path d="M122.88,40.96V153.6h163.84V40.96H122.88z M241.617,61.44L204.8,85.109L167.982,61.44H241.617z M143.36,69.954
			l42.507,27.326l-42.507,27.326V69.954z M167.982,133.12l36.818-23.669l36.818,23.669H167.982z M266.24,124.606L223.733,97.28
			l42.507-27.326V124.606z"/>
	</g>
</g>
<g>
	<g>
		<rect x="125.952" y="184.32" width="157.696" height="20.48"/>
	</g>
</g>
<g>
	<g>
		<rect x="159.744" y="225.28" width="90.122" height="20.48"/>
	</g>
</g>
<g>
</g>
<g>
</g>
<g>
</g>
<g>
</g>
<g>
</g>
<g>
</g>
<g>
</g>
<g>
</g>
<g>
</g>
<g>
</g>
<g>
</g>
<g>
</g>
<g>
</g>
<g>
</g>
<g>
</g>
</svg>
