<?xml version="1.0" encoding="iso-8859-1"?>
<!-- Generator: Adobe Illustrator 19.0.0, SVG Export Plug-In . SVG Version: 6.00 Build 0)  -->
<svg version="1.1" id="Layer_1" xmlns="http://www.w3.org/2000/svg" xmlns:xlink="http://www.w3.org/1999/xlink" x="0px" y="0px"
	 viewBox="0 0 321.493 321.493" style="enable-background:new 0 0 321.493 321.493;" xml:space="preserve">
<g>
	<g>
		<path d="M73.813,0C33.067,0,0,33.067,0,73.813c0,40.747,33.067,73.813,73.813,73.813c40.747,0,73.813-33.067,73.813-73.813
			C147.627,33.067,114.56,0,73.813,0z M73.813,133.76c-33.067,0-59.947-26.88-59.947-59.947c0-33.067,26.88-59.947,59.947-59.947
			c33.067,0,59.947,26.88,59.947,59.947C133.76,106.88,106.88,133.76,73.813,133.76z"/>
	</g>
</g>
<g>
	<g>
		<path d="M73.813,26.773c-11.2,0-20.267,9.067-20.267,20.267s9.067,20.267,20.267,20.267c11.2,0,20.267-9.067,20.267-20.267
			S85.013,26.773,73.813,26.773z M73.813,53.44c-3.52,0-6.4-2.88-6.4-6.4s2.88-6.4,6.4-6.4c3.52,0,6.4,2.88,6.4,6.4
			S77.333,53.44,73.813,53.44z"/>
	</g>
</g>
<g>
	<g>
		<path d="M73.92,73.493c-27.413,0-50.347,20.48-53.44,47.573l13.76,1.6c2.24-20.053,19.307-35.2,39.573-35.2
			s37.227,15.147,39.573,35.2l13.973-1.6C124.16,93.973,101.333,73.493,73.92,73.493z"/>
	</g>
</g>
<g>
	<g>
		<path d="M247.68,86.933c-40.747,0-73.813,33.067-73.813,73.813s33.067,73.813,73.813,73.813s73.813-33.067,73.813-73.813
			S288.427,86.933,247.68,86.933z M247.68,220.693c-33.067,0-59.947-26.88-59.947-59.947s26.88-59.947,59.947-59.947
			s59.947,26.88,59.947,59.947S280.747,220.693,247.68,220.693z"/>
	</g>
</g>
<g>
	<g>
		<path d="M247.68,113.707c-11.2,0-20.267,9.067-20.267,20.267s9.067,20.267,20.267,20.267c11.2,0,20.267-9.067,20.267-20.267
			S258.88,113.707,247.68,113.707z M247.68,140.373c-3.52,0-6.4-2.88-6.4-6.4c0-3.52,2.88-6.4,6.4-6.4s6.4,2.88,6.4,6.4
			C254.08,137.493,251.2,140.373,247.68,140.373z"/>
	</g>
</g>
<g>
	<g>
		<path d="M247.787,160.427c-27.413,0-50.347,20.48-53.44,47.573l13.76,1.6c2.24-20.053,19.307-35.2,39.573-35.2
			s37.227,15.147,39.573,35.2l13.973-1.6C298.027,180.907,275.2,160.427,247.787,160.427z"/>
	</g>
</g>
<g>
	<g>
		<path d="M73.813,173.867C33.067,173.867,0,206.933,0,247.68c0,40.747,33.067,73.813,73.813,73.813
			c40.747,0,73.813-33.067,73.813-73.813C147.627,206.933,114.56,173.867,73.813,173.867z M73.813,307.627
			c-33.067,0-59.947-26.88-59.947-59.947s26.88-59.947,59.947-59.947c33.067,0,59.947,26.88,59.947,59.947
			S106.88,307.627,73.813,307.627z"/>
	</g>
</g>
<g>
	<g>
		<path d="M73.813,200.64c-11.2,0-20.267,9.067-20.267,20.267c0,11.2,9.067,20.267,20.267,20.267c11.2,0,20.267-9.067,20.267-20.267
			C94.08,209.707,85.013,200.64,73.813,200.64z M73.813,227.307c-3.52,0-6.4-2.88-6.4-6.4c0-3.52,2.88-6.4,6.4-6.4
			c3.52,0,6.4,2.88,6.4,6.4C80.213,224.427,77.333,227.307,73.813,227.307z"/>
	</g>
</g>
<g>
	<g>
		<path d="M73.92,247.36c-27.413,0-50.347,20.48-53.44,47.573l13.76,1.6c2.24-20.053,19.307-35.2,39.573-35.2
			s37.227,15.147,39.573,35.2l13.973-1.6C124.16,267.84,101.333,247.36,73.92,247.36z"/>
	</g>
</g>
<g>
	<g>
		
			<rect x="153.786" y="87.023" transform="matrix(0.4486 -0.8937 0.8937 0.4486 -16.2297 208.3253)" width="13.866" height="60.585"/>
	</g>
</g>
<g>
	<g>
		
			<rect x="130.515" y="197.246" transform="matrix(0.8937 -0.4486 0.4486 0.8937 -74.5077 93.8395)" width="60.585" height="13.866"/>
	</g>
</g>
<g>
</g>
<g>
</g>
<g>
</g>
<g>
</g>
<g>
</g>
<g>
</g>
<g>
</g>
<g>
</g>
<g>
</g>
<g>
</g>
<g>
</g>
<g>
</g>
<g>
</g>
<g>
</g>
<g>
</g>
</svg>
