<svg xmlns="http://www.w3.org/2000/svg" xmlns:xlink="http://www.w3.org/1999/xlink" width="287" height="223" viewBox="0 0 287 223">
  <defs>
    <path id="viz1-a" d="M91.4180479,182.836096 C40.9292542,182.836096 0,141.906842 0,91.4180479 C0,40.9292542 40.9292542,0 91.4180479,0 C141.906842,0 182.836096,40.9292542 182.836096,91.4180479 C182.836096,141.906842 141.906842,182.836096 91.4180479,182.836096 Z M91.6685083,144.265193 C120.716855,144.265193 144.265193,120.716855 144.265193,91.6685083 C144.265193,62.6201612 120.716855,39.0718232 91.6685083,39.0718232 C62.6201612,39.0718232 39.0718232,62.6201612 39.0718232,91.6685083 C39.0718232,120.716855 62.6201612,144.265193 91.6685083,144.265193 Z"/>
  </defs>
  <g fill="none" fill-rule="evenodd" transform="translate(1 -3)">
    <g transform="translate(48 48)">
      <mask id="viz1-b" fill="#fff">
        <use xlink:href="#viz1-a"/>
      </mask>
      <g mask="url(#viz1-b)">
        <g transform="translate(25.529 6.011)">
          <circle cx="66.14" cy="85.657" r="65.5" fill="#FFD400"/>
          <path fill="#1769FF" d="M65.6390424,161.795809 C65.8058891,161.796883 65.9728633,161.797422 66.1399632,161.797422 C108.190904,161.797422 142.279926,127.708399 142.279926,85.6574586 C142.279926,80.3361296 141.734039,75.1422996 140.695208,70.1289134 L65.6390424,70.1289134 L65.6390424,161.795809 Z"/>
          <path fill="#44D62C" d="M65.6390424,4.26468518e-29 C112.6697,4.65610535e-14 150.79558,38.1258806 150.79558,85.1565378 L65.6390424,85.1565378 L65.6390424,0 Z"/>
          <path fill="#FF0072" d="M78.1099286,72.6856515 C101.625257,72.6856515 122.914392,82.2171217 138.324694,97.627424 L78.1099286,157.842189 L78.1099286,72.6856515 Z" transform="rotate(90 108.217 115.264)"/>
        </g>
      </g>
    </g>
    <path stroke="#1B1B1B" d="M204.331995,167 L285.677716,167"/>
    <path stroke="#1B1B1B" stroke-linecap="square" d="M0.250460405,138.5 L75.1703785,138.5"/>
    <text fill="#4A4A4A" font-family="DINAlternate-Bold, DIN Alternate" font-size="12" font-weight="bold" letter-spacing=".333">
      <tspan x="0" y="130">MS Excel</tspan>
    </text>
    <text fill="#4A4A4A" font-family="DINAlternate-Bold, DIN Alternate" font-size="12" font-weight="bold" letter-spacing=".333">
      <tspan x="239.528" y="157">Journal</tspan>
    </text>
    <path stroke="#1B1B1B" d="M189,90 L285.6115,90"/>
    <text fill="#4A4A4A" font-family="DINAlternate-Bold, DIN Alternate" font-size="12" font-weight="bold" letter-spacing=".333">
      <tspan x="248.82" y="80">Gmail</tspan>
    </text>
    <text fill="#4A4A4A" font-family="DINAlternate-Bold, DIN Alternate" font-size="11" font-weight="bold" letter-spacing=".306">
      <tspan x="262.814" y="64">24%</tspan>
    </text>
    <text fill="#4A4A4A" font-family="DINAlternate-Bold, DIN Alternate" font-size="11" font-weight="bold" letter-spacing=".306">
      <tspan x="262.814" y="141">14%</tspan>
    </text>
    <text fill="#4A4A4A" font-family="DINAlternate-Bold, DIN Alternate" font-size="11" font-weight="bold" letter-spacing=".306">
      <tspan x="0" y="114">51%</tspan>
    </text>
    <text fill="#4A4A4A" font-family="DINAlternate-Bold, DIN Alternate" font-size="11" font-weight="bold" letter-spacing=".306">
      <tspan x="262.814" y="199">11%</tspan>
    </text>
    <polyline stroke="#1B1B1B" points="165 225.099 190.099 200 283.216 200" transform="matrix(1 0 0 -1 0 425.099)"/>
    <text fill="#4A4A4A" font-family="DINAlternate-Bold, DIN Alternate" font-size="12" font-weight="bold" letter-spacing=".333">
      <tspan x="250.566" y="215">Other</tspan>
    </text>
    <text fill="#1B1B1B" font-family="Avenir-Heavy, Avenir" font-size="14" font-weight="600">
      <tspan x="75" y="14">Tools Currently Used</tspan>
    </text>
  </g>
</svg>
