<svg xmlns="http://www.w3.org/2000/svg" width="306" height="240" viewBox="0 0 306 240">
  <g fill="none" fill-rule="evenodd" transform="translate(-1 -3)">
    <g font-family="DINAlternate-Bold, DIN Alternate" font-size="12" font-weight="bold" transform="translate(0 57)">
      <text fill="#4A4A4A" transform="translate(22)">
        <tspan x=".129" y="11">Reporting Data</tspan>
      </text>
      <g transform="translate(16 153)">
        <text fill="#4A4A4A">
          <tspan x=".682" y="11">Recommending</tspan>
        </text>
        <text fill="#6A6A6A">
          <tspan x="234" y="30">Percentage</tspan>
        </text>
      </g>
      <text fill="#4A4A4A" transform="translate(0 38)">
        <tspan x=".895" y="11">Calculating Results</tspan>
      </text>
      <text fill="#4A4A4A" transform="translate(16 114)">
        <tspan x=".814" y="11">Organizing Data</tspan>
      </text>
      <text fill="#4A4A4A" transform="translate(7 76)">
        <tspan x=".352" y="11">Analyzing Results</tspan>
      </text>
    </g>
    <text fill="#1B1B1B" font-family="Avenir-Heavy, Avenir" font-size="14" font-weight="600">
      <tspan x="61" y="14">Most Time Consuming Tasks</tspan>
    </text>
    <path stroke="#DADADA" stroke-linecap="square" d="M114.5 63.5L305.510468 63.5M114.5 101.5L305.510468 101.5M114.5 139.5L305.510468 139.5M114.5 177.5L305.510468 177.5M114.5 216.5L305.510468 216.5"/>
    <rect width="49" height="8" x="114" y="60" fill="#44D62C" rx="4"/>
    <rect width="110" height="8" x="114" y="97" fill="#44D62C" rx="4"/>
    <rect width="66" height="8" x="114" y="134" fill="#44D62C" rx="4"/>
    <rect width="77" height="8" x="114" y="173" fill="#44D62C" rx="4"/>
    <rect width="25" height="8" x="114" y="212" fill="#44D62C" rx="4"/>
    <text fill="#4D4D4E" font-family="DINAlternate-Bold, DIN Alternate" font-size="12" font-weight="bold">
      <tspan x="169" y="68">10%</tspan>
    </text>
    <text fill="#4D4D4E" font-family="DINAlternate-Bold, DIN Alternate" font-size="12" font-weight="bold">
      <tspan x="186" y="143">15%</tspan>
    </text>
    <text fill="#4D4D4E" font-family="DINAlternate-Bold, DIN Alternate" font-size="12" font-weight="bold">
      <tspan x="197" y="182">17%</tspan>
    </text>
    <text fill="#4D4D4E" font-family="DINAlternate-Bold, DIN Alternate" font-size="12" font-weight="bold">
      <tspan x="230" y="106">22%</tspan>
    </text>
    <text fill="#4D4D4E" font-family="DINAlternate-Bold, DIN Alternate" font-size="12" font-weight="bold">
      <tspan x="145" y="221">6%</tspan>
    </text>
  </g>
</svg>
